<svg width="16" height="16" viewBox="0 0 16 16" fill="none" xmlns="http://www.w3.org/2000/svg">
<path d="M10.6667 13.3333H5.33333C4.8029 13.3333 4.29419 13.1225 3.91912 12.7475C3.54405 12.3724 3.33333 11.8637 3.33333 11.3333V4.66659C3.33333 4.48977 3.2631 4.32021 3.13807 4.19518C3.01305 4.07016 2.84348 3.99992 2.66667 3.99992C2.48986 3.99992 2.32029 4.07016 2.19526 4.19518C2.07024 4.32021 2 4.48977 2 4.66659V11.3333C2 12.2173 2.35119 13.0652 2.97631 13.6903C3.60143 14.3154 4.44928 14.6666 5.33333 14.6666H10.6667C10.8435 14.6666 11.013 14.5963 11.1381 14.4713C11.2631 14.3463 11.3333 14.1767 11.3333 13.9999C11.3333 13.8231 11.2631 13.6535 11.1381 13.5285C11.013 13.4035 10.8435 13.3333 10.6667 13.3333ZM14 5.95992C13.9931 5.89867 13.9796 5.83834 13.96 5.77992V5.71992C13.9279 5.65137 13.8852 5.58836 13.8333 5.53325L9.83333 1.53325C9.77822 1.4814 9.71521 1.43864 9.64667 1.40659H9.58667L9.37333 1.33325H6.66667C6.13623 1.33325 5.62753 1.54397 5.25245 1.91904C4.87738 2.29411 4.66667 2.80282 4.66667 3.33325V9.99992C4.66667 10.5304 4.87738 11.0391 5.25245 11.4141C5.62753 11.7892 6.13623 11.9999 6.66667 11.9999H12C12.5304 11.9999 13.0391 11.7892 13.4142 11.4141C13.7893 11.0391 14 10.5304 14 9.99992V5.99992V5.95992ZM10 3.60659L11.7267 5.33325H10.6667C10.4899 5.33325 10.3203 5.26301 10.1953 5.13799C10.0702 5.01297 10 4.8434 10 4.66659V3.60659ZM12.6667 9.99992C12.6667 10.1767 12.5964 10.3463 12.4714 10.4713C12.3464 10.5963 12.1768 10.6666 12 10.6666H6.66667C6.48986 10.6666 6.32029 10.5963 6.19526 10.4713C6.07024 10.3463 6 10.1767 6 9.99992V3.33325C6 3.15644 6.07024 2.98687 6.19526 2.86185C6.32029 2.73682 6.48986 2.66659 6.66667 2.66659H8.66667V4.66659C8.66667 5.19702 8.87738 5.70573 9.25245 6.0808C9.62753 6.45587 10.1362 6.66659 10.6667 6.66659H12.6667V9.99992Z" fill="#A6A0BB"/>
</svg>