<svg width="12" height="12" viewBox="0 0 12 12" fill="none" xmlns="http://www.w3.org/2000/svg">
<path fill-rule="evenodd" clip-rule="evenodd" d="M2.25406 0.75H9.75635C10.5798 0.75 11.2496 1.42007 11.2496 2.2435V3.17001H0.760742V2.2435C0.760742 1.42007 1.43059 0.75 2.25406 0.75ZM3.04558 2.03979C3.04558 2.27369 3.23518 2.46355 3.46933 2.46355C3.7032 2.46355 3.89283 2.27369 3.89283 2.03979C3.89283 1.8059 3.7032 1.61604 3.46933 1.61604C3.23518 1.61604 3.04558 1.8059 3.04558 2.03979ZM8.1176 2.03979C8.1176 2.27369 8.30714 2.46355 8.5411 2.46355C8.77522 2.46355 8.96476 2.27369 8.96476 2.03979C8.96476 1.8059 8.77522 1.61604 8.5411 1.61604C8.30714 1.61604 8.1176 1.8059 8.1176 2.03979ZM0.760742 3.81262V9.92313C0.760742 10.7466 1.43059 11.4166 2.25406 11.4166H9.75635C10.5798 11.4166 11.2496 10.7466 11.2496 9.92313V3.81262H0.760742ZM4.88574 5.81239L6.04247 5.39596H6.92741V9.81262H5.91605V6.46227L5.13225 6.67678L4.88574 5.81239Z" fill="#C4CFE0"/>
</svg>
