<svg width="16" height="13" viewBox="0 0 16 13" fill="none" xmlns="http://www.w3.org/2000/svg">
<path d="M15.5 7.64891C15.5 9.29434 14.9763 10.8562 13.9856 12.166C13.7901 12.4245 13.4226 12.4747 13.1648 12.2798C12.9068 12.0845 12.8558 11.7171 13.051 11.459C13.8865 10.3545 14.3281 9.03696 14.3281 7.64891C14.3281 4.15137 11.4956 1.32422 8 1.32422C4.502 1.32422 1.67188 4.15354 1.67188 7.64891C1.67188 9.03696 2.1135 10.3545 2.94892 11.459C3.14416 11.7171 3.09323 12.0845 2.83517 12.2798C2.57699 12.475 2.20963 12.4241 2.01428 12.166C1.02368 10.8562 0.5 9.29434 0.5 7.64891C0.5 3.5034 3.85678 0.152344 8 0.152344C12.1455 0.152344 15.5 3.50569 15.5 7.64891ZM11.7126 4.12012C11.9413 4.34889 11.9413 4.71991 11.7126 4.94868L9.80267 6.85858C9.95992 7.14846 10.0494 7.48034 10.0494 7.83259C10.0494 8.96269 9.12999 9.882 8 9.882C6.8699 9.882 5.95059 8.96269 5.95059 7.83259C5.95059 6.7026 6.8699 5.78318 8 5.78318C8.35236 5.78318 8.68413 5.87267 8.97401 6.02991L10.8839 4.12001C11.1128 3.89124 11.4837 3.89124 11.7126 4.12012ZM8.87753 7.8327C8.87753 7.34885 8.48386 6.95517 8 6.95517C7.51614 6.95517 7.12247 7.34885 7.12247 7.8327C7.12247 8.31656 7.51614 8.71024 8 8.71024C8.48386 8.71024 8.87753 8.31656 8.87753 7.8327Z" fill="#BDB7CC"/>
</svg>
