<svg width="20" height="20" viewBox="0 0 20 20" fill="none" xmlns="http://www.w3.org/2000/svg">
<path fill-rule="evenodd" clip-rule="evenodd" d="M12.1303 11.6082C12.4548 13.3418 11.6419 14.9126 10.0707 15.508C10.3418 14.8039 10.3962 13.9913 10.1797 13.1787C9.96296 13.3411 9.69206 13.5036 9.42117 13.6119C9.31281 13.666 9.20447 13.666 9.15031 13.6118L6.44246 10.9025C6.33414 10.7941 6.33417 10.6858 6.38837 10.5774C6.49679 10.3066 6.65937 10.0358 6.82196 9.76499L6.82196 9.76498C6.00945 9.54808 5.19686 9.60203 4.49256 9.8727C5.08886 8.30189 6.71421 7.54392 8.39346 7.81523C10.0732 6.19053 12.4029 5.05355 14.7323 5C14.8948 5.00004 15.0031 5.10842 15.0031 5.27093C14.9483 7.60029 13.81 9.92936 12.1303 11.6082ZM10.4519 8.03246C10.0184 8.46572 10.0183 9.11578 10.4515 9.54927C10.8848 9.98275 11.5348 9.98293 11.9683 9.54967C12.4018 9.11642 12.402 8.46636 11.9687 8.03287C11.5355 7.59938 10.8854 7.59921 10.4519 8.03246ZM8.33729 14.5326L7.19938 15.6699C6.98264 15.8865 6.65761 15.8864 6.44098 15.6697C6.22435 15.453 6.22444 15.1279 6.44118 14.9113L7.57909 13.774C7.79583 13.5574 8.12086 13.5575 8.33749 13.7742C8.55412 13.9909 8.55403 14.316 8.33729 14.5326ZM5.08756 13.5565L6.22547 12.4192C6.44221 12.2025 6.4423 11.8775 6.22567 11.6608C6.00904 11.444 5.68401 11.4439 5.46727 11.6606L4.32936 12.7978C4.11262 13.0145 4.11253 13.3395 4.32916 13.5562C4.54579 13.773 4.87082 13.7731 5.08756 13.5565ZM7.25452 13.4486L5.68313 15.0192C5.46638 15.2358 5.14135 15.2357 4.92472 15.019C4.70809 14.8022 4.70818 14.4772 4.92493 14.2606L6.49632 12.69C6.71307 12.4734 7.0381 12.4735 7.25472 12.6902C7.47135 12.907 7.47127 13.232 7.25452 13.4486Z" fill="#C4CFE0"/>
</svg>