<svg width="16" height="16" viewBox="0 0 16 16" fill="none" xmlns="http://www.w3.org/2000/svg">
<path d="M6.50049 6.67065H9.32915V9.49932" stroke="#A6A0BB" stroke-width="1.5" stroke-linecap="round" stroke-linejoin="round"/>
<path d="M9.33325 6.66667L4.31659 11.6833C3.96459 12.0353 3.39325 12.0353 3.04125 11.6833V11.6833C2.15459 10.7967 1.65525 9.594 1.65259 8.34V8.34C1.65259 7.52 1.81125 6.7 2.12659 5.92867C2.43725 5.16934 2.89925 4.458 3.51592 3.842C4.62192 2.736 6.14992 2.052 7.83725 2.052C9.52459 2.052 11.0526 2.736 12.1586 3.842C13.2646 4.948 13.9486 6.47534 13.9486 8.16334C13.9486 9.85067 13.2646 11.3787 12.1586 12.4847C11.0526 13.5907 9.52525 14.2747 7.83725 14.2747C7.17925 14.2747 6.52259 14.1613 5.89259 13.9493" stroke="#A6A0BB" stroke-width="1.5" stroke-linecap="round" stroke-linejoin="round"/>
</svg>