<svg width="20" height="20" viewBox="0 0 20 20" fill="none" xmlns="http://www.w3.org/2000/svg">
<path fill-rule="evenodd" clip-rule="evenodd" d="M11.5443 5.02907L6.89331 6.29858H6.25659L10.4202 4.23513C10.7438 4.07399 11.1368 4.20762 11.298 4.53122L11.5443 5.02907ZM12.8146 5.08917C12.8723 5.07345 12.9299 5.06559 12.9876 5.06559C13.2758 5.06559 13.5404 5.25687 13.619 5.54903L13.8234 6.29842H12.1727H8.38509L11.722 5.38788L12.8146 5.08917ZM14.5063 6.75708H14.3569H14.1538H13.9508H12.4009H6.70577H5.959H5.33014H5.21354H4.82312C4.61612 6.75708 4.43139 6.85272 4.31086 7.00338C4.25584 7.07282 4.21391 7.15274 4.19033 7.24052C4.17592 7.29554 4.16675 7.35319 4.16675 7.41214V7.49075V8.23752V14.7109C4.16675 15.0725 4.46022 15.3659 4.82181 15.3659H14.5049C14.8666 15.3659 15.16 15.0725 15.16 14.7109V12.8832H11.2729C10.6584 12.8832 10.1593 12.3841 10.1593 11.7696V11.1696V10.9665V10.7634V10.3128C10.1593 10.0114 10.2798 9.73763 10.475 9.53718C10.6479 9.35899 10.8798 9.23846 11.1392 9.20832C11.1825 9.2031 11.227 9.20046 11.2716 9.20046H14.615H14.8181H15.0211H15.16V7.41214C15.1613 7.05055 14.8679 6.75708 14.5063 6.75708ZM15.3905 9.69039C15.477 9.72052 15.5543 9.76638 15.6198 9.82664C15.7508 9.94585 15.8334 10.1188 15.8334 10.3101V11.7683C15.8334 11.9595 15.7508 12.1325 15.6198 12.2517C15.5543 12.312 15.477 12.3591 15.3905 12.3879C15.3237 12.4102 15.253 12.4233 15.1783 12.4233H15.1613H11.2728C10.9112 12.4233 10.6178 12.1298 10.6178 11.7682V11.0424V10.8394V10.6363V10.3101C10.6178 9.94848 10.9112 9.65503 11.2728 9.65503H14.2127H14.9451H15.1482H15.1613H15.1783C15.253 9.65503 15.3237 9.66813 15.3905 9.69039ZM12.3131 11.4971C12.4939 11.4971 12.6406 11.3503 12.6406 11.1695V10.952C12.6406 10.7712 12.4939 10.6245 12.3131 10.6245H12.1506H12.0956C12.0196 10.6245 11.9502 10.652 11.8938 10.6952C11.8165 10.7542 11.768 10.8472 11.768 10.952V11.1695C11.768 11.3503 11.9148 11.4971 12.0956 11.4971H12.3131Z" fill="#C4CFE0"/>
</svg>