<svg width="216" height="377" fill="none" xmlns="http://www.w3.org/2000/svg"><path d="M61.984 376.785c-16.832.001-30.724-17.454-44.161-34.335-5.865-7.368-11.402-14.326-16.981-19.553-5.467-5.122-12.273-7.924-18.854-10.633-7.567-3.114-15.392-6.335-20.867-13.105-6.22-7.693-9.263-18.686-12.206-29.318-2.726-9.85-5.544-20.036-10.881-27.958-3.09-4.586-6.852-8.956-10.491-13.182-9.607-11.156-19.54-22.691-19.543-40.308-.003-49.633 16.175-96.755 45.556-132.688C-17.07 19.784 21.442 0 62 0c40.58 0 79.097 19.78 108.459 55.7C199.82 91.619 215.994 138.743 216 188.393c.002 17.865-2.606 45.758-9.932 70.463-8.429 28.415-21.143 46.077-36.767 51.074-7.769 2.485-14.607 2.536-21.222 2.585-10.71.079-20.826.154-32.478 11.312-5.604 5.368-10.797 12.914-16.293 20.903-10.84 15.754-22.047 32.045-37.308 32.055h-.016ZM62 1.039c-40.33 0-78.63 19.675-107.843 55.402-29.22 35.735-45.31 82.596-45.307 131.952.001 17.17 9.8 28.55 19.277 39.554 3.657 4.247 7.442 8.64 10.564 13.275 5.435 8.07 8.28 18.346 11.028 28.286 3.046 11.004 5.923 21.397 12.006 28.92 5.332 6.595 12.716 9.634 20.533 12.852 6.648 2.736 13.522 5.565 19.101 10.793 5.626 5.272 11.186 12.257 17.072 19.651 13.313 16.726 27.081 34.02 43.553 34.022H62c14.864-.01 25.943-16.113 36.658-31.685 5.526-8.031 10.745-15.617 16.419-21.051 11.881-11.378 22.138-11.454 32.998-11.535 6.561-.048 13.346-.099 21.01-2.549 37.801-12.09 46.069-91.107 46.066-120.533C215.137 86.836 145.004 1.039 62 1.039Z" fill="url(#a)"/><path d="M61.241 362.96c-14.54 0-27.506-15.112-40.05-29.731-5.582-6.506-10.854-12.651-16.196-17.442-4.8-4.305-10.705-7.433-16.415-10.459-7.428-3.935-15.107-8.004-20.472-14.719-5.673-7.101-8.89-16.875-12.003-26.329-2.51-7.626-5.105-15.512-8.978-21.987-3.006-5.03-6.735-9.854-10.34-14.519-8.782-11.364-17.863-23.114-18-39.376-.372-45.135 15.104-90.412 42.461-124.221C-11.288 30.24 24.492 11.55 62.002 11.55c36.786 0 73.574 19.09 100.935 52.374 27.401 33.335 43.103 78.216 43.08 123.134-.02 40.255-11.603 104.501-43.426 116.506-6.573 2.48-13.064 3.187-19.34 3.869-9.38 1.02-18.24 1.984-27.25 8.401-7.082 5.044-13.771 13.154-20.24 20.997-10.512 12.745-21.383 25.925-34.19 26.126-.11.002-.22.002-.329.002Zm.76-350.37c-37.281 0-72.847 18.58-100.149 52.318-27.2 33.613-42.586 78.62-42.215 123.48.131 15.853 9.098 27.454 17.768 38.673 3.623 4.687 7.37 9.535 10.41 14.619 3.933 6.58 6.549 14.526 9.079 22.212 3.08 9.359 6.266 19.038 11.822 25.991 5.248 6.569 12.85 10.596 20.2 14.491 5.755 3.048 11.704 6.201 16.58 10.575 5.386 4.83 10.679 10.999 16.282 17.529 12.42 14.477 25.263 29.443 39.465 29.443.106 0 .21 0 .317-.002 12.464-.196 23.21-13.226 33.603-25.825 6.507-7.888 13.234-16.046 20.409-21.156 9.174-6.535 18.126-7.509 27.601-8.539 6.233-.678 12.68-1.378 19.168-3.826 31.384-11.84 42.806-75.567 42.826-115.514.023-44.644-15.588-89.256-42.83-122.397C135.134 31.57 98.564 12.59 62.001 12.59Z" fill="url(#b)"/><path d="M60.104 346.283c-13.162 0-25.19-12.273-36.827-24.147-4.35-4.438-8.457-8.63-12.61-12.197-4.477-3.846-9.786-7.006-14.918-10.062-7.63-4.541-15.518-9.235-21.187-16.395-5.8-7.326-9.442-16.951-12.965-26.257-2.552-6.744-5.192-13.717-8.623-19.713-2.103-3.678-4.465-7.308-6.751-10.818-7.384-11.341-15.019-23.067-15.156-38.296-.4-43.72 14.149-87.076 39.914-118.95C-4.42 39.015 27.907 22.254 62 22.254c33.986 0 68.368 18.242 94.327 50.05 25.163 30.831 39.566 71.382 39.514 111.257l-.424-.001.424.001c-.041 32.485-8.417 98.246-39.826 114.617-7.201 3.753-14.798 5.315-22.145 6.825-8.366 1.719-17.018 3.495-25.11 8.525-5.814 3.615-11.556 8.896-17.109 14.005-9.929 9.134-20.195 18.58-31.228 18.748-.106.002-.214.002-.32.002ZM62 23.293c-33.866 0-65.974 16.65-90.416 46.886-25.607 31.677-40.065 74.762-39.668 118.207.134 14.873 7.678 26.458 14.972 37.661 2.293 3.523 4.663 7.164 6.783 10.868 3.474 6.073 6.128 13.089 8.697 19.874 3.493 9.228 7.105 18.77 12.805 25.97 5.566 7.028 13.384 11.682 20.947 16.184 5.163 3.073 10.503 6.252 15.036 10.146 4.18 3.592 8.303 7.797 12.665 12.25 11.52 11.753 23.43 23.904 36.285 23.904.103 0 .206 0 .308-.002 10.754-.163 20.908-9.505 30.73-18.54 5.58-5.134 11.351-10.444 17.232-14.098 8.209-5.102 16.925-6.893 25.354-8.625 7.298-1.5 14.844-3.05 21.954-6.756 30.999-16.158 39.268-81.415 39.309-113.663.052-39.6-14.26-79.884-39.266-110.52C129.926 41.425 95.763 23.293 62 23.293Z" fill="url(#c)"/><path d="m59.017 327.739-.21-.001c-13.171-.105-24.857-9.994-36.157-19.558-3.852-3.26-7.835-6.63-11.747-9.479-3.297-2.401-6.878-4.507-10.342-6.543-6.978-4.103-14.194-8.345-19.697-15.303-6.049-7.649-9.985-17.515-13.794-27.057-2.039-5.11-4.147-10.395-6.538-15.203a396.757 396.757 0 0 0-3.607-7.021c-6.232-11.936-12.677-24.279-12.606-39.185.23-48.137 9.967-83.315 29.772-107.54C-.961 50.328 31.08 32.67 61.997 32.401c.218-.002.44-.003.66-.003 29.89 0 62.094 17.526 86.29 46.995 23.333 28.419 36.673 64.595 36.598 99.251-.072 32.58-7.749 93.321-36.067 114.328-7.704 5.713-16.441 7.173-24.889 8.583-5.19.867-10.555 1.762-15.651 3.631-6.465 2.37-12.926 6.33-19.174 10.158-9.947 6.093-20.231 12.395-30.747 12.395ZM62.66 33.437c-.22 0-.437.001-.656.003-30.695.267-62.519 17.815-87.312 48.144C-45.219 105.94-54.6 139.88-54.83 188.395c-.07 14.599 6.305 26.811 12.472 38.619a407.565 407.565 0 0 1 3.618 7.041c2.41 4.85 4.527 10.156 6.576 15.288 3.777 9.468 7.684 19.258 13.64 26.789 5.396 6.825 12.543 11.026 19.454 15.089 3.48 2.047 7.079 4.163 10.408 6.587 3.937 2.868 7.931 6.248 11.795 9.518 11.196 9.474 22.773 19.27 35.683 19.373l.2.001c10.32 0 20.51-6.244 30.368-12.286 6.282-3.848 12.775-7.827 19.311-10.223 5.16-1.892 10.559-2.794 15.78-3.666 8.363-1.396 17.011-2.839 24.563-8.442 27.998-20.767 35.587-81.078 35.658-113.441l.425.001-.425-.001c.075-34.382-13.173-70.288-36.347-98.513-24.04-29.277-56.024-46.692-85.69-46.692Z" fill="url(#d)"/><path d="M56.832 308.318c-19.532 0-55.63-21.655-69.465-38.533-15.11-18.434-29.093-57.225-29.335-81.388-.34-34.101 2.132-72.53 23.036-99C4.493 59.74 33.99 42.569 61.997 42.289c.217-.002.44-.003.657-.003 27.03 0 56.795 16.636 79.765 44.622 20.924 25.493 32.869 56.896 32.771 86.155l-.425-.002.425.002c-.105 31.455-7.027 90.859-32.31 113.986-8.248 7.546-18.451 8.416-28.32 9.256-3.905.332-7.943.677-11.77 1.434-5.699 1.131-11.495 2.917-17.099 4.644-9.376 2.891-19.07 5.879-28.704 5.936h-.155Zm5.822-264.994c-.218 0-.433.001-.65.004-27.781.277-57.059 17.332-80.325 46.792-20.69 26.198-23.134 64.375-22.797 98.265.24 23.94 14.102 62.388 29.086 80.663 13.724 16.745 49.511 38.23 68.861 38.23h.154c9.531-.055 19.174-3.028 28.5-5.903 5.623-1.733 11.438-3.525 17.171-4.661 3.865-.767 7.923-1.112 11.848-1.448 9.745-.829 19.821-1.687 27.871-9.051 25.013-22.882 31.863-81.894 31.967-113.157.098-28.984-11.755-60.117-32.52-85.415-22.812-27.793-52.358-44.319-79.166-44.319Z" fill="url(#e)"/><path d="M55.033 289.008c-21.223.001-42.61-11.268-58.703-30.933-15.91-19.44-24.66-44.187-24.641-69.682.002-1.782-.002-3.58-.003-5.392-.041-28.916-.09-61.689 16.538-85.14 15.018-21.18 42.968-45.664 72.703-45.664.36 0 .72.004 1.08.011 21.489.43 47.66 14.282 68.302 36.148 22.25 23.566 34.836 52.437 34.534 79.212l-.424-.008.424.008c-.155 13.747-2.28 83.709-28.948 111.01-8.602 8.806-19.478 8.671-30.002 8.539-2.484-.031-5.055-.062-7.529.028-5.477.201-11.193.52-16.72.829-8.917.498-18.139 1.013-26.457 1.034h-.154Zm5.893-235.771c-29.45 0-57.16 24.291-72.062 45.306-16.419 23.155-16.37 55.722-16.329 84.456.002 1.812.005 3.612.004 5.395-.02 25.217 8.642 49.703 24.39 68.946 15.935 19.471 37.107 30.629 58.104 30.629h.15c8.302-.021 17.514-.536 26.423-1.033 5.53-.309 11.247-.628 16.732-.83 2.492-.089 5.07-.061 7.565-.029 10.341.127 21.083.264 29.447-8.297 20.46-20.944 28.218-72.469 28.644-110.227.298-26.466-12.18-55.047-34.24-78.412-20.5-21.713-46.464-35.466-67.76-35.894-.355-.007-.714-.01-1.068-.01Z" fill="url(#f)"/><path d="M100.181 276.353c-9.594 0-19.759-1.696-28.88-3.218-6.534-1.091-12.705-2.121-17.657-2.345-45.05-2.04-68.22-29.76-68.871-82.391-.041-3.398-.123-6.858-.204-10.354-.587-25.18-1.196-51.215 11.39-72.062 15.508-25.679 43.274-43.969 66.048-43.53 26.622.535 47.578 20.966 66.762 41.849 16.542 18.003 26.064 33.362 25.798 58.595l-.424-.007.424.007c-.193 18.38-2.657 80.209-26.232 104.105-7.057 7.153-17.237 9.351-28.154 9.351ZM61.167 63.484c-22.353 0-49.355 17.995-64.524 43.117-12.413 20.557-11.808 46.411-11.225 71.414.082 3.501.163 6.965.204 10.368.642 51.976 23.537 79.352 68.052 81.368 4.995.226 11.188 1.26 17.742 2.354 19.337 3.229 43.403 7.245 56.378-5.903 23.293-23.612 25.732-85.052 25.924-103.319.263-24.836-9.155-40.002-25.513-57.805-19.856-21.614-39.86-41.058-66.211-41.586-.275-.005-.551-.008-.827-.008Z" fill="url(#g)"/><path d="M97.613 261.746c-8.35 0-17.12-1.974-25.344-3.826-7.093-1.596-13.792-3.105-19.63-3.266-2.39-.065-4.948-.02-7.652.028-12.889.231-27.492.495-37.085-10.585-11.088-12.808-11.106-33.93-11.12-50.9a898.207 898.207 0 0 0-.013-4.801c-.031-4.708-.204-9.629-.37-14.388-.724-20.739-1.473-42.183 7.952-60.521 11.964-23.28 36.194-40.17 57.625-40.17H62c18.814.012 45.312 15.962 63.01 37.927 8.985 11.15 19.647 28.628 19.419 48.565-.375 32.967-4.816 76.001-23.844 93.787-6.576 6.148-14.562 8.15-22.973 8.15Zm-47.601-8.164c.902 0 1.784.009 2.647.033 5.904.163 12.636 1.679 19.765 3.284 16.332 3.677 34.839 7.844 47.648-4.129 18.756-17.533 23.136-60.238 23.509-92.975l.425.007-.425-.007c.174-15.276-6.636-32.259-19.176-47.822-17.551-21.785-43.798-37.605-62.404-37.617h-.025c-21.159 0-45.087 16.685-56.905 39.684-9.285 18.065-8.542 39.344-7.824 59.923.168 4.769.339 9.698.371 14.424.01 1.567.012 3.172.014 4.81.013 16.77.031 37.643 10.854 50.146 9.342 10.789 23.762 10.532 36.487 10.3 1.742-.031 3.423-.061 5.039-.061Z" fill="url(#h)"/><path d="M91.789 247.456c-6.908 0-14.106-1.572-21.191-3.121-6.464-1.411-12.57-2.746-18.189-2.813-2.34-.025-5 .146-7.807.327-10.01.655-22.465 1.468-29.846-6.895-8.21-9.306-7.903-25.947-7.656-39.318.046-2.589.093-5.035.074-7.298-.036-4.765-.248-9.741-.452-14.554-.775-18.237-1.577-37.097 6.158-53.527 9.777-20.775 29.85-35.224 48.884-35.224h.252c17.861.122 41.726 13.855 56.742 32.655 10.505 13.152 15.951 27.434 15.75 41.305-.592 41.203-7.614 67.557-21.466 80.57-6.364 5.978-13.63 7.893-21.253 7.893Zm-39.903-6.977c.18 0 .355.002.533.004 5.688.068 11.828 1.41 18.328 2.83 14.723 3.217 29.945 6.542 41.777-4.574 13.633-12.808 20.548-38.898 21.135-79.763.247-17.165-8.297-31.532-15.508-40.561-14.874-18.621-38.484-32.223-56.138-32.342l-.25-.001c-18.744 0-38.513 14.236-48.147 34.703-7.61 16.165-6.815 34.868-6.047 52.956.206 4.822.418 9.81.455 14.597.018 2.28-.028 4.734-.075 7.331-.244 13.164-.546 29.545 7.384 38.533 7.117 8.062 19.375 7.259 29.223 6.62 2.61-.171 5.087-.333 7.33-.333Z" fill="url(#i)"/><path d="M83.466 233.421c-5.482 0-11.106-.826-16.657-1.641-4.725-.694-9.19-1.35-13.434-1.471-29.722-.848-36.726-4.968-37.262-43.57-.363-26.209 1.087-58.61 15.662-76.685 7.392-9.169 17.615-13.816 30.387-13.816h.212c16.358.066 36.675 11.196 49.407 27.066 8.909 11.104 13.535 23.538 13.38 35.957-.231 18.412-3.053 51.512-19.354 66.331-6.688 6.079-14.363 7.829-22.34 7.829ZM62.162 97.277c-12.537 0-22.555 4.543-29.783 13.506-14.351 17.8-15.778 49.932-15.416 75.937.522 37.697 7.37 41.721 36.432 42.551 4.286.123 8.769.78 13.515 1.477 13.462 1.976 27.38 4.021 38.39-5.99 16.008-14.553 18.782-47.293 19.011-65.513.153-12.135-4.389-24.312-13.135-35.213-12.588-15.688-32.657-26.69-48.805-26.755h-.209Z" fill="url(#j)"/><path d="M74.223 221.009c-3.764 0-7.513-.272-11.118-.532-2.69-.195-5.229-.379-7.726-.459-26.13-.836-30.822-3.62-31.326-36.594-.49-32.162 4.363-54.55 14.424-66.543 6.238-7.433 14.546-10.92 24.653-10.367 11.758.643 25.3 6.466 35.34 15.195 11.878 10.328 18.235 23.867 17.897 38.119-.339 14.33-3.013 40.279-17.119 53.067-7.3 6.621-16.201 8.114-25.025 8.114ZM61.078 107.495c-8.967 0-16.363 3.403-22.008 10.13-9.888 11.785-14.654 33.916-14.168 65.779.493 32.266 4.676 34.749 30.5 35.575 2.509.08 5.057.265 7.753.46 12.5.906 25.421 1.841 35.589-7.378 13.816-12.527 16.44-38.121 16.774-52.263.724-30.552-30.046-51.022-52.425-52.247a37.09 37.09 0 0 0-2.015-.056Z" fill="url(#k)"/><path d="M59.733 210.324c-.56 0-1.123-.007-1.692-.02-22.522-.548-26.261-4.931-26.666-31.267-.174-11.315.722-39.203 12.769-53.768 5.224-6.315 11.928-9.349 19.962-9.063 21.11.795 43.866 17.976 43.82 44.347-.027 14.253-3.646 25.793-10.754 34.3-8.366 10.011-21.614 15.471-37.44 15.471Zm3.301-93.099c-7.319 0-13.469 2.951-18.295 8.784-11.813 14.281-12.687 41.828-12.515 53.008.397 25.754 3.776 29.712 25.833 30.248.563.014 1.123.02 1.677.02 15.603 0 28.637-5.354 36.844-15.174 6.94-8.305 10.473-19.597 10.498-33.56.046-25.749-22.283-42.527-42.997-43.306-.35-.013-.7-.02-1.045-.02Z" fill="url(#l)"/><path d="M58.548 200.898c-6.662 0-11.53-1.915-14.834-5.823-3.69-4.366-5.417-11.194-5.272-20.875.168-11.256 2.59-48.018 26.719-48.535 9.804-.222 20.031 4.713 26.669 12.846 5.23 6.411 7.923 14.316 7.789 22.862-.432 27.291-20.238 38.271-38.632 39.445-.838.053-1.65.08-2.439.08Zm7.22-74.199c-.197 0-.395.002-.594.006-23.368.5-25.719 36.494-25.883 47.513-.139 9.378 1.502 15.956 5.014 20.109 3.517 4.16 8.96 5.945 16.639 5.454 18.011-1.151 37.406-11.849 37.826-38.429.13-8.256-2.477-15.901-7.542-22.107-6.346-7.777-16.052-12.546-25.46-12.546Z" fill="url(#m)"/><path d="M61.81 191.322c-4.76 0-8.887-1.856-11.768-5.333-3.275-3.951-4.798-9.631-4.405-16.424.92-15.93 6.735-34.335 20.065-34.335.168 0 .335.002.506.009 12.273.424 25.336 10.833 25.038 26.91-.313 17.062-14.38 27.711-27.455 29.069-.672.07-1.332.104-1.981.104Zm3.88-55.054c-16.787 0-19.008 29.927-19.207 33.37-.375 6.482 1.062 11.88 4.154 15.611 3.096 3.734 7.739 5.486 13.081 4.934 12.708-1.32 26.377-11.602 26.679-28.058.286-15.439-12.346-25.438-24.212-25.847-.166-.006-.332-.01-.495-.01Z" fill="url(#n)"/><defs><linearGradient id="a" x1="225.509" y1="-.01" x2="-92" y2="-.01" gradientUnits="userSpaceOnUse"><stop offset=".063" stop-color="#00C097"/><stop offset="1" stop-color="#9A89F0"/></linearGradient><linearGradient id="b" x1="214.884" y1="11.541" x2="-81.219" y2="11.541" gradientUnits="userSpaceOnUse"><stop offset=".063" stop-color="#00C097"/><stop offset="1" stop-color="#9A89F0"/></linearGradient><linearGradient id="c" x1="204.018" y1="22.245" x2="-68.941" y2="22.245" gradientUnits="userSpaceOnUse"><stop offset=".063" stop-color="#00C097"/><stop offset="1" stop-color="#9A89F0"/></linearGradient><linearGradient id="d" x1="192.993" y1="32.391" x2="-55.682" y2="32.391" gradientUnits="userSpaceOnUse"><stop offset=".063" stop-color="#00C097"/><stop offset="1" stop-color="#9A89F0"/></linearGradient><linearGradient id="e" x1="181.896" y1="42.278" x2="-41.996" y2="42.278" gradientUnits="userSpaceOnUse"><stop offset=".063" stop-color="#00C097"/><stop offset="1" stop-color="#9A89F0"/></linearGradient><linearGradient id="f" x1="170.813" y1="52.191" x2="-28.318" y2="52.191" gradientUnits="userSpaceOnUse"><stop offset=".063" stop-color="#00C097"/><stop offset="1" stop-color="#9A89F0"/></linearGradient><linearGradient id="g" x1="159.829" y1="62.44" x2="-15.682" y2="62.44" gradientUnits="userSpaceOnUse"><stop offset=".063" stop-color="#00C097"/><stop offset="1" stop-color="#9A89F0"/></linearGradient><linearGradient id="h" x1="149.016" y1="73.311" x2="-3.992" y2="73.311" gradientUnits="userSpaceOnUse"><stop offset=".063" stop-color="#00C097"/><stop offset="1" stop-color="#9A89F0"/></linearGradient><linearGradient id="i" x1="138.474" y1="85.029" x2="6.248" y2="85.029" gradientUnits="userSpaceOnUse"><stop offset=".063" stop-color="#00C097"/><stop offset="1" stop-color="#9A89F0"/></linearGradient><linearGradient id="j" x1="128.533" y1="96.235" x2="16.066" y2="96.235" gradientUnits="userSpaceOnUse"><stop offset=".063" stop-color="#00C097"/><stop offset="1" stop-color="#9A89F0"/></linearGradient><linearGradient id="k" x1="119.231" y1="106.454" x2="24.02" y2="106.454" gradientUnits="userSpaceOnUse"><stop offset=".063" stop-color="#00C097"/><stop offset="1" stop-color="#9A89F0"/></linearGradient><linearGradient id="l" x1="110.29" y1="116.185" x2="31.357" y2="116.185" gradientUnits="userSpaceOnUse"><stop offset=".063" stop-color="#00C097"/><stop offset="1" stop-color="#9A89F0"/></linearGradient><linearGradient id="m" x1="101.513" y1="125.656" x2="38.434" y2="125.656" gradientUnits="userSpaceOnUse"><stop offset=".063" stop-color="#00C097"/><stop offset="1" stop-color="#9A89F0"/></linearGradient><linearGradient id="n" x1="92.662" y1="135.229" x2="45.576" y2="135.229" gradientUnits="userSpaceOnUse"><stop offset=".063" stop-color="#00C097"/><stop offset="1" stop-color="#9A89F0"/></linearGradient></defs></svg>