<svg width="588" height="304" fill="none" xmlns="http://www.w3.org/2000/svg"><g opacity=".2"><path d="M165.159 290.193c22.973-2.139 45.656-9.937 67.76-17.536 20.422-7.02 39.714-13.651 58.098-15.493 19.734-1.962 40.523.951 62.563 4.044 31.767 4.461 64.621 9.073 96.608-1.017 31.774-10.016 62.763-26.741 87.256-47.094 28.211-23.439 42.054-47.399 40.034-69.286-1.714-18.563-14.715-34.747-38.645-48.103-13.414-7.488-24.675-16.278-35.564-24.778-18.339-14.315-35.662-27.836-61.614-34.615-46.71-12.2-102.974-15.011-172.005-8.592l-.118.01c-45.001 4.19-97.674 12.3-147.285 40.62-6.731 3.842-16.575 8.575-27.972 14.056-35.95 17.286-85.183 40.96-83.085 60.109l.754-.082-.754.082c.954 8.713 3.748 15.463 6.447 21.993 4.652 11.248 9.048 21.872 3.618 41.238-7.312 26.068-7.532 37.441 19.403 53.585 27.654 16.575 67.635 28.508 104.347 31.141 6.737.483 13.459.341 20.154-.282Zm126.55-34.523c-.279.026-.556.053-.835.081-18.571 1.86-37.947 8.52-58.462 15.572-28.392 9.763-57.75 19.855-87.273 17.735-36.478-2.617-76.197-14.466-103.653-30.923-26.221-15.716-26.022-26.17-18.768-52.039 5.557-19.814 1.077-30.645-3.666-42.113-2.666-6.442-5.42-13.104-6.354-21.628-1.992-18.173 46.701-41.587 82.253-58.683 11.427-5.494 21.293-10.238 28.07-14.107 49.349-28.168 101.815-36.244 146.642-40.417l.118-.011c68.841-6.401 124.922-3.605 171.45 8.547 25.646 6.699 42.847 20.127 61.061 34.343 10.934 8.534 22.241 17.36 35.755 24.903 23.493 13.114 36.251 28.933 37.921 47.02 1.977 21.419-11.689 44.963-39.522 68.088-24.342 20.228-55.141 36.851-86.725 46.807-31.651 9.977-64.31 5.393-95.898.957-21.829-3.063-42.469-5.961-62.114-4.132Z" fill="url(#a)"/><path d="M412.97 256.274c5.909-.55 11.744-1.467 17.483-2.856 30.023-7.258 65.107-25.084 91.562-46.518 26.761-21.688 40.272-43.823 39.071-64.014-1.024-17.192-12.49-32.72-34.078-46.155-11.184-6.96-20.789-14.591-30.075-21.971-18.304-14.544-35.592-28.28-62.326-35.113-46.629-11.916-100.469-14.825-164.596-8.892l-.515.048c-51.825 4.825-94.825 13.443-136.069 39.62-7.494 4.757-19.246 10.693-31.689 16.98-32.304 16.316-72.506 36.624-74.712 53.969-1.116 8.782 2.252 15.904 5.817 23.445 4.29 9.068 8.724 18.445 6.672 32.278-.44 2.964-.901 5.724-1.332 8.314-3.329 19.955-4.998 29.97 16.797 44.847 55.335 37.772 118.721 23.185 174.647 10.318 21.342-4.911 41.503-9.55 60.642-11.417l.454-.044c16.982-1.581 36.082.872 56.293 3.468 21.901 2.812 44.391 5.701 65.954 3.693ZM269.63 32.217l.513-.047c63.941-5.917 117.601-3.021 164.048 8.85 26.414 6.75 43.581 20.39 61.753 34.829 9.32 7.406 18.959 15.064 30.215 22.07 21.175 13.176 32.417 28.338 33.413 45.064 1.175 19.729-12.152 41.462-38.541 62.846-26.285 21.3-61.13 39.008-90.94 46.215-26.394 6.38-55.096 2.693-82.851-.871-20.302-2.607-39.488-5.072-56.648-3.475-.154.015-.306.031-.462.045-19.244 1.879-39.453 6.529-60.848 11.451-58.321 13.419-118.63 27.296-173.402-10.091-21.056-14.372-19.434-24.104-16.201-43.491.434-2.597.894-5.364 1.335-8.337 2.113-14.235-2.613-24.23-6.784-33.047-3.479-7.359-6.767-14.309-5.699-22.704 2.112-16.604 41.923-36.714 73.912-52.873 12.48-6.302 24.265-12.256 31.823-17.054 40.974-26.005 83.772-34.576 135.364-39.38Z" fill="url(#b)"/><path d="M177.641 264.243c20.885-1.944 41.798-5.845 61.784-9.574 18.011-3.36 35.027-6.535 50.609-8.022 17.833-1.685 35.928-2.138 53.518-2.567 55.266-1.345 112.407-2.74 163.438-43.137 25.576-20.246 38.343-40.108 37.947-59.032-.331-15.893-10.134-30.78-29.135-44.247-8.47-6.006-15.98-12.11-23.241-18.015-18.658-15.17-36.28-29.497-64.604-36.792-46.388-11.947-97.899-15.08-157.476-9.575l-.533.05c-48.715 4.535-86.634 12.701-124.872 39.113-9.111 6.294-22.021 13.004-35.69 20.108-27.665 14.377-59.021 30.675-65.684 47.802-2.87 7.379.514 18.026 4.097 29.296 2.788 8.776 5.673 17.851 5.539 25.504-.048 2.785-.16 5.415-.264 7.911-.676 15.985-1.122 26.544 15.59 38.575 32.105 23.11 70.479 26.186 108.977 22.602Zm113.128-19.093-.87.083c-15.655 1.494-32.704 4.675-50.753 8.042-56.514 10.544-120.57 22.493-169.548-12.765-16.1-11.59-15.666-21.859-15.01-37.405.105-2.507.217-5.147.266-7.944.137-7.873-2.782-17.052-5.603-25.93-3.508-11.041-6.822-21.468-4.126-28.403 6.466-16.621 37.555-32.778 64.983-47.035 13.713-7.127 26.665-13.859 35.855-20.207 37.955-26.215 75.663-34.328 124.117-38.84l.532-.049c59.389-5.488 110.72-2.37 156.929 9.531 27.995 7.211 45.493 21.438 64.02 36.5 7.28 5.919 14.807 12.04 23.32 18.073 18.615 13.196 28.219 27.716 28.542 43.154.385 18.472-12.197 37.955-37.401 57.908-50.616 40.067-107.494 41.454-162.491 42.797-17.333.423-35.245.859-52.762 2.49Z" fill="url(#c)"/><path d="M211.591 255.917c14.636-1.362 28.981-3.276 42.522-5.08 12.704-1.694 24.705-3.294 35.907-4.345 10.717-1.015 21.486-1.811 31.961-2.595 61.02-4.565 118.665-8.879 170.176-48.722 24.376-18.852 36.89-37.3 37.203-54.832.258-14.555-7.927-28.623-24.329-41.813-4.885-3.928-9.511-7.808-13.984-11.561-21.049-17.657-39.228-32.907-69.542-41-45.978-12.278-95.192-15.754-150.451-10.63l-.218.02c-43.026 4.005-78.884 12.196-114.006 39.047-10.903 8.336-25.078 16.164-38.786 23.735-22.429 12.387-45.623 25.197-57.06 41.3-5.85 8.237-1.902 23.417 1.582 36.809 1.377 5.294 2.677 10.294 3.188 14.26.406 3.151.664 6.098.916 8.948 1.153 13.074 2.064 23.402 16.07 33.677 35.368 25.941 83.49 27.006 128.851 22.782Zm78.297-10.839c-11.235 1.054-23.25 2.655-35.97 4.352-58.1 7.742-123.955 16.526-170.235-17.419-13.492-9.898-14.337-19.457-15.503-32.688-.253-2.862-.512-5.823-.921-8.999-.522-4.05-1.832-9.09-3.22-14.426-3.41-13.108-7.274-27.966-1.797-35.679 11.243-15.827 34.28-28.551 56.561-40.856 13.756-7.597 27.982-15.454 38.977-23.86 34.821-26.622 70.44-34.75 113.188-38.73l.218-.02c55.067-5.106 104.094-1.644 149.887 10.583 29.984 8.004 48.044 23.155 68.955 40.697 4.48 3.757 9.112 7.644 14.009 11.581 16.048 12.906 24.057 26.607 23.808 40.722-.305 17.092-12.633 35.176-36.642 53.747-51.139 39.554-108.548 43.859-169.326 48.397-10.475.784-21.322 1.599-31.989 2.598Z" fill="url(#d)"/><path d="M269.759 248.124c3.624-.337 7.181-.678 10.662-1.011 3.268-.312 6.462-.616 9.569-.906 68.023-6.333 133.577-15.423 187.873-56.554 23.195-17.571 34.979-34.175 36.024-50.762.846-13.403-5.674-26.701-19.377-39.523-54.376-50.882-126.955-71.331-221.829-62.498l-.963.09c-42.488 4.038-73.031 11.764-103.417 39.308-13.007 11.79-28.794 21.116-44.061 30.133-17.073 10.083-33.2 19.607-45.658 32.244-7.647 7.758-8.439 20.358-7.758 29.561 1.615 21.82 13.17 47.229 25.757 56.643 44.369 33.184 116.766 28.527 173.178 23.275Zm3.054-209.84c94.407-8.79 166.578 11.526 220.622 62.096 13.386 12.526 19.759 25.461 18.941 38.444-1.004 15.936-12.935 32.667-35.456 49.728-53.969 40.879-119.279 49.93-187.061 56.241-3.11.289-6.304.594-9.574.906-57.4 5.507-136.008 12.991-182.75-21.966-12.304-9.201-23.61-34.162-25.2-55.642-.66-8.923.08-21.107 7.355-28.488 12.319-12.497 28.361-21.971 45.347-32.003 15.334-9.056 31.19-18.421 44.311-30.315 30.066-27.254 60.351-34.905 102.505-38.91.319-.031.641-.061.96-.09Z" fill="url(#e)"/><path d="M289.771 243.85c35.427-3.299 182.725-36.138 207.265-92.576 7.235-16.642 2.871-33.827-12.975-51.079-59.984-65.306-156.763-67.11-210.122-62.142-.493.046-.977.092-1.464.14-40.498 3.92-67.354 11.414-93.256 39.745-14.722 16.1-31.716 26.585-49.707 37.687-11.014 6.795-22.402 13.822-33.237 22.264-12.1 9.427-14.26 22.416-13.942 31.652.628 18.272 11.455 37.895 26.328 47.717 52.046 34.373 143.994 30.047 181.11 26.592Zm-15.7-204.382c53.064-4.94 149.287-3.17 208.836 61.663 15.449 16.817 19.73 33.513 12.728 49.62-12.768 29.362-60.145 51.522-97.64 64.94-43.388 15.529-89.484 24.988-108.356 26.745-36.948 3.44-128.461 7.758-180.096-26.343-14.516-9.587-25.082-28.756-25.696-46.615-.306-8.917 1.768-21.446 13.39-30.501 10.766-8.39 22.119-15.394 33.097-22.167 18.084-11.16 35.168-21.7 50.03-37.956 25.567-27.961 52.145-35.366 92.251-39.248.479-.046.969-.093 1.456-.138Z" fill="url(#f)"/><path d="M289.219 237.916c36.601-3.408 168.203-38.31 192.608-90.592 7.164-15.349 4.358-30.924-8.339-46.294-42.773-51.773-130.329-68.445-198.719-62.077-.488.045-.969.09-1.454.139-36.295 3.566-60.387 10.996-83.722 39.994-16.168 20.092-34.014 31.343-54.676 44.371-6.8 4.287-13.833 8.721-21.125 13.687-13.318 9.068-20.25 20.49-20.043 33.029.239 14.47 10.373 29.258 27.108 39.557 42.763 26.317 115.373 33.119 168.362 28.186Zm-14.315-197.55c67.976-6.328 154.957 10.189 197.381 61.543 12.337 14.931 15.078 30.023 8.154 44.859-13.022 27.899-57.016 49.644-91.631 62.973-41.281 15.898-83.166 25.219-99.721 26.761-52.725 4.909-124.931-1.833-167.389-27.963-16.321-10.045-26.203-24.401-26.434-38.405-.198-12.052 6.513-23.064 19.408-31.844 7.27-4.949 14.291-9.376 21.08-13.656 20.778-13.101 38.721-24.415 55.046-44.7 23.125-28.737 45.98-35.825 82.656-39.429.48-.047.969-.094 1.45-.138Z" fill="url(#g)"/><path d="M288.456 229.722c33.318-3.102 154.284-35.593 179.07-84.774 7.183-14.257 5.537-28.734-4.899-43.031-35.544-48.7-122.172-68.365-186.536-62.373-.627.059-1.246.118-1.866.182-34.259 3.478-56.319 10.909-74.763 40.158-16.691 26.468-34.183 36.581-60.66 51.891-2.532 1.464-5.153 2.98-7.867 4.562-16.885 9.851-25.801 21.274-25.783 33.034.02 12.048 9.294 23.575 26.817 33.336 47.166 26.27 111.762 31.179 156.487 27.015ZM276.229 40.958c63.933-5.952 149.924 13.512 185.145 61.77 10.111 13.855 11.72 27.859 4.781 41.626-24.585 48.787-148.668 81.239-177.83 83.954-44.488 4.142-108.717-.731-155.57-26.826-17.048-9.495-26.067-20.606-26.086-32.13-.019-11.238 8.647-22.237 25.057-31.81 2.711-1.583 5.329-3.096 7.861-4.561 26.673-15.421 44.292-25.61 61.179-52.384 18.112-28.727 39.842-36.03 73.602-39.458.615-.063 1.242-.123 1.861-.181Z" fill="url(#h)"/><path d="M287.931 224.066c26.263-2.445 139.589-33.151 165.258-80.384 7.367-13.561 6.731-27.29-1.894-40.804-31.308-49.05-120.714-67.875-174.421-62.875-.568.053-1.125.108-1.683.166-34.324 3.567-50.566 13.28-66.843 39.973-18.003 29.524-28.252 37.307-60.911 55.304-23.15 12.757-32.844 25.297-28.812 37.275 11.794 35.047 141.312 53.952 169.306 51.345Zm-10.917-182.65c53.303-4.962 141.99 13.65 172.977 62.202 8.343 13.07 8.963 26.336 1.848 39.432-25.402 46.747-137.948 77.173-164.04 79.602-27.763 2.585-156.131-15.91-167.731-50.374-3.788-11.257 5.675-23.238 28.125-35.609 32.94-18.152 43.282-26.008 61.469-55.832 16.179-26.535 31.525-35.706 65.676-39.255.556-.058 1.114-.113 1.676-.165Z" fill="url(#i)"/><path d="M287.565 220.139c28.38-2.642 127.467-34.554 151.949-78.114 7.256-12.912 7.182-25.731-.218-38.101-29.333-49.027-111.453-68.23-160.968-63.62-.718.066-1.427.138-2.129.214-31.535 3.44-45.563 12.632-60.043 39.34-16.068 29.634-21.08 37.286-53.078 54.562-22.805 12.312-32.36 24.62-28.397 36.583 6.355 19.188 46.045 32.039 69.139 37.99 33.795 8.711 69.12 12.508 83.745 11.146Zm-9.062-178.426c25.776-2.4 57.899 1.853 86.464 11.5 24.149 8.157 56.42 23.698 73.006 51.418 7.134 11.925 7.202 24.287.201 36.743-23.818 42.381-123.452 74.811-150.741 77.351-30.295 2.821-140.759-16.32-151.306-48.159-3.721-11.238 5.597-22.986 27.696-34.917 32.282-17.428 37.775-25.821 53.682-55.16 14.193-26.179 27.943-35.187 58.849-38.559.71-.077 1.429-.15 2.149-.217Z" fill="url(#j)"/><path d="M287.277 217.065c27.964-2.604 112.811-35.39 136.736-75.175 7.678-12.769 8.504-25.151 2.453-36.799-21.808-41.985-96.763-68.53-149.213-64.217-30.49 2.466-42.86 15.969-53.973 38.377l-2.199 4.448c-11.924 24.167-16.86 34.17-43.541 49.499-20.943 12.032-29.45 24.209-25.285 36.19 11.158 32.101 106.911 50.294 135.022 47.677ZM276.213 42.39c.383-.035.765-.069 1.157-.1 51.961-4.274 126.181 21.947 147.731 63.435 5.822 11.206 5.012 23.142-2.407 35.478-23.686 39.392-107.813 71.865-135.548 74.447-30.921 2.879-123.221-17.289-133.451-46.718-3.917-11.27 4.367-22.886 24.623-34.524 27.082-15.559 32.428-26.391 44.138-50.125l2.196-4.444c10.734-21.643 22.677-34.76 51.561-37.449Z" fill="url(#k)"/><path d="M287.005 214.133c27.41-2.552 95.571-31.181 120.256-68.414 9.17-13.83 11.181-27.298 5.977-40.031-18.842-46.103-93.688-69.267-134.97-64.32-25.602 3.054-38.308 12.78-48.549 37.17-10.629 25.306-17.235 37.157-40.143 52.705-18.867 12.805-25.953 25.586-21.063 37.988 11.843 30.028 91.089 47.453 118.492 44.902Zm-6.396-171.585c41.189-3.835 112.946 18.97 131.214 63.662 5.025 12.296 3.06 25.34-5.845 38.77-23.524 35.478-91.329 65.152-119.104 67.738-27.077 2.521-105.319-14.531-116.939-43.994-4.623-11.729 2.279-23.953 20.521-36.334 23.238-15.771 29.926-27.76 40.67-53.344 9.997-23.803 22.378-33.294 47.317-36.269a83.558 83.558 0 0 1 2.166-.23Z" fill="url(#l)"/><path d="M287.392 210.706c30.02-2.795 79.965-28.916 102.64-60.194 11.317-15.61 14.746-30.644 10.195-44.684-13.473-41.546-74.527-66.912-120.895-63.694-29.058 2.005-40.536 25.102-51.696 47.43-7.354 14.717-14.958 29.933-27.488 39.229-17.71 13.142-23.998 26.315-18.69 39.153 11.673 28.231 76.989 45.126 105.224 42.822.234-.019.474-.04.71-.062Zm-9.277-167.048c.432-.04.868-.076 1.31-.106 45.713-3.174 106.467 22.968 119.35 62.705 4.414 13.608 1.05 28.231-9.993 43.465-22.439 30.954-71.834 56.806-101.512 59.569-.236.022-.468.042-.7.061-27.864 2.274-92.255-14.259-103.698-41.933-5.041-12.189 1.086-24.81 18.208-37.515 12.813-9.508 20.497-24.882 27.927-39.749 11.295-22.601 21.975-43.97 49.108-46.497Z" fill="url(#m)"/><path d="M287.76 206.383c27.697-2.578 64.656-24.366 84.873-50.205 13.653-17.45 18.752-34.937 14.746-50.569-9.982-38.963-64.426-64.085-107.045-62.262-26.765 1.151-38.633 25.629-50.137 49.31-6.382 13.135-12.41 25.544-20.675 33.35-14.831 14.005-19.287 28.44-12.884 41.741 11.598 24.086 58.519 40.897 89.637 38.756.49-.034.988-.074 1.485-.121Zm-9.444-161.476c.68-.064 1.368-.11 2.066-.14 42.037-1.798 95.712 22.89 105.523 61.19 4.924 19.219-5.163 37.465-14.491 49.389-20.341 26.001-57.693 47.838-85.231 49.74-30.645 2.109-76.804-14.343-88.161-37.935-6.211-12.901-1.982-26.408 12.568-40.15 8.46-7.99 14.545-20.511 20.985-33.768 11.006-22.653 22.378-46.058 46.741-48.326Z" fill="url(#n)"/><path d="M286.838 200.885c23.384-2.178 50.183-17.73 68.583-39.88 15.559-18.729 22.391-38.566 19.235-55.857-6.868-37.62-54.748-61.787-93.426-59.948-26.529 1.255-38.376 27.672-48.884 50.975-4.643 10.299-9.031 20.026-14.281 26.805-15.484 19.995-11.658 36.158-5.721 46.197 12.057 20.388 43.622 34.058 73.422 31.798.357-.028.715-.057 1.072-.09Zm-7.257-154.146a38.463 38.463 0 0 1 1.706-.12c38.05-1.81 85.139 21.887 91.874 58.785 3.038 16.645-3.86 36.596-18.931 54.736-18.428 22.185-45.261 37.687-68.568 39.418-28.77 2.182-60.393-11.47-71.991-31.081-8.208-13.88-6.266-29.327 5.618-44.671 5.354-6.912 9.772-16.714 14.451-27.091 10.099-22.395 21.518-47.712 45.841-49.976Z" fill="url(#o)"/><path d="M285.202 193.427c19.068-1.775 40.673-14.309 56.392-32.715 15.333-17.956 22.771-38.434 20.405-56.185-4.734-35.51-45.954-58.337-79.989-56.614-26.416 1.385-37.866 29.602-47.075 52.311-2.977 7.342-5.789 14.276-8.793 19.573-9.418 16.595-8.793 33.932 1.758 48.82 11.981 16.908 35.003 26.879 57.284 24.812l.018-.002Zm-4.609-143.989c.49-.045.982-.08 1.481-.106 33.374-1.69 73.79 20.641 78.42 55.389 2.315 17.369-5.002 37.457-20.079 55.111-15.468 18.112-36.673 30.443-55.345 32.181l-.017.002c-21.744 2.017-44.205-7.706-55.89-24.195-10.228-14.435-10.829-31.257-1.688-47.367 3.053-5.377 5.881-12.352 8.876-19.737 8.871-21.881 19.87-49.008 44.242-51.278Z" fill="url(#p)"/><path d="M283.419 182.259c.458-.042.911-.091 1.37-.146 16.284-1.961 33.821-12.564 46.913-28.365 13.122-15.838 19.724-34.501 17.66-49.924-2.033-15.179-12.116-30.934-26.319-41.113-12.36-8.859-26.711-12.78-40.469-10.968-26.472 3.44-36.26 30.935-44.126 53.029-1.498 4.21-2.914 8.187-4.369 11.79-6.539 16.202-3.405 34.856 8.185 48.682 10.342 12.339 25.278 18.493 41.155 17.015Zm1.114-129.306c12.797-1.191 26.073 2.642 37.581 10.891 13.896 9.96 23.76 25.354 25.743 40.175 2.016 15.055-4.468 33.321-17.348 48.865-12.848 15.506-30.005 25.907-45.895 27.819-15.843 1.912-30.847-4.05-41.154-16.347-11.266-13.44-14.318-31.567-7.964-47.306 1.465-3.628 2.886-7.618 4.39-11.842 7.729-21.715 17.351-48.74 42.879-52.058a50.252 50.252 0 0 1 1.768-.197Z" fill="url(#q)"/><path d="M285.037 167.987c11.653-1.085 23.517-7.686 33.472-18.636 12.442-13.689 19.412-31.368 18.192-46.14-1.09-13.193-9.617-27.608-21.726-36.724-6.934-5.22-18.085-11.085-31.949-9.262-25.232 3.285-33.931 32.809-39.688 52.345-.386 1.306-.758 2.571-1.124 3.791-4.098 13.649-.447 29.192 9.526 40.562 8.7 9.919 20.639 15.061 32.756 14.11l-.054-.708.054.708c.179-.014.36-.03.541-.046Zm-.423-109.51c12.67-1.18 22.935 4.253 29.404 9.122 11.802 8.886 20.113 22.914 21.172 35.74 1.191 14.408-5.641 31.688-17.829 45.097-9.843 10.827-21.482 17.301-32.973 18.181-11.619.912-23.089-4.047-31.474-13.603-9.666-11.023-13.207-26.074-9.242-39.284.366-1.22.74-2.489 1.125-3.797 5.651-19.173 14.187-48.147 38.419-51.301.469-.06.936-.112 1.398-.155Z" fill="url(#r)"/><path d="M283.793 152.36c.191-.018.38-.037.57-.058 23.933-2.67 40.643-28.367 39.598-49.561-.533-10.837-6.595-22.154-15.816-29.534-7.41-5.929-16.081-8.755-24.452-7.976l-.302.03c-23.243 2.408-30.772 35.114-32.527 45.081-2.152 12.234 1.969 25.553 10.501 33.931 6.2 6.087 13.944 8.876 22.428 8.087Zm.032-85.715c7.959-.74 16.229 1.97 23.327 7.648 8.921 7.136 14.78 18.07 15.294 28.531.996 20.144-15.495 45.529-38.242 48.066-10.339 1.14-17.552-3.496-21.737-7.605-8.218-8.071-12.186-20.917-10.107-32.727 1.709-9.716 9.01-41.587 31.178-43.883l.287-.03Z" fill="url(#s)"/><path d="M283.927 135.906c.112-.01.223-.021.334-.033 15.176-1.615 27.464-16.893 26.835-33.361-.602-15.672-12.639-27.45-27.403-26.815-15.426.655-22.202 17.594-23.324 31.889-.745 9.508 2.226 18.264 7.95 23.42 4.186 3.771 9.578 5.461 15.608 4.9Zm-1.135-58.724c.313-.03.632-.05.954-.065 13.916-.6 25.264 10.585 25.834 25.463.604 15.747-11.062 30.347-25.47 31.881l-.312.031c-5.581.519-10.561-1.039-14.423-4.516-5.406-4.871-8.208-13.208-7.495-22.302 1.053-13.402 7.168-29.213 20.912-30.492Z" fill="url(#t)"/><path d="M284.294 119.528c7.782-.725 13.942-8.268 13.756-16.884-.095-4.423-1.922-8.506-5.012-11.201a12.938 12.938 0 0 0-9.677-3.162c-7.709.718-12.085 9.147-12.303 16.901-.131 4.785 1.497 9.028 4.464 11.641 2.335 2.053 5.323 2.993 8.644 2.716l.128-.011Zm-.797-29.833c.143-.013.287-.024.433-.03 2.951-.143 5.816.86 8.069 2.824 2.795 2.439 4.449 6.157 4.536 10.202.173 7.921-5.463 14.787-12.485 15.433-2.881.24-5.468-.57-7.483-2.342-2.659-2.34-4.114-6.196-3.992-10.579.196-7.128 4.085-14.871 10.922-15.508Z" fill="url(#u)"/></g><defs><linearGradient id="a" x1="-16.846" y1="54.39" x2="564.117" y2=".3" gradientUnits="userSpaceOnUse"><stop offset=".063" stop-color="#00C097"/><stop offset="1" stop-color="#9A89F0"/></linearGradient><linearGradient id="b" x1="1.893" y1="55.712" x2="548.257" y2="4.843" gradientUnits="userSpaceOnUse"><stop offset=".063" stop-color="#00C097"/><stop offset="1" stop-color="#9A89F0"/></linearGradient><linearGradient id="c" x1="18.587" y1="56.729" x2="532.654" y2="8.867" gradientUnits="userSpaceOnUse"><stop offset=".063" stop-color="#00C097"/><stop offset="1" stop-color="#9A89F0"/></linearGradient><linearGradient id="d" x1="34.497" y1="57.357" x2="517.675" y2="12.371" gradientUnits="userSpaceOnUse"><stop offset=".063" stop-color="#00C097"/><stop offset="1" stop-color="#9A89F0"/></linearGradient><linearGradient id="e" x1="46.762" y1="57.898" x2="502.839" y2="15.436" gradientUnits="userSpaceOnUse"><stop offset=".063" stop-color="#00C097"/><stop offset="1" stop-color="#9A89F0"/></linearGradient><linearGradient id="f" x1="58.854" y1="58.073" x2="489.64" y2="17.965" gradientUnits="userSpaceOnUse"><stop offset=".063" stop-color="#00C097"/><stop offset="1" stop-color="#9A89F0"/></linearGradient><linearGradient id="g" x1="70.981" y1="57.921" x2="475.566" y2="20.253" gradientUnits="userSpaceOnUse"><stop offset=".063" stop-color="#00C097"/><stop offset="1" stop-color="#9A89F0"/></linearGradient><linearGradient id="h" x1="83.187" y1="57.499" x2="462.265" y2="22.206" gradientUnits="userSpaceOnUse"><stop offset=".063" stop-color="#00C097"/><stop offset="1" stop-color="#9A89F0"/></linearGradient><linearGradient id="i" x1="96.723" y1="56.771" x2="449.033" y2="23.97" gradientUnits="userSpaceOnUse"><stop offset=".063" stop-color="#00C097"/><stop offset="1" stop-color="#9A89F0"/></linearGradient><linearGradient id="j" x1="113.754" y1="55.621" x2="435.982" y2="25.62" gradientUnits="userSpaceOnUse"><stop offset=".063" stop-color="#00C097"/><stop offset="1" stop-color="#9A89F0"/></linearGradient><linearGradient id="k" x1="132.245" y1="54.361" x2="421.898" y2="27.394" gradientUnits="userSpaceOnUse"><stop offset=".063" stop-color="#00C097"/><stop offset="1" stop-color="#9A89F0"/></linearGradient><linearGradient id="l" x1="149.037" y1="53.365" x2="407.789" y2="29.275" gradientUnits="userSpaceOnUse"><stop offset=".063" stop-color="#00C097"/><stop offset="1" stop-color="#9A89F0"/></linearGradient><linearGradient id="m" x1="162.665" y1="52.975" x2="394.277" y2="31.412" gradientUnits="userSpaceOnUse"><stop offset=".063" stop-color="#00C097"/><stop offset="1" stop-color="#9A89F0"/></linearGradient><linearGradient id="n" x1="177.964" y1="52.819" x2="381.23" y2="33.894" gradientUnits="userSpaceOnUse"><stop offset=".063" stop-color="#00C097"/><stop offset="1" stop-color="#9A89F0"/></linearGradient><linearGradient id="o" x1="192.622" y1="53.403" x2="368.49" y2="37.029" gradientUnits="userSpaceOnUse"><stop offset=".063" stop-color="#00C097"/><stop offset="1" stop-color="#9A89F0"/></linearGradient><linearGradient id="p" x1="206.574" y1="54.902" x2="356.121" y2="40.979" gradientUnits="userSpaceOnUse"><stop offset=".063" stop-color="#00C097"/><stop offset="1" stop-color="#9A89F0"/></linearGradient><linearGradient id="q" x1="219.643" y1="57.562" x2="344.009" y2="45.983" gradientUnits="userSpaceOnUse"><stop offset=".063" stop-color="#00C097"/><stop offset="1" stop-color="#9A89F0"/></linearGradient><linearGradient id="r" x1="231.501" y1="61.99" x2="331.994" y2="52.634" gradientUnits="userSpaceOnUse"><stop offset=".063" stop-color="#00C097"/><stop offset="1" stop-color="#9A89F0"/></linearGradient><linearGradient id="s" x1="243.351" y1="68.985" x2="320.183" y2="61.832" gradientUnits="userSpaceOnUse"><stop offset=".063" stop-color="#00C097"/><stop offset="1" stop-color="#9A89F0"/></linearGradient><linearGradient id="t" x1="255.51" y1="78.293" x2="308.43" y2="73.366" gradientUnits="userSpaceOnUse"><stop offset=".063" stop-color="#00C097"/><stop offset="1" stop-color="#9A89F0"/></linearGradient><linearGradient id="u" x1="268.626" y1="89.652" x2="296.641" y2="87.044" gradientUnits="userSpaceOnUse"><stop offset=".063" stop-color="#00C097"/><stop offset="1" stop-color="#9A89F0"/></linearGradient></defs></svg>