<svg width="110" height="43" viewBox="0 0 110 43" fill="none" xmlns="http://www.w3.org/2000/svg">
<path d="M0 1.8471V33.6635C0 34.6836 0.826976 35.5106 1.8471 35.5106H10.2283C20.0343 35.5106 27.9836 27.5613 27.9836 17.7553C27.9836 7.94931 20.0343 0 10.2283 0H1.8471C0.826976 0 0 0.826976 0 1.8471Z" fill="url(#paint0_linear_2137_1700)"/>
<path fill-rule="evenodd" clip-rule="evenodd" d="M4.10938 40.1283C4.10938 41.429 5.16377 42.4834 6.46443 42.4834H16.6928C27.7994 42.4834 36.8031 33.4797 36.8031 22.3731C36.8031 11.2664 27.7994 2.26272 16.6928 2.26272H6.46443C5.16377 2.26272 4.10938 3.31711 4.10938 4.61778V40.1283ZM8.81949 37.7733V6.97283H16.6928C25.1981 6.97283 32.093 13.8677 32.093 22.3731C32.093 30.8784 25.1981 37.7733 16.6928 37.7733H8.81949Z" fill="url(#paint1_linear_2137_1700)"/>
<path d="M52.8029 33.7634C51.3787 33.7634 50.1164 33.4289 49.0159 32.76C47.9369 32.091 47.0953 31.12 46.4911 29.8468C45.9085 28.5737 45.6172 27.0631 45.6172 25.3153C45.6172 23.5458 45.9085 22.0353 46.4911 20.7837C47.0953 19.5321 47.9369 18.5719 49.0159 17.9029C50.1164 17.2124 51.3787 16.8671 52.8029 16.8671C54.2056 16.8671 55.4356 17.2232 56.4929 17.9353C57.5719 18.6258 58.284 19.5753 58.6292 20.7837H58.2408V9.649H61.51V33.4721H58.2732V29.7821H58.6616C58.2948 31.0121 57.5827 31.9831 56.5253 32.6952C55.4679 33.4073 54.2272 33.7634 52.8029 33.7634ZM53.6122 31.2063C55.0148 31.2063 56.1477 30.71 57.0108 29.7173C57.874 28.7247 58.3056 27.2574 58.3056 25.3153C58.3056 23.3732 57.874 21.9166 57.0108 20.9455C56.1477 19.9529 55.0148 19.4566 53.6122 19.4566C52.188 19.4566 51.0443 19.9529 50.1811 20.9455C49.3395 21.9166 48.9188 23.3732 48.9188 25.3153C48.9188 27.2574 49.3395 28.7247 50.1811 29.7173C51.0443 30.71 52.188 31.2063 53.6122 31.2063Z" fill="white"/>
<path d="M73.8221 33.7634C71.1895 33.7634 69.1179 33.0189 67.6074 31.53C66.0969 30.041 65.3416 27.9802 65.3416 25.3476C65.3416 23.6429 65.6653 22.154 66.3127 20.8808C66.9816 19.6076 67.8987 18.6258 69.064 17.9353C70.2508 17.2232 71.6211 16.8671 73.1747 16.8671C74.7068 16.8671 75.9908 17.1908 77.0266 17.8382C78.0624 18.4855 78.85 19.4027 79.3895 20.5895C79.9289 21.7547 80.1987 23.1358 80.1987 24.7326V25.7684H67.8987V23.8911H77.9653L77.415 24.3118C77.415 22.6934 77.0481 21.4419 76.3145 20.5571C75.6024 19.6508 74.5666 19.1977 73.2071 19.1977C71.6966 19.1977 70.5313 19.7263 69.7113 20.7837C68.8913 21.8195 68.4813 23.2545 68.4813 25.0887V25.4124C68.4813 27.3329 68.9453 28.7787 69.8732 29.7497C70.8226 30.7208 72.1605 31.2063 73.8868 31.2063C74.8363 31.2063 75.721 31.0768 76.541 30.8179C77.3826 30.5373 78.181 30.0842 78.9363 29.4584L80.0045 31.6918C79.2492 32.3608 78.3321 32.8787 77.2531 33.2455C76.1742 33.5908 75.0305 33.7634 73.8221 33.7634Z" fill="white"/>
<path d="M84.8895 33.4721V19.6832H81.7174V17.1584H85.7958L84.8895 18V15.4106C84.8895 13.49 85.3751 12.0335 86.3461 11.0408C87.3172 10.0266 88.7414 9.51953 90.6187 9.51953C91.0719 9.51953 91.5466 9.5519 92.0429 9.61663C92.5392 9.68137 92.9492 9.78927 93.2729 9.94032V12.5945C93.014 12.4866 92.6903 12.4003 92.3019 12.3356C91.935 12.2493 91.5574 12.2061 91.169 12.2061C90.5432 12.2061 90.0037 12.3356 89.5506 12.5945C89.0974 12.8319 88.7414 13.1987 88.4824 13.695C88.245 14.1914 88.1264 14.8279 88.1264 15.6048V17.8058L87.6408 17.1584H92.5608V19.6832H88.1587V33.4721H84.8895Z" fill="white"/>
<path d="M92.4301 33.4721L99.8424 24.2795V25.8332L92.8185 17.1584H96.7351L101.687 23.535H100.522L105.474 17.1584H109.359L102.4 25.8008V24.3118L109.779 33.4721H105.863L100.522 26.6424H101.687L96.3143 33.4721H92.4301Z" fill="white"/>
<defs>
<linearGradient id="paint0_linear_2137_1700" x1="28.8476" y1="-0.000932881" x2="0" y2="-0.000932879" gradientUnits="userSpaceOnUse">
<stop offset="0.0625" stop-color="#00C097"/>
<stop offset="1" stop-color="#9A89F0"/>
</linearGradient>
<linearGradient id="paint1_linear_2137_1700" x1="20.5976" y1="47.0812" x2="20.4562" y2="4.61777" gradientUnits="userSpaceOnUse">
<stop stop-color="#9A89F0"/>
<stop offset="0.41733" stop-color="#00E8C0"/>
<stop offset="0.946637" stop-color="#090D0D"/>
</linearGradient>
</defs>
</svg>
