<svg width="60" height="28" viewBox="0 0 60 28" fill="none" xmlns="http://www.w3.org/2000/svg">
<path d="M11.0001 1.73207C12.8565 0.660274 15.1437 0.660273 17.0001 1.73207L23.1244 5.26797C24.9808 6.33977 26.1244 8.32053 26.1244 10.4641V17.5359C26.1244 19.6795 24.9809 21.6603 23.1244 22.7321L17.0001 26.268C15.1437 27.3398 12.8565 27.3398 11.0001 26.268L4.87573 22.7321C3.01933 21.6603 1.87573 19.6795 1.87573 17.5359V10.4641C1.87573 8.32053 3.01933 6.33977 4.87573 5.26797L11.0001 1.73207Z" fill="url(#paint0_linear_1_5266)"/>
<path d="M27.0001 1.73207C28.8565 0.660274 31.1437 0.660273 33.0001 1.73207L39.1244 5.26797C40.9808 6.33977 42.1244 8.32053 42.1244 10.4641V17.5359C42.1244 19.6795 40.9809 21.6603 39.1244 22.7321L33.0001 26.268C31.1437 27.3398 28.8565 27.3398 27.0001 26.268L20.8757 22.7321C19.0193 21.6603 17.8757 19.6795 17.8757 17.5359V10.4641C17.8757 8.32053 19.0193 6.33977 20.8757 5.26797L27.0001 1.73207Z" fill="url(#paint1_linear_1_5266)"/>
<path d="M43.0001 1.73207C44.8565 0.660274 47.1437 0.660273 49.0001 1.73207L55.1244 5.26797C56.9808 6.33977 58.1244 8.32053 58.1244 10.4641V17.5359C58.1244 19.6795 56.9809 21.6603 55.1244 22.7321L49.0001 26.268C47.1437 27.3398 44.8565 27.3398 43.0001 26.268L36.8757 22.7321C35.0193 21.6603 33.8757 19.6795 33.8757 17.5359V10.4641C33.8757 8.32053 35.0193 6.33977 36.8757 5.26797L43.0001 1.73207Z" fill="url(#paint2_linear_1_5266)"/>
<path d="M15.8213 13.3623C15.8213 14.1663 15.6667 14.8385 15.3574 15.3789C15.0514 15.916 14.6071 16.3213 14.0244 16.5947C13.4417 16.8649 12.7402 17 11.9199 17H9.89844V9.86133H12.1396C12.8883 9.86133 13.5378 9.99479 14.0879 10.2617C14.638 10.5254 15.0645 10.9176 15.3672 11.4385C15.6699 11.9561 15.8213 12.5973 15.8213 13.3623ZM14.249 13.4014C14.249 12.874 14.1709 12.4411 14.0146 12.1025C13.8617 11.7607 13.6338 11.5085 13.3311 11.3457C13.0316 11.1829 12.6605 11.1016 12.2178 11.1016H11.4121V15.75H12.0615C12.8005 15.75 13.349 15.5531 13.707 15.1592C14.0684 14.7653 14.249 14.1794 14.249 13.4014ZM19.4346 11.4385C19.9391 11.4385 20.3737 11.5361 20.7383 11.7314C21.1029 11.9235 21.3844 12.2035 21.583 12.5713C21.7816 12.9391 21.8809 13.3883 21.8809 13.9189V14.6416H18.3604C18.3766 15.0615 18.502 15.3919 18.7363 15.6328C18.974 15.8704 19.3027 15.9893 19.7227 15.9893C20.071 15.9893 20.39 15.9535 20.6797 15.8818C20.9694 15.8102 21.2673 15.7028 21.5732 15.5596V16.7119C21.3031 16.8454 21.0199 16.943 20.7236 17.0049C20.4307 17.0667 20.0742 17.0977 19.6543 17.0977C19.1074 17.0977 18.6224 16.9967 18.1992 16.7949C17.7793 16.5931 17.4489 16.2855 17.208 15.8721C16.9704 15.4587 16.8516 14.9378 16.8516 14.3096C16.8516 13.6715 16.959 13.141 17.1738 12.7178C17.3919 12.2913 17.6947 11.9723 18.082 11.7607C18.4694 11.5459 18.9202 11.4385 19.4346 11.4385ZM19.4443 12.498C19.1546 12.498 18.9137 12.5908 18.7217 12.7764C18.5329 12.9619 18.4238 13.2533 18.3945 13.6504H20.4844C20.4811 13.429 20.4404 13.2321 20.3623 13.0596C20.2874 12.887 20.1735 12.7503 20.0205 12.6494C19.8708 12.5485 19.6787 12.498 19.4443 12.498ZM24.6982 17H23.209V9.86133H27.3008V11.1016H24.6982V12.9424H27.1201V14.1777H24.6982V17ZM33.541 14.2607C33.541 14.7165 33.4792 15.1201 33.3555 15.4717C33.235 15.8232 33.0576 16.1211 32.8232 16.3652C32.5921 16.6061 32.3122 16.7884 31.9834 16.9121C31.6579 17.0358 31.29 17.0977 30.8799 17.0977C30.4958 17.0977 30.1426 17.0358 29.8203 16.9121C29.5013 16.7884 29.223 16.6061 28.9854 16.3652C28.751 16.1211 28.5687 15.8232 28.4385 15.4717C28.3115 15.1201 28.248 14.7165 28.248 14.2607C28.248 13.6553 28.3555 13.1426 28.5703 12.7227C28.7852 12.3027 29.0911 11.9837 29.4883 11.7656C29.8854 11.5475 30.359 11.4385 30.9092 11.4385C31.4202 11.4385 31.8727 11.5475 32.2666 11.7656C32.6637 11.9837 32.9746 12.3027 33.1992 12.7227C33.4271 13.1426 33.541 13.6553 33.541 14.2607ZM29.7666 14.2607C29.7666 14.6188 29.8057 14.9199 29.8838 15.1641C29.9619 15.4082 30.084 15.5921 30.25 15.7158C30.416 15.8395 30.6325 15.9014 30.8994 15.9014C31.1631 15.9014 31.3763 15.8395 31.5391 15.7158C31.7051 15.5921 31.8255 15.4082 31.9004 15.1641C31.9785 14.9199 32.0176 14.6188 32.0176 14.2607C32.0176 13.8994 31.9785 13.5999 31.9004 13.3623C31.8255 13.1214 31.7051 12.9408 31.5391 12.8203C31.373 12.6999 31.1566 12.6396 30.8896 12.6396C30.4958 12.6396 30.2093 12.7747 30.0303 13.0449C29.8545 13.3151 29.7666 13.7204 29.7666 14.2607ZM37.8184 11.4385C37.8932 11.4385 37.9795 11.4434 38.0771 11.4531C38.1781 11.4596 38.2594 11.4694 38.3213 11.4824L38.209 12.8789C38.1602 12.8626 38.0902 12.8512 37.999 12.8447C37.9111 12.835 37.8346 12.8301 37.7695 12.8301C37.5775 12.8301 37.3903 12.8545 37.208 12.9033C37.029 12.9521 36.8678 13.0319 36.7246 13.1426C36.5814 13.25 36.4674 13.3932 36.3828 13.5723C36.3014 13.748 36.2607 13.9645 36.2607 14.2217V17H34.7715V11.541H35.8994L36.1191 12.459H36.1924C36.2998 12.2734 36.4333 12.1042 36.5928 11.9512C36.7555 11.7949 36.9395 11.6712 37.1445 11.5801C37.3529 11.4857 37.5775 11.4385 37.8184 11.4385ZM41.5635 11.4385C42.068 11.4385 42.5026 11.5361 42.8672 11.7314C43.2318 11.9235 43.5133 12.2035 43.7119 12.5713C43.9105 12.9391 44.0098 13.3883 44.0098 13.9189V14.6416H40.4893C40.5055 15.0615 40.6309 15.3919 40.8652 15.6328C41.1029 15.8704 41.4316 15.9893 41.8516 15.9893C42.1999 15.9893 42.5189 15.9535 42.8086 15.8818C43.0983 15.8102 43.3962 15.7028 43.7021 15.5596V16.7119C43.432 16.8454 43.1488 16.943 42.8525 17.0049C42.5596 17.0667 42.2031 17.0977 41.7832 17.0977C41.2363 17.0977 40.7513 16.9967 40.3281 16.7949C39.9082 16.5931 39.5778 16.2855 39.3369 15.8721C39.0993 15.4587 38.9805 14.9378 38.9805 14.3096C38.9805 13.6715 39.0879 13.141 39.3027 12.7178C39.5208 12.2913 39.8236 11.9723 40.2109 11.7607C40.5983 11.5459 41.0492 11.4385 41.5635 11.4385ZM41.5732 12.498C41.2835 12.498 41.0426 12.5908 40.8506 12.7764C40.6618 12.9619 40.5527 13.2533 40.5234 13.6504H42.6133C42.61 13.429 42.5693 13.2321 42.4912 13.0596C42.4163 12.887 42.3024 12.7503 42.1494 12.6494C41.9997 12.5485 41.8076 12.498 41.5732 12.498ZM46.3389 14.2119L44.5811 11.541H46.2705L47.3301 13.2793L48.3994 11.541H50.0889L48.3115 14.2119L50.1719 17H48.4775L47.3301 15.1299L46.1777 17H44.4883L46.3389 14.2119Z" fill="#F5EDFD"/>
<defs>
<linearGradient id="paint0_linear_1_5266" x1="14.0001" y1="0.928223" x2="14.0001" y2="27.0718" gradientUnits="userSpaceOnUse">
<stop stop-color="#9A7DE8"/>
<stop offset="1" stop-color="#7852E0"/>
</linearGradient>
<linearGradient id="paint1_linear_1_5266" x1="30.0001" y1="0.928223" x2="30.0001" y2="27.0718" gradientUnits="userSpaceOnUse">
<stop stop-color="#9A7DE8"/>
<stop offset="1" stop-color="#7852E0"/>
</linearGradient>
<linearGradient id="paint2_linear_1_5266" x1="46.0001" y1="0.928223" x2="46.0001" y2="27.0718" gradientUnits="userSpaceOnUse">
<stop stop-color="#9A7DE8"/>
<stop offset="1" stop-color="#7852E0"/>
</linearGradient>
</defs>
</svg>
