<svg width="48" height="48" viewBox="0 0 48 48" fill="none" xmlns="http://www.w3.org/2000/svg">
<circle cx="24" cy="24" r="24" fill="black"/>
<path d="M41.0392 24.9821C37.8381 30.8231 32.5214 35.2166 26.1819 37.2593C19.5903 39.4047 15.4121 37.937 9.59961 35.2081C15.9955 35.7846 20.4237 35.7338 25.8847 31.465C28.9089 29.1083 31.375 26.1125 33.1067 22.6919C35.8553 23.0312 38.5327 23.8042 41.0392 24.9821Z" fill="#D81FFA"/>
<path d="M33.1244 22.6919C31.3913 26.1116 28.924 29.1061 25.8988 31.4614C20.4379 35.7302 16.0097 35.781 9.61377 35.2048C15.8213 33.5594 19.9668 31.9939 23.634 26.1163C24.2813 25.0828 24.8553 24.0051 25.3517 22.8912C27.9181 22.4364 30.5382 22.3693 33.1244 22.6919Z" fill="#E167FF"/>
<path d="M33.1246 22.6918C30.5394 22.3707 27.9206 22.4391 25.3555 22.8947C26.4196 20.5163 27.1196 17.9912 27.4319 15.4044C30.1249 14.7868 32.899 14.5997 35.6506 14.85C35.2293 17.5812 34.3768 20.2281 33.1246 22.6918Z" fill="#0057FF"/>
<path d="M25.3551 22.8948C24.156 23.1094 22.9731 23.4061 21.8147 23.7827C15.2231 25.9279 12.7082 29.5806 9.61719 35.2082C10.5956 28.8559 11.7117 24.569 17.1726 20.3002C20.1904 17.9334 23.6933 16.2617 27.4315 15.4045C27.1192 17.9914 26.4192 20.5164 25.3551 22.8948Z" fill="#189FFF"/>
<path d="M27.432 15.4046C23.6938 16.2617 20.1909 17.9334 17.1732 20.3002C11.7122 24.569 10.5961 28.8559 9.61773 35.2081C8.36391 28.903 7.95083 24.4929 11.6181 18.6152C15.1358 12.9644 20.6804 8.87183 27.1168 7.17505C27.6548 9.88449 27.7611 12.6619 27.432 15.4046Z" fill="#17EF97"/>
<path fill-rule="evenodd" clip-rule="evenodd" d="M48 24C48 10.7452 37.2549 0 24 0C10.7452 0 0 10.7452 0 24C0 37.2549 10.7452 48 24 48C37.2549 48 48 37.2549 48 24ZM3 24C3 12.402 12.402 3 24 3C35.598 3 45 12.402 45 24C45 35.5981 35.5981 45 24 45C12.402 45 3 35.598 3 24Z" fill="white"/>
</svg>
