<svg width="40" height="40" fill="none" xmlns="http://www.w3.org/2000/svg"><path d="M7.687 29.909a1.7 1.7 0 0 0 2.404 2.404l-2.404-2.404ZM31.11 8.889h1.7a1.7 1.7 0 0 0-1.7-1.7v1.7Zm-1.7 18.518a1.7 1.7 0 1 0 3.4 0h-3.4ZM12.592 7.19a1.7 1.7 0 1 0 0 3.4v-3.4Zm-2.501 25.124.203-.203.05-.05.05-.05.05-.05.05-.051.4-.399.098-.099a645846204111.737 645846204111.737 0 0 1 .099-.098l.196-.196.049-.049.048-.049.049-.048a22.2 22.2 0 0 1 .049-.049l.048-.048.049-.049.048-.048.048-.048.192-.193.048-.048.048-.047.048-.048.048-.048a10.68 10.68 0 0 1 .142-.142l.047-.048.095-.094.094-.095.188-.187.187-.187.185-.185.092-.093.046-.046.046-.046.728-.727.357-.358.045-.044.044-.044.044-.045.045-.044.044-.044.044-.044.044-.045.044-.044.176-.175a509313032460.419 509313032460.419 0 0 1 .088-.088l.087-.087.174-.174.173-.174.345-.344.085-.085.086-.086.17-.17.042-.042.043-.043.042-.042.042-.043.17-.168a8.355 8.355 0 0 1 .083-.085l.084-.084.042-.042.042-.041.084-.084.167-.167a16.336 16.336 0 0 1 .125-.125l.041-.042.331-.33.042-.042.04-.041.042-.041.041-.041.164-.165.164-.163.163-.164.082-.081.04-.04.041-.042.04-.04a15.56 15.56 0 0 1 .163-.163l.04-.04.041-.04.04-.041.041-.04.04-.041.041-.04.04-.04.04-.041.041-.04.04-.04.04-.041.041-.04.04-.04.04-.04.04-.041.041-.04.04-.04.04-.04.04-.04.04-.04.04-.041.04-.04.041-.04a15.142 15.142 0 0 1 .08-.08l.04-.04.04-.04.04-.04.04-.04.04-.04.04-.04.04-.04.04-.04.04-.04.04-.04.04-.04.04-.04.04-.04.04-.04.04-.04.039-.04.04-.039.04-.04.04-.04.04-.04.039-.04.04-.039.04-.04.04-.04.04-.04.039-.04.04-.039.04-.04.039-.04.04-.039.04-.04.04-.04.039-.04.04-.039.04-.04.039-.04.04-.039.04-.04.04-.04.039-.039a7.43 7.43 0 0 1 .04-.04l.04-.04.039-.04a7.43 7.43 0 0 0 .04-.039l.04-.04.039-.04.04-.039.04-.04a7.43 7.43 0 0 0 .039-.04l.04-.039.04-.04a7.43 7.43 0 0 1 .039-.04l.04-.039.04-.04.039-.04.04-.039.04-.04.04-.04.039-.04.04-.039.04-.04.039-.04.04-.039.04-.04.04-.04.039-.04.04-.039.04-.04.04-.04.039-.04.04-.039.04-.04.04-.04.04-.04.039-.04.04-.04.04-.039.04-.04.04-.04.04-.04.04-.04.039-.04.04-.04.04-.04.04-.039.04-.04.04-.04.04-.04.04-.04.04-.04.04-.04.04-.04.04-.04.04-.04.04-.04.04-.04.04-.04.04-.04.04-.04.04-.04.04-.041.04-.04.041-.04.04-.04.04-.04.04-.041.041-.04.04-.04.04-.041.041-.04.04-.04.041-.041.04-.04.04-.041.041-.04.04-.041.041-.04a7.77 7.77 0 0 0 .122-.122l.04-.041.041-.04.041-.041.04-.041.042-.04.04-.042.164-.163.163-.164.165-.164.04-.041.042-.041.041-.041.041-.042a2080.885 2080.885 0 0 1 .748-.748l.084-.084.042-.042.042-.042a16.69 16.69 0 0 1 .085-.084l.168-.169.043-.042.042-.042.085-.085.17-.17.086-.086.085-.085.344-.345.174-.173.043-.043.044-.044.087-.087.043-.044.044-.043a9.002 9.002 0 0 0 .088-.088l.087-.088.044-.043.044-.045.177-.176.044-.045.044-.044.045-.044.044-.045.358-.357.727-.728.046-.046.046-.046.093-.092a20.19 20.19 0 0 1 .092-.093l.047-.046.046-.046.187-.187a581318906398.223 581318906398.223 0 0 1 .093-.094l.047-.047.047-.047.095-.094.094-.095.048-.047.047-.047.095-.095.048-.048.048-.048.047-.048.048-.048.193-.192.781-.782.399-.398.05-.05.05-.05.05-.051.051-.05.05-.051.052-.05c.016-.018.033-.034.05-.051l.051-.051-2.404-2.404a1291.245 1291.245 0 0 0-.253.253l-.05.05-.051.05-.05.05a78.93 78.93 0 0 1-.1.1l-.05.05-.05.05-.05.05-.05.05-.05.05-.049.05-.099.098a19.093 19.093 0 0 1-.098.099l-.05.049-.048.049-.05.049-.048.049-.195.194-.049.049-.048.048-.048.049-.049.048-.192.192-.096.096a85.82 85.82 0 0 1-.095.095l-.048.048-.047.048-.048.047-.047.047-.095.095-.047.047-.047.047-.047.047-.047.047-.047.047-.046.047-.187.186-.093.093-.046.046-.046.047-.047.046-.046.046-.092.092-2.822 2.823-.043.042-.042.042-.042.043-.043.042-.084.085-.042.042-.043.042-.084.084-.042.042-.042.042-.042.042-.042.042-.042.042-.041.042-.042.042-.042.041-.083.084-.167.166-.041.042-.042.041-.041.042a8.08 8.08 0 0 1-.041.04l-.042.042-.041.042-.041.04-.042.042-.165.165-.04.041-.042.041-.04.041-.042.041-.327.327-.04.041-.041.04-.082.082-.04.04-.041.041-.04.041-.041.04-.04.041-.041.04-.04.041-.041.04-.04.041-.041.04-.04.04-.04.041a433081443682.036 433081443682.036 0 0 0-.122.121l-.04.04-.04.04-.04.041-.041.04a15.293 15.293 0 0 0-.08.08l-.04.041-.04.04-.041.04-.04.04-.04.04-.04.04-.04.04-.04.04-.04.04-.04.041-.04.04-.04.04-.04.04-.04.04-.04.04-.04.04-.04.04a211259293167.433 211259293167.433 0 0 1-.08.08l-.04.04-.04.04-.04.04-.04.04a210210087295.311 210210087295.311 0 0 1-.08.079l-.04.04-.039.04-.04.04-.04.039-.04.04-.04.04-.039.04-.04.04-.04.039-.04.04-.039.04-.04.04-.04.039-.04.04-.039.04-.04.039-.04.04-.039.04a7.43 7.43 0 0 0-.12.119l-.039.04-.04.039-.04.04-.039.04-.04.039-.04.04a208014847738.718 208014847738.718 0 0 1-.277.277l-.04.04-.04.04-.04.04-.039.04-.04.039a14.84 14.84 0 0 0-.119.119l-.04.04-.039.04-.04.04-.04.039-.04.04-.039.04-.04.039-.04.04-.04.04-.039.04-.04.039-.04.04-.04.04-.039.04-.04.04-.04.039-.04.04-.04.04a211259293167.433 211259293167.433 0 0 1-.079.08l-.04.04-.04.039-.04.04-.04.04a211259293167.433 211259293167.433 0 0 1-.08.08l-.04.04-.04.04-.04.04a211259293167.433 211259293167.433 0 0 1-.079.08l-.04.04-.04.04-.04.04-.04.04-.04.04-.04.04-.04.04-.04.04-.04.04-.04.04-.04.04-.041.04a214420324040.9 214420324040.9 0 0 1-.08.081l-.04.04-.041.04-.04.04-.04.041-.041.04-.04.04-.04.041a433953977267.872 433953977267.872 0 0 1-.081.08l-.04.041-.041.04-.04.041-.041.04-.04.041-.041.04-.041.041-.04.041-.041.04-.04.041-.082.082-.041.04-.04.041-.657.656-.165.166a8.08 8.08 0 0 1-.041.04l-.042.042-.041.042-.042.041-.166.167-.042.041-.042.042-.083.084-.042.041-.042.042-.042.042-.042.042-.042.042-.042.042-.042.042-.042.042-.169.17-.042.042-.043.042-.084.085-.17.17-.043.043-.043.042-.043.043-.043.043-.344.344-.173.173-.087.087-.043.044-.044.044-.175.174-.044.044-.044.044-.044.044-.044.044-.088.088a518575162121.416 518575162121.416 0 0 0-.177.177l-.044.045-.045.044-.178.179-.045.044-.045.045-.045.045-.045.045-.045.045-.045.045-.09.09-.045.046-.046.045-.09.09-.366.366-.092.092-.046.046-.046.047-.186.185-.186.187-.188.187-.047.047-.047.047-.095.095-.047.047-.047.048-.048.047-.048.048a85.82 85.82 0 0 1-.095.095l-.096.096-.192.192-.048.049-.049.048-.048.049-.049.048-.194.195-.196.196a76.097 76.097 0 0 1-.099.098l-.099.1-.099.098-.1.1-.05.05-.05.05a78.74 78.74 0 0 1-.1.1l-.05.05-.05.05-.05.05a59.98 59.98 0 0 1-.05.051l-.102.101-.05.051-.051.05 2.404 2.405ZM29.41 8.889v18.518h3.4V8.89h-3.4Zm1.7-1.7H12.592v3.4h18.519v-3.4Z" fill="#fff"/></svg>