<svg width="497" height="608" fill="none" xmlns="http://www.w3.org/2000/svg"><g opacity=".5"><path d="M248.474 607.994c-27.161.001-49.578-28.165-71.26-55.404-9.464-11.889-18.399-23.117-27.401-31.551-8.821-8.266-19.804-12.787-30.424-17.158-12.21-5.026-24.837-10.223-33.67-21.147C75.68 470.32 70.77 452.581 66.02 435.425c-4.398-15.895-8.946-32.33-17.557-45.114-4.985-7.399-11.056-14.451-16.93-21.271C16.034 351.039.005 332.425 0 303.997c-.005-80.09 26.1-156.126 73.511-214.109C120.91 31.922 183.055 0 248.5 0c65.481 0 127.633 31.919 175.013 89.88C470.892 147.84 496.99 223.88 497 303.996c.003 28.829-4.205 73.837-16.027 113.702-13.601 45.853-34.117 74.353-59.329 82.416-12.536 4.009-23.57 4.092-34.243 4.17-17.282.128-33.607.248-52.409 18.255-9.043 8.661-17.422 20.837-26.29 33.728-17.491 25.423-35.576 51.71-60.202 51.726h-.026ZM248.5 1.676c-65.079 0-126.881 31.75-174.02 89.399C27.33 148.738 1.366 224.356 1.37 303.997c.003 27.707 15.816 46.069 31.107 63.826 5.902 6.854 12.009 13.943 17.047 21.421 8.77 13.022 13.36 29.605 17.796 45.644 4.915 17.757 9.557 34.527 19.373 46.667 8.604 10.641 20.518 15.545 33.132 20.738 10.727 4.414 21.82 8.98 30.823 17.416 9.077 8.507 18.05 19.779 27.548 31.71 21.482 26.989 43.698 54.895 70.278 54.898h.026c23.985-.016 41.862-26 59.153-51.128 8.916-12.959 17.338-25.2 26.493-33.969 19.172-18.359 35.724-18.482 53.247-18.612 10.587-.078 21.536-.16 33.903-4.115 60.997-19.508 74.339-147.013 74.334-194.496C495.608 140.122 382.438 1.676 248.5 1.676Z" fill="url(#a)"/><path d="M247.275 585.685c-23.463 0-44.386-24.384-64.626-47.974-9.008-10.499-17.515-20.415-26.135-28.146-7.744-6.946-17.274-11.995-26.488-16.877-11.985-6.35-24.376-12.915-33.034-23.75-9.155-11.459-14.345-27.232-19.368-42.487-4.05-12.305-8.239-25.029-14.487-35.479-4.85-8.116-10.868-15.9-16.685-23.428-14.172-18.337-28.826-37.298-29.045-63.538-.602-72.832 24.37-145.892 68.516-200.448 44.314-54.76 102.053-84.92 162.578-84.92 59.359 0 118.722 30.805 162.873 84.514 44.215 53.79 69.552 126.211 69.515 198.693-.033 64.957-18.723 168.627-70.075 187.998-10.606 4.003-21.08 5.142-31.207 6.244-15.136 1.645-29.433 3.202-43.971 13.556-11.428 8.14-22.222 21.225-32.659 33.881-16.964 20.567-34.505 41.833-55.172 42.158-.176.003-.353.003-.53.003Zm1.226-565.37c-60.158 0-117.549 29.983-161.604 84.422-43.89 54.24-68.719 126.865-68.119 199.252.211 25.582 14.68 44.301 28.67 62.404 5.846 7.564 11.893 15.386 16.798 23.59 6.347 10.618 10.568 23.441 14.65 35.842 4.971 15.103 10.11 30.72 19.076 41.941 8.47 10.599 20.735 17.098 32.597 23.383 9.286 4.919 18.886 10.006 26.753 17.063 8.692 7.796 17.232 17.749 26.274 28.286 20.042 23.361 40.765 47.51 63.682 47.51.172 0 .34 0 .511-.003 20.112-.316 37.453-21.341 54.224-41.671 10.499-12.729 21.354-25.892 32.932-34.138 14.803-10.545 29.248-12.117 44.539-13.779 10.057-1.094 20.46-2.225 30.93-6.174 50.642-19.105 69.072-121.938 69.105-186.398.036-72.039-25.153-144.027-69.112-197.504-43.896-53.4-102.906-84.025-161.906-84.025Z" fill="url(#b)"/><path d="M245.442 558.775c-21.239 0-40.647-19.804-59.425-38.964-7.019-7.161-13.648-13.926-20.348-19.681-7.225-6.207-15.791-11.306-24.073-16.237-12.312-7.327-25.041-14.903-34.188-26.456-9.358-11.821-15.237-27.352-20.92-42.369-4.12-10.882-8.379-22.134-13.915-31.809-3.394-5.936-7.206-11.794-10.894-17.457-11.916-18.3-24.236-37.221-24.457-61.795-.645-70.55 22.831-140.51 64.407-191.942 39.696-49.11 91.859-76.155 146.872-76.155 54.843 0 110.322 29.437 152.21 80.764 40.605 49.749 63.845 115.184 63.763 179.527l-.686-.001.686.001c-.068 52.42-13.583 158.534-64.266 184.95-11.62 6.057-23.878 8.577-35.734 11.013-13.499 2.774-27.46 5.64-40.518 13.757-9.382 5.833-18.648 14.355-27.607 22.598-16.022 14.739-32.589 29.982-50.391 30.252-.171.004-.345.004-.516.004Zm3.059-521.189c-54.647 0-106.459 26.87-145.898 75.658-41.32 51.115-64.65 120.639-64.011 190.743.217 23.999 12.39 42.694 24.16 60.77 3.7 5.686 7.524 11.562 10.945 17.539 5.606 9.799 9.889 21.12 14.033 32.068 5.638 14.892 11.466 30.289 20.664 41.907 8.98 11.34 21.596 18.851 33.801 26.114 8.331 4.96 16.947 10.089 24.262 16.373 6.745 5.797 13.397 12.582 20.438 19.767 18.588 18.966 37.806 38.573 58.549 38.573.166 0 .332 0 .498-.003 17.352-.264 33.738-15.339 49.585-29.918 9.005-8.284 18.318-16.853 27.808-22.749 13.246-8.232 27.31-11.123 40.911-13.918 11.777-2.42 23.954-4.921 35.427-10.902 50.021-26.073 63.364-131.374 63.43-183.41.083-63.9-23.011-128.904-63.36-178.34-41.634-51.013-96.761-80.272-151.242-80.272Z" fill="url(#c)"/><path d="M243.688 528.854c-.113 0-.225 0-.338-.002-21.255-.169-40.111-16.127-58.346-31.559-6.216-5.261-12.643-10.699-18.955-15.297-5.32-3.873-11.099-7.272-16.688-10.557-11.26-6.621-22.905-13.467-31.784-24.694-9.76-12.343-16.112-28.263-22.259-43.659-3.29-8.246-6.692-16.774-10.55-24.533-1.876-3.778-3.88-7.617-5.82-11.33-10.057-19.259-20.456-39.177-20.342-63.23.37-77.676 16.084-134.44 48.041-173.53 40.258-49.25 91.961-77.744 141.848-78.178.353-.003.712-.004 1.066-.004 48.23 0 100.197 28.28 139.241 75.832 37.651 45.858 59.176 104.233 59.055 160.156-.115 52.571-12.504 150.585-58.199 184.483-12.431 9.219-26.529 11.574-40.162 13.85-8.374 1.399-17.031 2.843-25.254 5.859-10.432 3.825-20.859 10.214-30.941 16.392-16.05 9.832-32.645 20.001-49.613 20.001Zm5.876-474.897c-.354 0-.705.002-1.058.005-49.531.431-100.883 28.747-140.89 77.686-32.129 39.302-47.266 94.069-47.639 172.354-.112 23.559 10.176 43.264 20.126 62.317 1.943 3.722 3.95 7.569 5.838 11.363 3.89 7.826 7.305 16.388 10.612 24.669 6.095 15.278 12.399 31.075 22.009 43.228 8.708 11.013 20.241 17.792 31.392 24.349 5.617 3.302 11.423 6.716 16.796 10.627 6.352 4.628 12.798 10.083 19.033 15.359 18.066 15.288 36.746 31.096 57.578 31.261.107.002.216.002.324.002 16.65 0 33.095-10.076 49.001-19.825 10.138-6.21 20.616-12.63 31.162-16.496 8.326-3.054 17.039-4.509 25.464-5.915 13.494-2.253 27.449-4.582 39.634-13.624 45.179-33.51 57.425-130.83 57.541-183.052l.685.003-.685-.003c.12-55.479-21.258-113.419-58.652-158.965-38.791-47.242-90.403-75.343-138.271-75.343Z" fill="url(#d)"/><path d="M240.162 497.514c-31.517 0-89.765-34.943-112.091-62.178-24.381-29.745-46.945-92.34-47.336-131.33-.549-55.027 3.44-117.038 37.172-159.749 37.799-47.858 85.397-75.566 130.589-76.017.35-.004.709-.006 1.06-.006 43.618 0 91.648 26.845 128.713 72.003 33.763 41.137 53.037 91.81 52.88 139.023l-.686-.003.686.003c-.169 50.758-11.34 146.614-52.136 183.932-13.31 12.177-29.773 13.58-45.699 14.936-6.301.537-12.816 1.092-18.992 2.315-9.196 1.824-18.549 4.706-27.592 7.494-15.129 4.664-30.774 9.485-46.318 9.577h-.25Zm9.394-427.603c-.351 0-.699.001-1.049.005-44.828.449-92.071 27.97-129.615 75.507-33.387 42.274-37.33 103.877-36.786 158.564.388 38.63 22.756 100.671 46.934 130.161 22.147 27.02 79.894 61.688 111.117 61.689h.249c15.379-.089 30.94-4.887 45.987-9.526 9.075-2.797 18.458-5.688 27.71-7.522 6.236-1.237 12.784-1.794 19.118-2.335 15.724-1.339 31.984-2.722 44.973-14.605 40.362-36.923 51.415-132.148 51.584-182.595.158-46.77-18.969-97.007-52.476-137.829-36.81-44.847-84.487-71.514-127.746-71.514Z" fill="url(#e)"/><path d="M237.256 466.353c-34.245.002-68.757-18.182-94.725-49.914-25.673-31.369-39.793-71.302-39.761-112.442.003-2.876-.003-5.777-.005-8.7-.067-46.66-.145-99.544 26.686-137.385 24.234-34.177 69.335-73.685 117.317-73.685.58 0 1.162.006 1.742.017 34.675.695 76.906 23.046 110.215 58.33 35.903 38.026 56.213 84.614 55.726 127.819l-.685-.013.685.013c-.252 22.183-3.681 135.075-46.712 179.129-13.88 14.211-31.43 13.993-48.414 13.779-4.007-.05-8.156-.1-12.147.046-8.839.324-18.062.839-26.981 1.337-14.389.804-29.269 1.635-42.691 1.669h-.25Zm9.509-380.45c-47.521 0-92.234 39.198-116.281 73.108-26.494 37.365-26.416 89.916-26.349 136.283.003 2.924.008 5.827.006 8.704-.033 40.692 13.946 80.204 39.356 111.254 25.714 31.42 59.878 49.424 93.759 49.424h.244c13.395-.034 28.26-.864 42.636-1.667 8.922-.498 18.149-1.013 26.999-1.339 4.021-.144 8.181-.099 12.207-.046 16.688.205 34.021.426 47.518-13.389 33.015-33.797 45.532-116.938 46.22-177.866.482-42.707-19.654-88.826-55.251-126.529-33.079-35.036-74.976-57.23-109.34-57.919a87.77 87.77 0 0 0-1.724-.018Z" fill="url(#f)"/><path d="M310.108 445.935c-15.481 0-31.883-2.737-46.6-5.193-10.544-1.761-20.502-3.422-28.493-3.784-72.695-3.291-110.083-48.022-111.133-132.948-.067-5.485-.198-11.067-.33-16.709-.947-40.63-1.929-82.643 18.38-116.281 25.024-41.437 69.828-70.95 106.577-70.242 42.959.863 76.775 33.832 107.73 67.529 26.693 29.05 42.058 53.834 41.629 94.551l-.685-.011.685.011c-.312 29.659-4.287 129.428-42.33 167.988-11.387 11.543-27.813 15.089-45.43 15.089Zm-62.954-343.493c-36.069 0-79.641 29.037-104.119 69.574-20.029 33.173-19.054 74.892-18.112 115.238.132 5.648.262 11.238.33 16.73 1.035 83.87 37.979 128.045 109.81 131.297 8.061.365 18.053 2.033 28.63 3.799 31.202 5.21 70.036 11.69 90.973-9.525 37.587-38.101 41.522-137.243 41.832-166.72.424-40.075-14.773-64.547-41.169-93.275-32.04-34.877-64.321-66.253-106.841-67.106a84.427 84.427 0 0 0-1.334-.012Z" fill="url(#g)"/><path d="M305.966 422.363c-13.475 0-27.626-3.184-40.896-6.173-11.446-2.575-22.255-5.011-31.676-5.27-3.857-.106-7.985-.033-12.348.045-20.797.373-44.362.799-59.841-17.08-17.893-20.668-17.921-54.751-17.943-82.134-.003-2.638-.005-5.225-.021-7.748-.052-7.597-.33-15.537-.598-23.217-1.169-33.464-2.376-68.067 12.831-97.659 19.306-37.564 58.405-64.82 92.986-64.82h.04c30.359.019 73.118 25.758 101.676 61.201 14.498 17.993 31.703 46.196 31.335 78.367-.604 53.196-7.77 122.637-38.475 151.338-10.611 9.919-23.498 13.15-37.07 13.15Zm-76.812-13.174c1.456 0 2.88.016 4.272.054 9.527.264 20.39 2.709 31.893 5.299 26.355 5.934 56.219 12.658 76.887-6.662 30.266-28.292 37.333-97.203 37.935-150.029l.685.012-.685-.012c.281-24.649-10.707-52.053-30.943-77.166-28.322-35.153-70.673-60.682-100.698-60.701h-.04c-34.142 0-72.754 26.924-91.824 64.036-14.983 29.149-13.784 63.487-12.624 96.694.27 7.694.546 15.649.599 23.276.016 2.527.019 5.118.022 7.76.021 27.062.05 60.743 17.514 80.917 15.074 17.411 38.343 16.995 58.877 16.621 2.811-.05 5.523-.099 8.13-.099Z" fill="url(#h)"/><path d="M296.567 399.304c-11.147 0-22.762-2.537-34.195-5.035-10.43-2.278-20.283-4.431-29.35-4.541-3.777-.039-8.068.237-12.598.529-16.153 1.057-36.25 2.368-48.161-11.126-13.248-15.016-12.752-41.869-12.354-63.445.075-4.178.15-8.125.121-11.777-.059-7.689-.401-15.718-.731-23.484-1.25-29.429-2.543-59.861 9.937-86.374 15.777-33.523 48.169-56.838 78.881-56.838l.407.001c28.822.195 67.331 22.355 91.562 52.692 16.95 21.223 25.739 44.269 25.414 66.652-.955 66.486-12.286 109.012-34.639 130.01-10.269 9.646-21.994 12.736-34.294 12.736Zm-64.388-11.258c.289 0 .573.002.859.006 9.179.111 19.086 2.275 29.575 4.567 23.758 5.191 48.321 10.556 67.413-7.38 21.999-20.668 33.156-62.768 34.104-128.71.399-27.698-13.388-50.881-25.024-65.45-24.001-30.048-62.099-51.996-90.587-52.188-.134-.002-.268-.002-.402-.002-30.246 0-62.147 22.971-77.693 55.999-12.279 26.083-10.997 56.264-9.757 85.45.332 7.782.675 15.831.733 23.556.03 3.678-.045 7.637-.12 11.829-.393 21.241-.88 47.674 11.915 62.177 11.484 13.011 31.264 11.715 47.155 10.683 4.213-.276 8.209-.537 11.829-.537Z" fill="url(#i)"/><path d="M283.138 376.658c-8.847 0-17.922-1.333-26.879-2.648-7.624-1.12-14.828-2.178-21.678-2.373-47.96-1.37-59.262-8.018-60.127-70.307-.586-42.292 1.753-94.575 25.273-123.742 11.929-14.795 28.424-22.293 49.034-22.293h.342c26.395.106 59.179 18.065 79.724 43.674 14.376 17.918 21.842 37.982 21.59 58.022-.372 29.71-4.925 83.122-31.229 107.034-10.793 9.808-23.177 12.633-36.05 12.633Zm-34.377-219.687c-20.23 0-36.396 7.331-48.059 21.794-23.158 28.723-25.461 80.572-24.877 122.535.843 60.829 11.893 67.321 58.788 68.661 6.917.198 14.151 1.259 21.809 2.384 21.723 3.188 44.18 6.487 61.947-9.666 25.832-23.483 30.309-76.314 30.678-105.715.246-19.581-7.084-39.229-21.196-56.82-20.313-25.315-52.696-43.068-78.753-43.173h-.337Z" fill="url(#j)"/><path d="M268.223 356.629c-6.074 0-12.123-.439-17.941-.859-4.339-.315-8.437-.612-12.466-.741-42.164-1.349-49.735-5.842-50.548-59.048-.793-51.899 7.04-88.024 23.275-107.377 10.065-11.994 23.471-17.622 39.779-16.729 18.974 1.038 40.826 10.434 57.027 24.519 19.167 16.666 29.425 38.512 28.878 61.51-.546 23.124-4.86 64.996-27.622 85.631-11.781 10.684-26.143 13.094-40.382 13.094Zm-21.212-183.171c-14.469 0-26.403 5.491-35.512 16.346-15.955 19.016-23.646 54.728-22.861 106.144.795 52.065 7.544 56.072 49.216 57.405 4.047.129 8.159.427 12.509.743 20.17 1.461 41.021 2.97 57.428-11.907 22.294-20.213 26.528-61.513 27.067-84.333 1.169-49.3-48.483-82.33-84.595-84.308a60.564 60.564 0 0 0-3.252-.09Z" fill="url(#k)"/><path d="M244.842 339.384c-.905 0-1.812-.011-2.73-.032-36.342-.884-42.376-7.956-43.029-50.453-.281-18.259 1.165-63.26 20.604-86.762 8.43-10.191 19.247-15.086 32.212-14.625 34.064 1.282 70.784 29.006 70.709 71.56-.043 22.999-5.882 41.621-17.352 55.348-13.5 16.154-34.878 24.964-60.414 24.964Zm5.328-150.228c-11.811 0-21.734 4.763-29.522 14.174-19.062 23.045-20.473 67.496-20.195 85.536.641 41.558 6.093 47.944 41.686 48.809.907.023 1.812.033 2.706.033 25.177 0 46.21-8.64 59.452-24.485 11.198-13.401 16.899-31.622 16.94-54.154.075-41.549-35.957-68.622-69.381-69.881a47.768 47.768 0 0 0-1.686-.032Z" fill="url(#l)"/><path d="M242.933 324.175c-10.751 0-18.605-3.09-23.938-9.397-5.955-7.044-8.74-18.062-8.507-33.684.271-18.162 4.178-77.483 43.115-78.317 15.821-.359 32.323 7.605 43.034 20.729 8.44 10.344 12.785 23.1 12.568 36.89-.696 44.038-32.656 61.755-62.338 63.65a61.973 61.973 0 0 1-3.934.129Zm11.649-119.73c-.318 0-.637.003-.957.009-37.708.807-41.501 58.889-41.766 76.669-.225 15.133 2.422 25.747 8.089 32.449 5.675 6.712 14.461 9.593 26.85 8.801 29.064-1.858 60.36-19.121 61.037-62.01.211-13.323-3.997-25.66-12.17-35.674-10.239-12.549-25.902-20.244-41.083-20.244Z" fill="url(#m)"/><path d="M248.196 308.725c-7.68 0-14.34-2.995-18.99-8.606-5.285-6.376-7.743-15.541-7.108-26.503 1.486-25.704 10.869-55.403 32.378-55.403.27 0 .541.003.816.013 19.804.685 40.883 17.481 40.403 43.424-.506 27.531-23.203 44.715-44.303 46.906-1.084.113-2.15.169-3.196.169Zm6.261-88.837c-27.088 0-30.672 48.29-30.993 53.846-.605 10.459 1.713 19.17 6.703 25.191 4.994 6.026 12.487 8.853 21.107 7.961 20.506-2.13 42.564-18.72 43.051-45.275.46-24.914-19.922-41.047-39.07-41.708-.268-.01-.536-.015-.798-.015Z" fill="url(#n)"/></g><defs><linearGradient id="a" x1="512.345" y1="-.016" x2="0" y2="-.016" gradientUnits="userSpaceOnUse"><stop offset=".063" stop-color="#00C097"/><stop offset="1" stop-color="#9A89F0"/></linearGradient><linearGradient id="b" x1="495.199" y1="18.624" x2="17.396" y2="18.624" gradientUnits="userSpaceOnUse"><stop offset=".063" stop-color="#00C097"/><stop offset="1" stop-color="#9A89F0"/></linearGradient><linearGradient id="c" x1="477.666" y1="35.896" x2="37.209" y2="35.896" gradientUnits="userSpaceOnUse"><stop offset=".063" stop-color="#00C097"/><stop offset="1" stop-color="#9A89F0"/></linearGradient><linearGradient id="d" x1="459.876" y1="52.269" x2="58.605" y2="52.269" gradientUnits="userSpaceOnUse"><stop offset=".063" stop-color="#00C097"/><stop offset="1" stop-color="#9A89F0"/></linearGradient><linearGradient id="e" x1="441.97" y1="68.223" x2="80.689" y2="68.223" gradientUnits="userSpaceOnUse"><stop offset=".063" stop-color="#00C097"/><stop offset="1" stop-color="#9A89F0"/></linearGradient><linearGradient id="f" x1="424.083" y1="84.216" x2="102.758" y2="84.216" gradientUnits="userSpaceOnUse"><stop offset=".063" stop-color="#00C097"/><stop offset="1" stop-color="#9A89F0"/></linearGradient><linearGradient id="g" x1="406.359" y1="100.757" x2="123.148" y2="100.757" gradientUnits="userSpaceOnUse"><stop offset=".063" stop-color="#00C097"/><stop offset="1" stop-color="#9A89F0"/></linearGradient><linearGradient id="h" x1="388.912" y1="118.299" x2="142.012" y2="118.299" gradientUnits="userSpaceOnUse"><stop offset=".063" stop-color="#00C097"/><stop offset="1" stop-color="#9A89F0"/></linearGradient><linearGradient id="i" x1="371.899" y1="137.206" x2="158.535" y2="137.206" gradientUnits="userSpaceOnUse"><stop offset=".063" stop-color="#00C097"/><stop offset="1" stop-color="#9A89F0"/></linearGradient><linearGradient id="j" x1="355.859" y1="155.289" x2="174.379" y2="155.289" gradientUnits="userSpaceOnUse"><stop offset=".063" stop-color="#00C097"/><stop offset="1" stop-color="#9A89F0"/></linearGradient><linearGradient id="k" x1="340.85" y1="171.778" x2="187.213" y2="171.778" gradientUnits="userSpaceOnUse"><stop offset=".063" stop-color="#00C097"/><stop offset="1" stop-color="#9A89F0"/></linearGradient><linearGradient id="l" x1="326.423" y1="187.478" x2="199.055" y2="187.478" gradientUnits="userSpaceOnUse"><stop offset=".063" stop-color="#00C097"/><stop offset="1" stop-color="#9A89F0"/></linearGradient><linearGradient id="m" x1="312.261" y1="202.762" x2="210.475" y2="202.762" gradientUnits="userSpaceOnUse"><stop offset=".063" stop-color="#00C097"/><stop offset="1" stop-color="#9A89F0"/></linearGradient><linearGradient id="n" x1="297.979" y1="218.211" x2="222" y2="218.211" gradientUnits="userSpaceOnUse"><stop offset=".063" stop-color="#00C097"/><stop offset="1" stop-color="#9A89F0"/></linearGradient></defs></svg>