<svg width="327" height="208" viewBox="0 0 327 208" fill="none" xmlns="http://www.w3.org/2000/svg">
<path d="M40.8069 202.12C40.3335 202.12 39.9269 201.99 39.5869 201.73C39.2469 201.463 38.9835 201.083 38.7969 200.59C38.6102 200.097 38.5169 199.497 38.5169 198.79C38.5169 197.717 38.7202 196.9 39.1269 196.34C39.5402 195.78 40.1002 195.5 40.8069 195.5C41.5202 195.5 42.0802 195.78 42.4869 196.34C42.8935 196.9 43.0969 197.717 43.0969 198.79C43.0969 199.497 43.0035 200.097 42.8169 200.59C42.6369 201.083 42.3735 201.463 42.0269 201.73C41.6869 201.99 41.2802 202.12 40.8069 202.12ZM40.8069 201.46C41.1069 201.46 41.3702 201.367 41.5969 201.18C41.8235 200.987 42.0002 200.693 42.1269 200.3C42.2602 199.9 42.3269 199.397 42.3269 198.79C42.3269 198.177 42.2602 197.677 42.1269 197.29C42.0002 196.903 41.8235 196.62 41.5969 196.44C41.3702 196.253 41.1069 196.16 40.8069 196.16C40.5135 196.16 40.2502 196.253 40.0169 196.44C39.7902 196.62 39.6102 196.903 39.4769 197.29C39.3502 197.677 39.2869 198.177 39.2869 198.79C39.2869 199.397 39.3502 199.9 39.4769 200.3C39.6102 200.693 39.7902 200.987 40.0169 201.18C40.2502 201.367 40.5135 201.46 40.8069 201.46ZM40.8069 199.39C40.6402 199.39 40.4935 199.33 40.3669 199.21C40.2469 199.09 40.1869 198.927 40.1869 198.72C40.1869 198.513 40.2469 198.353 40.3669 198.24C40.4935 198.12 40.6402 198.06 40.8069 198.06C40.9802 198.06 41.1269 198.12 41.2469 198.24C41.3669 198.353 41.4269 198.513 41.4269 198.72C41.4269 198.927 41.3669 199.09 41.2469 199.21C41.1269 199.33 40.9802 199.39 40.8069 199.39ZM46.673 202.12C46.3063 202.12 45.9796 202.077 45.693 201.99C45.4063 201.903 45.153 201.793 44.933 201.66C44.7196 201.527 44.533 201.38 44.373 201.22L44.793 200.68C45.0063 200.88 45.263 201.057 45.563 201.21C45.863 201.363 46.2163 201.44 46.623 201.44C46.9163 201.44 47.1763 201.393 47.403 201.3C47.6363 201.2 47.8196 201.063 47.953 200.89C48.0863 200.71 48.153 200.503 48.153 200.27C48.153 200.017 48.0763 199.797 47.923 199.61C47.7696 199.417 47.523 199.267 47.183 199.16C46.843 199.053 46.393 199 45.833 199V198.37C46.3396 198.37 46.7463 198.317 47.053 198.21C47.3596 198.103 47.5796 197.963 47.713 197.79C47.853 197.61 47.923 197.407 47.923 197.18C47.923 196.867 47.803 196.62 47.563 196.44C47.3296 196.26 47.0163 196.17 46.623 196.17C46.323 196.17 46.0363 196.23 45.763 196.35C45.4963 196.47 45.2596 196.627 45.053 196.82L44.613 196.3C44.8796 196.067 45.183 195.877 45.523 195.73C45.8696 195.577 46.2463 195.5 46.653 195.5C47.053 195.5 47.4096 195.563 47.723 195.69C48.043 195.817 48.2963 196 48.483 196.24C48.6696 196.48 48.763 196.773 48.763 197.12C48.763 197.507 48.633 197.823 48.373 198.07C48.1196 198.317 47.7963 198.507 47.403 198.64V198.68C47.683 198.74 47.943 198.843 48.183 198.99C48.4296 199.13 48.623 199.31 48.763 199.53C48.9096 199.75 48.983 200.007 48.983 200.3C48.983 200.68 48.8763 201.007 48.663 201.28C48.4563 201.547 48.1796 201.753 47.833 201.9C47.4863 202.047 47.0996 202.12 46.673 202.12ZM52.7991 198.54C52.5791 198.54 52.3891 198.463 52.2291 198.31C52.0691 198.15 51.9891 197.947 51.9891 197.7C51.9891 197.447 52.0691 197.243 52.2291 197.09C52.3891 196.93 52.5791 196.85 52.7991 196.85C53.0257 196.85 53.2157 196.93 53.3691 197.09C53.5291 197.243 53.6091 197.447 53.6091 197.7C53.6091 197.947 53.5291 198.15 53.3691 198.31C53.2157 198.463 53.0257 198.54 52.7991 198.54ZM52.7991 202.12C52.5791 202.12 52.3891 202.043 52.2291 201.89C52.0691 201.73 51.9891 201.527 51.9891 201.28C51.9891 201.027 52.0691 200.823 52.2291 200.67C52.3891 200.51 52.5791 200.43 52.7991 200.43C53.0257 200.43 53.2157 200.51 53.3691 200.67C53.5291 200.823 53.6091 201.027 53.6091 201.28C53.6091 201.527 53.5291 201.73 53.3691 201.89C53.2157 202.043 53.0257 202.12 52.7991 202.12ZM58.7951 202.12C58.3218 202.12 57.9151 201.99 57.5751 201.73C57.2351 201.463 56.9718 201.083 56.7851 200.59C56.5985 200.097 56.5051 199.497 56.5051 198.79C56.5051 197.717 56.7085 196.9 57.1151 196.34C57.5285 195.78 58.0885 195.5 58.7951 195.5C59.5085 195.5 60.0685 195.78 60.4751 196.34C60.8818 196.9 61.0851 197.717 61.0851 198.79C61.0851 199.497 60.9918 200.097 60.8051 200.59C60.6251 201.083 60.3618 201.463 60.0151 201.73C59.6751 201.99 59.2685 202.12 58.7951 202.12ZM58.7951 201.46C59.0951 201.46 59.3585 201.367 59.5851 201.18C59.8118 200.987 59.9885 200.693 60.1151 200.3C60.2485 199.9 60.3151 199.397 60.3151 198.79C60.3151 198.177 60.2485 197.677 60.1151 197.29C59.9885 196.903 59.8118 196.62 59.5851 196.44C59.3585 196.253 59.0951 196.16 58.7951 196.16C58.5018 196.16 58.2385 196.253 58.0051 196.44C57.7785 196.62 57.5985 196.903 57.4651 197.29C57.3385 197.677 57.2751 198.177 57.2751 198.79C57.2751 199.397 57.3385 199.9 57.4651 200.3C57.5985 200.693 57.7785 200.987 58.0051 201.18C58.2385 201.367 58.5018 201.46 58.7951 201.46ZM58.7951 199.39C58.6285 199.39 58.4818 199.33 58.3551 199.21C58.2351 199.09 58.1751 198.927 58.1751 198.72C58.1751 198.513 58.2351 198.353 58.3551 198.24C58.4818 198.12 58.6285 198.06 58.7951 198.06C58.9685 198.06 59.1151 198.12 59.2351 198.24C59.3551 198.353 59.4151 198.513 59.4151 198.72C59.4151 198.927 59.3551 199.09 59.2351 199.21C59.1151 199.33 58.9685 199.39 58.7951 199.39ZM64.7912 202.12C64.3179 202.12 63.9112 201.99 63.5712 201.73C63.2312 201.463 62.9679 201.083 62.7812 200.59C62.5946 200.097 62.5012 199.497 62.5012 198.79C62.5012 197.717 62.7046 196.9 63.1112 196.34C63.5246 195.78 64.0846 195.5 64.7912 195.5C65.5046 195.5 66.0646 195.78 66.4712 196.34C66.8779 196.9 67.0812 197.717 67.0812 198.79C67.0812 199.497 66.9879 200.097 66.8012 200.59C66.6212 201.083 66.3579 201.463 66.0112 201.73C65.6712 201.99 65.2646 202.12 64.7912 202.12ZM64.7912 201.46C65.0912 201.46 65.3546 201.367 65.5812 201.18C65.8079 200.987 65.9846 200.693 66.1112 200.3C66.2446 199.9 66.3112 199.397 66.3112 198.79C66.3112 198.177 66.2446 197.677 66.1112 197.29C65.9846 196.903 65.8079 196.62 65.5812 196.44C65.3546 196.253 65.0912 196.16 64.7912 196.16C64.4979 196.16 64.2346 196.253 64.0012 196.44C63.7746 196.62 63.5946 196.903 63.4612 197.29C63.3346 197.677 63.2712 198.177 63.2712 198.79C63.2712 199.397 63.3346 199.9 63.4612 200.3C63.5946 200.693 63.7746 200.987 64.0012 201.18C64.2346 201.367 64.4979 201.46 64.7912 201.46ZM64.7912 199.39C64.6246 199.39 64.4779 199.33 64.3512 199.21C64.2312 199.09 64.1712 198.927 64.1712 198.72C64.1712 198.513 64.2312 198.353 64.3512 198.24C64.4779 198.12 64.6246 198.06 64.7912 198.06C64.9646 198.06 65.1112 198.12 65.2312 198.24C65.3512 198.353 65.4112 198.513 65.4112 198.72C65.4112 198.927 65.3512 199.09 65.2312 199.21C65.1112 199.33 64.9646 199.39 64.7912 199.39Z" fill="#F7F7F7"/>
<path d="M92.4011 202.12C91.9278 202.12 91.5211 201.99 91.1811 201.73C90.8411 201.463 90.5778 201.083 90.3911 200.59C90.2044 200.097 90.1111 199.497 90.1111 198.79C90.1111 197.717 90.3144 196.9 90.7211 196.34C91.1344 195.78 91.6944 195.5 92.4011 195.5C93.1144 195.5 93.6744 195.78 94.0811 196.34C94.4878 196.9 94.6911 197.717 94.6911 198.79C94.6911 199.497 94.5978 200.097 94.4111 200.59C94.2311 201.083 93.9678 201.463 93.6211 201.73C93.2811 201.99 92.8744 202.12 92.4011 202.12ZM92.4011 201.46C92.7011 201.46 92.9644 201.367 93.1911 201.18C93.4178 200.987 93.5944 200.693 93.7211 200.3C93.8544 199.9 93.9211 199.397 93.9211 198.79C93.9211 198.177 93.8544 197.677 93.7211 197.29C93.5944 196.903 93.4178 196.62 93.1911 196.44C92.9644 196.253 92.7011 196.16 92.4011 196.16C92.1078 196.16 91.8444 196.253 91.6111 196.44C91.3844 196.62 91.2044 196.903 91.0711 197.29C90.9444 197.677 90.8811 198.177 90.8811 198.79C90.8811 199.397 90.9444 199.9 91.0711 200.3C91.2044 200.693 91.3844 200.987 91.6111 201.18C91.8444 201.367 92.1078 201.46 92.4011 201.46ZM92.4011 199.39C92.2344 199.39 92.0878 199.33 91.9611 199.21C91.8411 199.09 91.7811 198.927 91.7811 198.72C91.7811 198.513 91.8411 198.353 91.9611 198.24C92.0878 198.12 92.2344 198.06 92.4011 198.06C92.5744 198.06 92.7211 198.12 92.8411 198.24C92.9611 198.353 93.0211 198.513 93.0211 198.72C93.0211 198.927 92.9611 199.09 92.8411 199.21C92.7211 199.33 92.5744 199.39 92.4011 199.39ZM98.6072 202.12C98.2605 202.12 97.9372 202.057 97.6372 201.93C97.3439 201.803 97.0872 201.613 96.8672 201.36C96.6472 201.1 96.4739 200.78 96.3472 200.4C96.2272 200.013 96.1672 199.563 96.1672 199.05C96.1672 198.41 96.2405 197.867 96.3872 197.42C96.5339 196.967 96.7305 196.6 96.9772 196.32C97.2305 196.04 97.5172 195.833 97.8372 195.7C98.1572 195.567 98.4905 195.5 98.8372 195.5C99.2239 195.5 99.5639 195.567 99.8572 195.7C100.151 195.827 100.404 195.987 100.617 196.18L100.157 196.69C99.9972 196.537 99.8039 196.417 99.5772 196.33C99.3572 196.237 99.1272 196.19 98.8872 196.19C98.5405 196.19 98.2205 196.28 97.9272 196.46C97.6339 196.64 97.3939 196.94 97.2072 197.36C97.0272 197.773 96.9372 198.337 96.9372 199.05C96.9372 199.577 97.0005 200.02 97.1272 200.38C97.2605 200.74 97.4505 201.013 97.6972 201.2C97.9505 201.38 98.2539 201.47 98.6072 201.47C98.8605 201.47 99.0872 201.413 99.2872 201.3C99.4939 201.18 99.6572 201.017 99.7772 200.81C99.8972 200.597 99.9572 200.35 99.9572 200.07C99.9572 199.63 99.8405 199.297 99.6072 199.07C99.3739 198.837 99.0372 198.72 98.5972 198.72C98.3439 198.72 98.0705 198.79 97.7772 198.93C97.4839 199.063 97.2005 199.293 96.9272 199.62L96.8972 198.97C97.1639 198.703 97.4539 198.493 97.7672 198.34C98.0872 198.18 98.4139 198.1 98.7472 198.1C99.1405 198.1 99.4872 198.173 99.7872 198.32C100.087 198.467 100.321 198.687 100.487 198.98C100.654 199.273 100.737 199.637 100.737 200.07C100.737 200.477 100.637 200.833 100.437 201.14C100.244 201.447 99.9839 201.687 99.6572 201.86C99.3372 202.033 98.9872 202.12 98.6072 202.12ZM104.393 198.54C104.173 198.54 103.983 198.463 103.823 198.31C103.663 198.15 103.583 197.947 103.583 197.7C103.583 197.447 103.663 197.243 103.823 197.09C103.983 196.93 104.173 196.85 104.393 196.85C104.62 196.85 104.81 196.93 104.963 197.09C105.123 197.243 105.203 197.447 105.203 197.7C105.203 197.947 105.123 198.15 104.963 198.31C104.81 198.463 104.62 198.54 104.393 198.54ZM104.393 202.12C104.173 202.12 103.983 202.043 103.823 201.89C103.663 201.73 103.583 201.527 103.583 201.28C103.583 201.027 103.663 200.823 103.823 200.67C103.983 200.51 104.173 200.43 104.393 200.43C104.62 200.43 104.81 200.51 104.963 200.67C105.123 200.823 105.203 201.027 105.203 201.28C105.203 201.527 105.123 201.73 104.963 201.89C104.81 202.043 104.62 202.12 104.393 202.12ZM110.389 202.12C109.916 202.12 109.509 201.99 109.169 201.73C108.829 201.463 108.566 201.083 108.379 200.59C108.193 200.097 108.099 199.497 108.099 198.79C108.099 197.717 108.303 196.9 108.709 196.34C109.123 195.78 109.683 195.5 110.389 195.5C111.103 195.5 111.663 195.78 112.069 196.34C112.476 196.9 112.679 197.717 112.679 198.79C112.679 199.497 112.586 200.097 112.399 200.59C112.219 201.083 111.956 201.463 111.609 201.73C111.269 201.99 110.863 202.12 110.389 202.12ZM110.389 201.46C110.689 201.46 110.953 201.367 111.179 201.18C111.406 200.987 111.583 200.693 111.709 200.3C111.843 199.9 111.909 199.397 111.909 198.79C111.909 198.177 111.843 197.677 111.709 197.29C111.583 196.903 111.406 196.62 111.179 196.44C110.953 196.253 110.689 196.16 110.389 196.16C110.096 196.16 109.833 196.253 109.599 196.44C109.373 196.62 109.193 196.903 109.059 197.29C108.933 197.677 108.869 198.177 108.869 198.79C108.869 199.397 108.933 199.9 109.059 200.3C109.193 200.693 109.373 200.987 109.599 201.18C109.833 201.367 110.096 201.46 110.389 201.46ZM110.389 199.39C110.223 199.39 110.076 199.33 109.949 199.21C109.829 199.09 109.769 198.927 109.769 198.72C109.769 198.513 109.829 198.353 109.949 198.24C110.076 198.12 110.223 198.06 110.389 198.06C110.563 198.06 110.709 198.12 110.829 198.24C110.949 198.353 111.009 198.513 111.009 198.72C111.009 198.927 110.949 199.09 110.829 199.21C110.709 199.33 110.563 199.39 110.389 199.39ZM116.385 202.12C115.912 202.12 115.505 201.99 115.165 201.73C114.825 201.463 114.562 201.083 114.375 200.59C114.189 200.097 114.095 199.497 114.095 198.79C114.095 197.717 114.299 196.9 114.705 196.34C115.119 195.78 115.679 195.5 116.385 195.5C117.099 195.5 117.659 195.78 118.065 196.34C118.472 196.9 118.675 197.717 118.675 198.79C118.675 199.497 118.582 200.097 118.395 200.59C118.215 201.083 117.952 201.463 117.605 201.73C117.265 201.99 116.859 202.12 116.385 202.12ZM116.385 201.46C116.685 201.46 116.949 201.367 117.175 201.18C117.402 200.987 117.579 200.693 117.705 200.3C117.839 199.9 117.905 199.397 117.905 198.79C117.905 198.177 117.839 197.677 117.705 197.29C117.579 196.903 117.402 196.62 117.175 196.44C116.949 196.253 116.685 196.16 116.385 196.16C116.092 196.16 115.829 196.253 115.595 196.44C115.369 196.62 115.189 196.903 115.055 197.29C114.929 197.677 114.865 198.177 114.865 198.79C114.865 199.397 114.929 199.9 115.055 200.3C115.189 200.693 115.369 200.987 115.595 201.18C115.829 201.367 116.092 201.46 116.385 201.46ZM116.385 199.39C116.219 199.39 116.072 199.33 115.945 199.21C115.825 199.09 115.765 198.927 115.765 198.72C115.765 198.513 115.825 198.353 115.945 198.24C116.072 198.12 116.219 198.06 116.385 198.06C116.559 198.06 116.705 198.12 116.825 198.24C116.945 198.353 117.005 198.513 117.005 198.72C117.005 198.927 116.945 199.09 116.825 199.21C116.705 199.33 116.559 199.39 116.385 199.39Z" fill="#F7F7F7"/>
<path d="M141.965 202V201.32H143.805V196.62H142.375V196.09C142.629 196.057 142.852 196.017 143.045 195.97C143.239 195.923 143.415 195.873 143.575 195.82C143.735 195.76 143.882 195.693 144.015 195.62H144.625V201.32H146.295V202H141.965ZM147.721 202V201.51C148.441 200.877 149.048 200.32 149.541 199.84C150.041 199.353 150.421 198.917 150.681 198.53C150.941 198.143 151.071 197.773 151.071 197.42C151.071 197.053 150.958 196.753 150.731 196.52C150.505 196.287 150.155 196.17 149.681 196.17C149.381 196.17 149.101 196.243 148.841 196.39C148.588 196.537 148.358 196.72 148.151 196.94L147.681 196.47C147.968 196.177 148.275 195.943 148.601 195.77C148.935 195.59 149.328 195.5 149.781 195.5C150.208 195.5 150.575 195.58 150.881 195.74C151.195 195.893 151.435 196.11 151.601 196.39C151.775 196.67 151.861 197 151.861 197.38C151.861 197.78 151.738 198.183 151.491 198.59C151.245 198.997 150.898 199.427 150.451 199.88C150.011 200.327 149.501 200.817 148.921 201.35C149.121 201.33 149.321 201.317 149.521 201.31C149.721 201.297 149.918 201.29 150.111 201.29H152.211V202H147.721ZM155.988 198.54C155.768 198.54 155.578 198.463 155.418 198.31C155.258 198.15 155.178 197.947 155.178 197.7C155.178 197.447 155.258 197.243 155.418 197.09C155.578 196.93 155.768 196.85 155.988 196.85C156.214 196.85 156.404 196.93 156.558 197.09C156.718 197.243 156.798 197.447 156.798 197.7C156.798 197.947 156.718 198.15 156.558 198.31C156.404 198.463 156.214 198.54 155.988 198.54ZM155.988 202.12C155.768 202.12 155.578 202.043 155.418 201.89C155.258 201.73 155.178 201.527 155.178 201.28C155.178 201.027 155.258 200.823 155.418 200.67C155.578 200.51 155.768 200.43 155.988 200.43C156.214 200.43 156.404 200.51 156.558 200.67C156.718 200.823 156.798 201.027 156.798 201.28C156.798 201.527 156.718 201.73 156.558 201.89C156.404 202.043 156.214 202.12 155.988 202.12ZM161.984 202.12C161.51 202.12 161.104 201.99 160.764 201.73C160.424 201.463 160.16 201.083 159.974 200.59C159.787 200.097 159.694 199.497 159.694 198.79C159.694 197.717 159.897 196.9 160.304 196.34C160.717 195.78 161.277 195.5 161.984 195.5C162.697 195.5 163.257 195.78 163.664 196.34C164.07 196.9 164.274 197.717 164.274 198.79C164.274 199.497 164.18 200.097 163.994 200.59C163.814 201.083 163.55 201.463 163.204 201.73C162.864 201.99 162.457 202.12 161.984 202.12ZM161.984 201.46C162.284 201.46 162.547 201.367 162.774 201.18C163 200.987 163.177 200.693 163.304 200.3C163.437 199.9 163.504 199.397 163.504 198.79C163.504 198.177 163.437 197.677 163.304 197.29C163.177 196.903 163 196.62 162.774 196.44C162.547 196.253 162.284 196.16 161.984 196.16C161.69 196.16 161.427 196.253 161.194 196.44C160.967 196.62 160.787 196.903 160.654 197.29C160.527 197.677 160.464 198.177 160.464 198.79C160.464 199.397 160.527 199.9 160.654 200.3C160.787 200.693 160.967 200.987 161.194 201.18C161.427 201.367 161.69 201.46 161.984 201.46ZM161.984 199.39C161.817 199.39 161.67 199.33 161.544 199.21C161.424 199.09 161.364 198.927 161.364 198.72C161.364 198.513 161.424 198.353 161.544 198.24C161.67 198.12 161.817 198.06 161.984 198.06C162.157 198.06 162.304 198.12 162.424 198.24C162.544 198.353 162.604 198.513 162.604 198.72C162.604 198.927 162.544 199.09 162.424 199.21C162.304 199.33 162.157 199.39 161.984 199.39ZM167.98 202.12C167.506 202.12 167.1 201.99 166.76 201.73C166.42 201.463 166.156 201.083 165.97 200.59C165.783 200.097 165.69 199.497 165.69 198.79C165.69 197.717 165.893 196.9 166.3 196.34C166.713 195.78 167.273 195.5 167.98 195.5C168.693 195.5 169.253 195.78 169.66 196.34C170.066 196.9 170.27 197.717 170.27 198.79C170.27 199.497 170.176 200.097 169.99 200.59C169.81 201.083 169.546 201.463 169.2 201.73C168.86 201.99 168.453 202.12 167.98 202.12ZM167.98 201.46C168.28 201.46 168.543 201.367 168.77 201.18C168.996 200.987 169.173 200.693 169.3 200.3C169.433 199.9 169.5 199.397 169.5 198.79C169.5 198.177 169.433 197.677 169.3 197.29C169.173 196.903 168.996 196.62 168.77 196.44C168.543 196.253 168.28 196.16 167.98 196.16C167.686 196.16 167.423 196.253 167.19 196.44C166.963 196.62 166.783 196.903 166.65 197.29C166.523 197.677 166.46 198.177 166.46 198.79C166.46 199.397 166.523 199.9 166.65 200.3C166.783 200.693 166.963 200.987 167.19 201.18C167.423 201.367 167.686 201.46 167.98 201.46ZM167.98 199.39C167.813 199.39 167.666 199.33 167.54 199.21C167.42 199.09 167.36 198.927 167.36 198.72C167.36 198.513 167.42 198.353 167.54 198.24C167.666 198.12 167.813 198.06 167.98 198.06C168.153 198.06 168.3 198.12 168.42 198.24C168.54 198.353 168.6 198.513 168.6 198.72C168.6 198.927 168.54 199.09 168.42 199.21C168.3 199.33 168.153 199.39 167.98 199.39Z" fill="#F7F7F7"/>
<path d="M193.56 202V201.32H195.4V196.62H193.97V196.09C194.223 196.057 194.446 196.017 194.64 195.97C194.833 195.923 195.01 195.873 195.17 195.82C195.33 195.76 195.476 195.693 195.61 195.62H196.22V201.32H197.89V202H193.56ZM201.446 202.12C201.066 202.12 200.732 202.08 200.446 202C200.159 201.913 199.909 201.803 199.696 201.67C199.489 201.537 199.306 201.397 199.146 201.25L199.556 200.71C199.696 200.837 199.849 200.957 200.016 201.07C200.189 201.177 200.386 201.267 200.606 201.34C200.826 201.407 201.076 201.44 201.356 201.44C201.656 201.44 201.929 201.38 202.176 201.26C202.422 201.14 202.616 200.973 202.756 200.76C202.902 200.54 202.976 200.28 202.976 199.98C202.976 199.54 202.832 199.197 202.546 198.95C202.259 198.703 201.879 198.58 201.406 198.58C201.139 198.58 200.912 198.613 200.726 198.68C200.539 198.747 200.332 198.843 200.106 198.97L199.666 198.69L199.876 195.62H203.486V196.33H200.606L200.436 198.22C200.616 198.14 200.796 198.077 200.976 198.03C201.162 197.983 201.376 197.96 201.616 197.96C202.022 197.96 202.392 198.03 202.726 198.17C203.059 198.31 203.322 198.53 203.516 198.83C203.709 199.123 203.806 199.5 203.806 199.96C203.806 200.42 203.692 200.813 203.466 201.14C203.246 201.46 202.956 201.703 202.596 201.87C202.236 202.037 201.852 202.12 201.446 202.12ZM207.582 198.54C207.362 198.54 207.172 198.463 207.012 198.31C206.852 198.15 206.772 197.947 206.772 197.7C206.772 197.447 206.852 197.243 207.012 197.09C207.172 196.93 207.362 196.85 207.582 196.85C207.808 196.85 207.998 196.93 208.152 197.09C208.312 197.243 208.392 197.447 208.392 197.7C208.392 197.947 208.312 198.15 208.152 198.31C207.998 198.463 207.808 198.54 207.582 198.54ZM207.582 202.12C207.362 202.12 207.172 202.043 207.012 201.89C206.852 201.73 206.772 201.527 206.772 201.28C206.772 201.027 206.852 200.823 207.012 200.67C207.172 200.51 207.362 200.43 207.582 200.43C207.808 200.43 207.998 200.51 208.152 200.67C208.312 200.823 208.392 201.027 208.392 201.28C208.392 201.527 208.312 201.73 208.152 201.89C207.998 202.043 207.808 202.12 207.582 202.12ZM213.578 202.12C213.105 202.12 212.698 201.99 212.358 201.73C212.018 201.463 211.755 201.083 211.568 200.59C211.381 200.097 211.288 199.497 211.288 198.79C211.288 197.717 211.491 196.9 211.898 196.34C212.311 195.78 212.871 195.5 213.578 195.5C214.291 195.5 214.851 195.78 215.258 196.34C215.665 196.9 215.868 197.717 215.868 198.79C215.868 199.497 215.775 200.097 215.588 200.59C215.408 201.083 215.145 201.463 214.798 201.73C214.458 201.99 214.051 202.12 213.578 202.12ZM213.578 201.46C213.878 201.46 214.141 201.367 214.368 201.18C214.595 200.987 214.771 200.693 214.898 200.3C215.031 199.9 215.098 199.397 215.098 198.79C215.098 198.177 215.031 197.677 214.898 197.29C214.771 196.903 214.595 196.62 214.368 196.44C214.141 196.253 213.878 196.16 213.578 196.16C213.285 196.16 213.021 196.253 212.788 196.44C212.561 196.62 212.381 196.903 212.248 197.29C212.121 197.677 212.058 198.177 212.058 198.79C212.058 199.397 212.121 199.9 212.248 200.3C212.381 200.693 212.561 200.987 212.788 201.18C213.021 201.367 213.285 201.46 213.578 201.46ZM213.578 199.39C213.411 199.39 213.265 199.33 213.138 199.21C213.018 199.09 212.958 198.927 212.958 198.72C212.958 198.513 213.018 198.353 213.138 198.24C213.265 198.12 213.411 198.06 213.578 198.06C213.751 198.06 213.898 198.12 214.018 198.24C214.138 198.353 214.198 198.513 214.198 198.72C214.198 198.927 214.138 199.09 214.018 199.21C213.898 199.33 213.751 199.39 213.578 199.39ZM219.574 202.12C219.101 202.12 218.694 201.99 218.354 201.73C218.014 201.463 217.751 201.083 217.564 200.59C217.377 200.097 217.284 199.497 217.284 198.79C217.284 197.717 217.487 196.9 217.894 196.34C218.307 195.78 218.867 195.5 219.574 195.5C220.287 195.5 220.847 195.78 221.254 196.34C221.661 196.9 221.864 197.717 221.864 198.79C221.864 199.497 221.771 200.097 221.584 200.59C221.404 201.083 221.141 201.463 220.794 201.73C220.454 201.99 220.047 202.12 219.574 202.12ZM219.574 201.46C219.874 201.46 220.137 201.367 220.364 201.18C220.591 200.987 220.767 200.693 220.894 200.3C221.027 199.9 221.094 199.397 221.094 198.79C221.094 198.177 221.027 197.677 220.894 197.29C220.767 196.903 220.591 196.62 220.364 196.44C220.137 196.253 219.874 196.16 219.574 196.16C219.281 196.16 219.017 196.253 218.784 196.44C218.557 196.62 218.377 196.903 218.244 197.29C218.117 197.677 218.054 198.177 218.054 198.79C218.054 199.397 218.117 199.9 218.244 200.3C218.377 200.693 218.557 200.987 218.784 201.18C219.017 201.367 219.281 201.46 219.574 201.46ZM219.574 199.39C219.407 199.39 219.261 199.33 219.134 199.21C219.014 199.09 218.954 198.927 218.954 198.72C218.954 198.513 219.014 198.353 219.134 198.24C219.261 198.12 219.407 198.06 219.574 198.06C219.747 198.06 219.894 198.12 220.014 198.24C220.134 198.353 220.194 198.513 220.194 198.72C220.194 198.927 220.134 199.09 220.014 199.21C219.894 199.33 219.747 199.39 219.574 199.39Z" fill="#F7F7F7"/>
<path d="M245.154 202V201.32H246.994V196.62H245.564V196.09C245.817 196.057 246.04 196.017 246.234 195.97C246.427 195.923 246.604 195.873 246.764 195.82C246.924 195.76 247.07 195.693 247.204 195.62H247.814V201.32H249.484V202H245.154ZM253.2 202.12C252.72 202.12 252.303 202.047 251.95 201.9C251.603 201.747 251.333 201.537 251.14 201.27C250.953 201.003 250.86 200.703 250.86 200.37C250.86 200.077 250.927 199.823 251.06 199.61C251.193 199.39 251.363 199.207 251.57 199.06C251.783 198.907 252.003 198.777 252.23 198.67V198.63C251.963 198.457 251.733 198.25 251.54 198.01C251.353 197.763 251.26 197.473 251.26 197.14C251.26 196.813 251.343 196.527 251.51 196.28C251.683 196.033 251.917 195.843 252.21 195.71C252.51 195.57 252.85 195.5 253.23 195.5C253.85 195.5 254.333 195.66 254.68 195.98C255.033 196.293 255.21 196.7 255.21 197.2C255.21 197.5 255.113 197.783 254.92 198.05C254.733 198.31 254.507 198.533 254.24 198.72V198.76C254.473 198.88 254.683 199.01 254.87 199.15C255.063 199.29 255.213 199.46 255.32 199.66C255.433 199.86 255.49 200.113 255.49 200.42C255.49 200.733 255.4 201.02 255.22 201.28C255.047 201.533 254.79 201.737 254.45 201.89C254.11 202.043 253.693 202.12 253.2 202.12ZM253.7 198.52C254.233 198.133 254.5 197.707 254.5 197.24C254.5 197.033 254.45 196.847 254.35 196.68C254.25 196.507 254.103 196.37 253.91 196.27C253.723 196.163 253.49 196.11 253.21 196.11C252.863 196.11 252.577 196.207 252.35 196.4C252.123 196.587 252.01 196.833 252.01 197.14C252.01 197.393 252.083 197.603 252.23 197.77C252.383 197.937 252.587 198.08 252.84 198.2C253.1 198.313 253.387 198.42 253.7 198.52ZM253.22 201.51C253.693 201.51 254.057 201.407 254.31 201.2C254.57 200.993 254.7 200.723 254.7 200.39C254.7 200.17 254.647 199.987 254.54 199.84C254.44 199.687 254.3 199.56 254.12 199.46C253.94 199.353 253.727 199.257 253.48 199.17C253.24 199.083 252.98 198.993 252.7 198.9C252.493 199.013 252.307 199.137 252.14 199.27C251.973 199.403 251.843 199.553 251.75 199.72C251.657 199.887 251.61 200.077 251.61 200.29C251.61 200.523 251.673 200.733 251.8 200.92C251.933 201.1 252.12 201.243 252.36 201.35C252.607 201.457 252.893 201.51 253.22 201.51ZM259.176 198.54C258.956 198.54 258.766 198.463 258.606 198.31C258.446 198.15 258.366 197.947 258.366 197.7C258.366 197.447 258.446 197.243 258.606 197.09C258.766 196.93 258.956 196.85 259.176 196.85C259.403 196.85 259.593 196.93 259.746 197.09C259.906 197.243 259.986 197.447 259.986 197.7C259.986 197.947 259.906 198.15 259.746 198.31C259.593 198.463 259.403 198.54 259.176 198.54ZM259.176 202.12C258.956 202.12 258.766 202.043 258.606 201.89C258.446 201.73 258.366 201.527 258.366 201.28C258.366 201.027 258.446 200.823 258.606 200.67C258.766 200.51 258.956 200.43 259.176 200.43C259.403 200.43 259.593 200.51 259.746 200.67C259.906 200.823 259.986 201.027 259.986 201.28C259.986 201.527 259.906 201.73 259.746 201.89C259.593 202.043 259.403 202.12 259.176 202.12ZM265.172 202.12C264.699 202.12 264.292 201.99 263.952 201.73C263.612 201.463 263.349 201.083 263.162 200.59C262.975 200.097 262.882 199.497 262.882 198.79C262.882 197.717 263.085 196.9 263.492 196.34C263.905 195.78 264.465 195.5 265.172 195.5C265.885 195.5 266.445 195.78 266.852 196.34C267.259 196.9 267.462 197.717 267.462 198.79C267.462 199.497 267.369 200.097 267.182 200.59C267.002 201.083 266.739 201.463 266.392 201.73C266.052 201.99 265.645 202.12 265.172 202.12ZM265.172 201.46C265.472 201.46 265.735 201.367 265.962 201.18C266.189 200.987 266.365 200.693 266.492 200.3C266.625 199.9 266.692 199.397 266.692 198.79C266.692 198.177 266.625 197.677 266.492 197.29C266.365 196.903 266.189 196.62 265.962 196.44C265.735 196.253 265.472 196.16 265.172 196.16C264.879 196.16 264.615 196.253 264.382 196.44C264.155 196.62 263.975 196.903 263.842 197.29C263.715 197.677 263.652 198.177 263.652 198.79C263.652 199.397 263.715 199.9 263.842 200.3C263.975 200.693 264.155 200.987 264.382 201.18C264.615 201.367 264.879 201.46 265.172 201.46ZM265.172 199.39C265.005 199.39 264.859 199.33 264.732 199.21C264.612 199.09 264.552 198.927 264.552 198.72C264.552 198.513 264.612 198.353 264.732 198.24C264.859 198.12 265.005 198.06 265.172 198.06C265.345 198.06 265.492 198.12 265.612 198.24C265.732 198.353 265.792 198.513 265.792 198.72C265.792 198.927 265.732 199.09 265.612 199.21C265.492 199.33 265.345 199.39 265.172 199.39ZM271.168 202.12C270.695 202.12 270.288 201.99 269.948 201.73C269.608 201.463 269.345 201.083 269.158 200.59C268.972 200.097 268.878 199.497 268.878 198.79C268.878 197.717 269.082 196.9 269.488 196.34C269.902 195.78 270.462 195.5 271.168 195.5C271.882 195.5 272.442 195.78 272.848 196.34C273.255 196.9 273.458 197.717 273.458 198.79C273.458 199.497 273.365 200.097 273.178 200.59C272.998 201.083 272.735 201.463 272.388 201.73C272.048 201.99 271.642 202.12 271.168 202.12ZM271.168 201.46C271.468 201.46 271.732 201.367 271.958 201.18C272.185 200.987 272.362 200.693 272.488 200.3C272.622 199.9 272.688 199.397 272.688 198.79C272.688 198.177 272.622 197.677 272.488 197.29C272.362 196.903 272.185 196.62 271.958 196.44C271.732 196.253 271.468 196.16 271.168 196.16C270.875 196.16 270.612 196.253 270.378 196.44C270.152 196.62 269.972 196.903 269.838 197.29C269.712 197.677 269.648 198.177 269.648 198.79C269.648 199.397 269.712 199.9 269.838 200.3C269.972 200.693 270.152 200.987 270.378 201.18C270.612 201.367 270.875 201.46 271.168 201.46ZM271.168 199.39C271.002 199.39 270.855 199.33 270.728 199.21C270.608 199.09 270.548 198.927 270.548 198.72C270.548 198.513 270.608 198.353 270.728 198.24C270.855 198.12 271.002 198.06 271.168 198.06C271.342 198.06 271.488 198.12 271.608 198.24C271.728 198.353 271.788 198.513 271.788 198.72C271.788 198.927 271.728 199.09 271.608 199.21C271.488 199.33 271.342 199.39 271.168 199.39Z" fill="#F7F7F7"/>
<path d="M296.508 202V201.51C297.228 200.877 297.835 200.32 298.328 199.84C298.828 199.353 299.208 198.917 299.468 198.53C299.728 198.143 299.858 197.773 299.858 197.42C299.858 197.053 299.745 196.753 299.518 196.52C299.291 196.287 298.941 196.17 298.468 196.17C298.168 196.17 297.888 196.243 297.628 196.39C297.375 196.537 297.145 196.72 296.938 196.94L296.468 196.47C296.755 196.177 297.061 195.943 297.388 195.77C297.721 195.59 298.115 195.5 298.568 195.5C298.995 195.5 299.361 195.58 299.668 195.74C299.981 195.893 300.221 196.11 300.388 196.39C300.561 196.67 300.648 197 300.648 197.38C300.648 197.78 300.525 198.183 300.278 198.59C300.031 198.997 299.685 199.427 299.238 199.88C298.798 200.327 298.288 200.817 297.708 201.35C297.908 201.33 298.108 201.317 298.308 201.31C298.508 201.297 298.705 201.29 298.898 201.29H300.998V202H296.508ZM302.744 202V201.32H304.584V196.62H303.154V196.09C303.407 196.057 303.631 196.017 303.824 195.97C304.017 195.923 304.194 195.873 304.354 195.82C304.514 195.76 304.661 195.693 304.794 195.62H305.404V201.32H307.074V202H302.744ZM310.77 198.54C310.55 198.54 310.36 198.463 310.2 198.31C310.04 198.15 309.96 197.947 309.96 197.7C309.96 197.447 310.04 197.243 310.2 197.09C310.36 196.93 310.55 196.85 310.77 196.85C310.997 196.85 311.187 196.93 311.34 197.09C311.5 197.243 311.58 197.447 311.58 197.7C311.58 197.947 311.5 198.15 311.34 198.31C311.187 198.463 310.997 198.54 310.77 198.54ZM310.77 202.12C310.55 202.12 310.36 202.043 310.2 201.89C310.04 201.73 309.96 201.527 309.96 201.28C309.96 201.027 310.04 200.823 310.2 200.67C310.36 200.51 310.55 200.43 310.77 200.43C310.997 200.43 311.187 200.51 311.34 200.67C311.5 200.823 311.58 201.027 311.58 201.28C311.58 201.527 311.5 201.73 311.34 201.89C311.187 202.043 310.997 202.12 310.77 202.12ZM316.766 202.12C316.293 202.12 315.886 201.99 315.546 201.73C315.206 201.463 314.943 201.083 314.756 200.59C314.57 200.097 314.476 199.497 314.476 198.79C314.476 197.717 314.68 196.9 315.086 196.34C315.5 195.78 316.06 195.5 316.766 195.5C317.48 195.5 318.04 195.78 318.446 196.34C318.853 196.9 319.056 197.717 319.056 198.79C319.056 199.497 318.963 200.097 318.776 200.59C318.596 201.083 318.333 201.463 317.986 201.73C317.646 201.99 317.24 202.12 316.766 202.12ZM316.766 201.46C317.066 201.46 317.33 201.367 317.556 201.18C317.783 200.987 317.96 200.693 318.086 200.3C318.22 199.9 318.286 199.397 318.286 198.79C318.286 198.177 318.22 197.677 318.086 197.29C317.96 196.903 317.783 196.62 317.556 196.44C317.33 196.253 317.066 196.16 316.766 196.16C316.473 196.16 316.21 196.253 315.976 196.44C315.75 196.62 315.57 196.903 315.436 197.29C315.31 197.677 315.246 198.177 315.246 198.79C315.246 199.397 315.31 199.9 315.436 200.3C315.57 200.693 315.75 200.987 315.976 201.18C316.21 201.367 316.473 201.46 316.766 201.46ZM316.766 199.39C316.6 199.39 316.453 199.33 316.326 199.21C316.206 199.09 316.146 198.927 316.146 198.72C316.146 198.513 316.206 198.353 316.326 198.24C316.453 198.12 316.6 198.06 316.766 198.06C316.94 198.06 317.086 198.12 317.206 198.24C317.326 198.353 317.386 198.513 317.386 198.72C317.386 198.927 317.326 199.09 317.206 199.21C317.086 199.33 316.94 199.39 316.766 199.39ZM322.762 202.12C322.289 202.12 321.882 201.99 321.542 201.73C321.202 201.463 320.939 201.083 320.752 200.59C320.566 200.097 320.472 199.497 320.472 198.79C320.472 197.717 320.676 196.9 321.082 196.34C321.496 195.78 322.056 195.5 322.762 195.5C323.476 195.5 324.036 195.78 324.442 196.34C324.849 196.9 325.052 197.717 325.052 198.79C325.052 199.497 324.959 200.097 324.772 200.59C324.592 201.083 324.329 201.463 323.982 201.73C323.642 201.99 323.236 202.12 322.762 202.12ZM322.762 201.46C323.062 201.46 323.326 201.367 323.552 201.18C323.779 200.987 323.956 200.693 324.082 200.3C324.216 199.9 324.282 199.397 324.282 198.79C324.282 198.177 324.216 197.677 324.082 197.29C323.956 196.903 323.779 196.62 323.552 196.44C323.326 196.253 323.062 196.16 322.762 196.16C322.469 196.16 322.206 196.253 321.972 196.44C321.746 196.62 321.566 196.903 321.432 197.29C321.306 197.677 321.242 198.177 321.242 198.79C321.242 199.397 321.306 199.9 321.432 200.3C321.566 200.693 321.746 200.987 321.972 201.18C322.206 201.367 322.469 201.46 322.762 201.46ZM322.762 199.39C322.596 199.39 322.449 199.33 322.322 199.21C322.202 199.09 322.142 198.927 322.142 198.72C322.142 198.513 322.202 198.353 322.322 198.24C322.449 198.12 322.596 198.06 322.762 198.06C322.936 198.06 323.082 198.12 323.202 198.24C323.322 198.353 323.382 198.513 323.382 198.72C323.382 198.927 323.322 199.09 323.202 199.21C323.082 199.33 322.936 199.39 322.762 199.39Z" fill="#F7F7F7"/>
<path fill-rule="evenodd" clip-rule="evenodd" d="M46 103.5C46 102.119 47.1193 101 48.5 101V101C49.8807 101 51 102.119 51 103.5V122.5C51 123.881 49.8807 125 48.5 125V125C47.1193 125 46 123.881 46 122.5V103.5Z" fill="#FF5A75"/>
<rect x="82" y="66" width="5" height="30" rx="2.5" fill="#FF5A75"/>
<rect x="94" y="96" width="5" height="50" rx="2.5" fill="#FF5A75"/>
<rect x="118" y="133" width="5" height="24" rx="2.5" fill="#FF5A75"/>
<rect x="178" y="55" width="5" height="43" rx="2.5" fill="#FF5A75"/>
<path fill-rule="evenodd" clip-rule="evenodd" d="M298 66.5C298 65.1193 299.119 64 300.5 64V64C301.881 64 303 65.1193 303 66.5V95.5C303 96.8807 301.881 98 300.5 98V98C299.119 98 298 96.8807 298 95.5V66.5Z" fill="#FF5A75"/>
<path fill-rule="evenodd" clip-rule="evenodd" d="M310 100.5C310 99.1193 311.119 98 312.5 98V98C313.881 98 315 99.1193 315 100.5V119.5C315 120.881 313.881 122 312.5 122V122C311.119 122 310 120.881 310 119.5V100.5Z" fill="#FF5A75"/>
<rect x="190" y="98" width="5" height="13" rx="2.5" fill="#FF5A75"/>
<rect x="238" y="161" width="5" height="13" rx="2.5" fill="#FF5A75"/>
<path fill-rule="evenodd" clip-rule="evenodd" d="M226 92.5C226 91.1193 227.119 90 228.5 90V90C229.881 90 231 91.1193 231 92.5V158.5C231 159.881 229.881 161 228.5 161V161C227.119 161 226 159.881 226 158.5V92.5Z" fill="#FF5A75"/>
<path fill-rule="evenodd" clip-rule="evenodd" d="M202 117.5C202 118.881 203.119 120 204.5 120V120C205.881 120 207 118.881 207 117.5V113.5C207 112.119 205.881 111 204.5 111V111C203.119 111 202 112.119 202 113.5V117.5Z" fill="#FF5A75"/>
<path d="M286.366 12.872V10.664H284.254V9.416H286.366V7.208H287.662V9.416H289.774V10.664H287.662V12.872H286.366ZM294.209 14.144C293.625 14.144 293.113 13.992 292.673 13.688C292.233 13.376 291.889 12.924 291.641 12.332C291.401 11.74 291.281 11.016 291.281 10.16C291.281 8.856 291.549 7.876 292.085 7.22C292.621 6.564 293.329 6.236 294.209 6.236C295.097 6.236 295.805 6.564 296.333 7.22C296.869 7.876 297.137 8.856 297.137 10.16C297.137 11.016 297.013 11.74 296.765 12.332C296.525 12.924 296.185 13.376 295.745 13.688C295.313 13.992 294.801 14.144 294.209 14.144ZM294.209 12.776C294.465 12.776 294.693 12.696 294.893 12.536C295.101 12.376 295.265 12.104 295.385 11.72C295.505 11.336 295.565 10.816 295.565 10.16C295.565 9.496 295.505 8.98 295.385 8.612C295.265 8.236 295.101 7.976 294.893 7.832C294.693 7.68 294.465 7.604 294.209 7.604C293.961 7.604 293.733 7.68 293.525 7.832C293.317 7.976 293.153 8.236 293.033 8.612C292.913 8.98 292.853 9.496 292.853 10.16C292.853 10.816 292.913 11.336 293.033 11.72C293.153 12.104 293.317 12.376 293.525 12.536C293.733 12.696 293.961 12.776 294.209 12.776ZM294.209 11.048C293.961 11.048 293.749 10.964 293.573 10.796C293.397 10.628 293.309 10.408 293.309 10.136C293.309 9.856 293.397 9.636 293.573 9.476C293.749 9.308 293.961 9.224 294.209 9.224C294.465 9.224 294.677 9.308 294.845 9.476C295.021 9.636 295.109 9.856 295.109 10.136C295.109 10.408 295.021 10.628 294.845 10.796C294.677 10.964 294.465 11.048 294.209 11.048ZM301.405 14.144C300.997 14.144 300.661 14.008 300.397 13.736C300.141 13.464 300.013 13.132 300.013 12.74C300.013 12.348 300.141 12.016 300.397 11.744C300.661 11.464 300.997 11.324 301.405 11.324C301.821 11.324 302.157 11.464 302.413 11.744C302.669 12.016 302.797 12.348 302.797 12.74C302.797 13.132 302.669 13.464 302.413 13.736C302.157 14.008 301.821 14.144 301.405 14.144ZM308.6 14.144C308.016 14.144 307.504 13.992 307.064 13.688C306.624 13.376 306.28 12.924 306.032 12.332C305.792 11.74 305.672 11.016 305.672 10.16C305.672 8.856 305.94 7.876 306.476 7.22C307.012 6.564 307.72 6.236 308.6 6.236C309.488 6.236 310.196 6.564 310.724 7.22C311.26 7.876 311.528 8.856 311.528 10.16C311.528 11.016 311.404 11.74 311.156 12.332C310.916 12.924 310.576 13.376 310.136 13.688C309.704 13.992 309.192 14.144 308.6 14.144ZM308.6 12.776C308.856 12.776 309.084 12.696 309.284 12.536C309.492 12.376 309.656 12.104 309.776 11.72C309.896 11.336 309.956 10.816 309.956 10.16C309.956 9.496 309.896 8.98 309.776 8.612C309.656 8.236 309.492 7.976 309.284 7.832C309.084 7.68 308.856 7.604 308.6 7.604C308.352 7.604 308.124 7.68 307.916 7.832C307.708 7.976 307.544 8.236 307.424 8.612C307.304 8.98 307.244 9.496 307.244 10.16C307.244 10.816 307.304 11.336 307.424 11.72C307.544 12.104 307.708 12.376 307.916 12.536C308.124 12.696 308.352 12.776 308.6 12.776ZM308.6 11.048C308.352 11.048 308.14 10.964 307.964 10.796C307.788 10.628 307.7 10.408 307.7 10.136C307.7 9.856 307.788 9.636 307.964 9.476C308.14 9.308 308.352 9.224 308.6 9.224C308.856 9.224 309.068 9.308 309.236 9.476C309.412 9.636 309.5 9.856 309.5 10.136C309.5 10.408 309.412 10.628 309.236 10.796C309.068 10.964 308.856 11.048 308.6 11.048ZM316.287 14V9.548C316.287 9.308 316.295 9.032 316.311 8.72C316.327 8.4 316.339 8.12 316.347 7.88H316.299C316.171 8.088 316.031 8.3 315.879 8.516C315.735 8.732 315.599 8.952 315.471 9.176L314.319 10.832H318.891V12.176H312.615V10.964L315.795 6.38H317.931V14H316.287ZM321.467 10.256C321.131 10.256 320.827 10.176 320.555 10.016C320.283 9.848 320.071 9.612 319.919 9.308C319.767 8.996 319.691 8.636 319.691 8.228C319.691 7.604 319.859 7.116 320.195 6.764C320.539 6.404 320.963 6.224 321.467 6.224C321.979 6.224 322.403 6.404 322.739 6.764C323.075 7.116 323.243 7.604 323.243 8.228C323.243 8.636 323.167 8.996 323.015 9.308C322.863 9.612 322.651 9.848 322.379 10.016C322.107 10.176 321.803 10.256 321.467 10.256ZM321.467 9.308C321.619 9.308 321.751 9.232 321.863 9.08C321.983 8.92 322.043 8.636 322.043 8.228C322.043 7.82 321.983 7.544 321.863 7.4C321.751 7.248 321.619 7.172 321.467 7.172C321.323 7.172 321.191 7.248 321.071 7.4C320.951 7.544 320.891 7.82 320.891 8.228C320.891 8.636 320.951 8.92 321.071 9.08C321.191 9.232 321.323 9.308 321.467 9.308ZM320.507 13.664L319.607 12.788L321.839 10.712L322.451 11.276L320.507 13.664ZM324.167 9.476L323.555 8.9L325.499 6.512L326.399 7.388L324.167 9.476ZM324.515 14.144C324.179 14.144 323.875 14.064 323.603 13.904C323.331 13.736 323.119 13.5 322.967 13.196C322.815 12.884 322.739 12.524 322.739 12.116C322.739 11.492 322.907 11.004 323.243 10.652C323.587 10.292 324.011 10.112 324.515 10.112C325.027 10.112 325.451 10.292 325.787 10.652C326.123 11.004 326.291 11.492 326.291 12.116C326.291 12.524 326.215 12.884 326.063 13.196C325.911 13.5 325.699 13.736 325.427 13.904C325.155 14.064 324.851 14.144 324.515 14.144ZM324.515 13.196C324.667 13.196 324.799 13.12 324.911 12.968C325.031 12.808 325.091 12.524 325.091 12.116C325.091 11.708 325.031 11.432 324.911 11.288C324.799 11.136 324.667 11.06 324.515 11.06C324.371 11.06 324.239 11.136 324.119 11.288C323.999 11.432 323.939 11.708 323.939 12.116C323.939 12.524 323.999 12.808 324.119 12.968C324.239 13.12 324.371 13.196 324.515 13.196Z" fill="#22A079"/>
<path d="M0.84 16V8.176H3C3.76 8.176 4.42 8.312 4.98 8.584C5.548 8.856 5.988 9.28 6.3 9.856C6.612 10.424 6.768 11.156 6.768 12.052C6.768 12.948 6.612 13.688 6.3 14.272C5.996 14.856 5.568 15.292 5.016 15.58C4.464 15.86 3.828 16 3.108 16H0.84ZM2.616 14.572H2.904C3.32 14.572 3.68 14.492 3.984 14.332C4.288 14.172 4.524 13.908 4.692 13.54C4.868 13.172 4.956 12.676 4.956 12.052C4.956 11.428 4.868 10.94 4.692 10.588C4.524 10.228 4.288 9.976 3.984 9.832C3.68 9.68 3.32 9.604 2.904 9.604H2.616V14.572ZM7.30331 16L9.73931 8.176H11.8513L14.2873 16H12.4153L11.4073 12.04C11.3113 11.648 11.2073 11.232 11.0953 10.792C10.9833 10.352 10.8793 9.928 10.7833 9.52H10.7353C10.6393 9.928 10.5393 10.352 10.4353 10.792C10.3313 11.232 10.2273 11.648 10.1233 12.04L9.10331 16H7.30331ZM8.91131 14.14V12.76H12.6553V14.14H8.91131ZM15.2786 16V14.512H17.1026V9.664H15.2786V8.176H20.7026V9.664H18.8786V14.512H20.7026V16H15.2786ZM32.3573 16.144C31.8293 16.144 31.3053 16.048 30.7853 15.856C30.2733 15.664 29.8053 15.384 29.3813 15.016L30.4013 13.804C30.6973 14.044 31.0213 14.24 31.3733 14.392C31.7333 14.544 32.1013 14.62 32.4773 14.62C32.8533 14.62 33.1293 14.556 33.3053 14.428C33.4893 14.3 33.5813 14.136 33.5813 13.936C33.5813 13.752 33.5333 13.608 33.4373 13.504C33.3413 13.392 33.2013 13.296 33.0173 13.216C32.8333 13.128 32.6173 13.032 32.3693 12.928L31.3613 12.496C31.0733 12.384 30.8013 12.236 30.5452 12.052C30.2893 11.86 30.0813 11.628 29.9213 11.356C29.7693 11.076 29.6933 10.744 29.6933 10.36C29.6933 9.928 29.8133 9.54 30.0533 9.196C30.3013 8.844 30.6373 8.564 31.0613 8.356C31.4933 8.14 31.9933 8.032 32.5613 8.032C33.0333 8.032 33.4973 8.12 33.9533 8.296C34.4093 8.472 34.8133 8.728 35.1653 9.064L34.2653 10.18C33.9933 9.98 33.7213 9.828 33.4493 9.724C33.1773 9.612 32.8493 9.556 32.4653 9.556C32.1773 9.556 31.9413 9.616 31.7573 9.736C31.5733 9.856 31.4813 10.032 31.4813 10.264C31.4813 10.416 31.5373 10.544 31.6493 10.648C31.7613 10.752 31.9133 10.844 32.1053 10.924C32.2973 11.004 32.5173 11.092 32.7653 11.188L33.7133 11.596C34.0653 11.724 34.3653 11.884 34.6133 12.076C34.8613 12.26 35.0533 12.488 35.1893 12.76C35.3253 13.032 35.3932 13.352 35.3932 13.72C35.3932 14.152 35.2733 14.552 35.0333 14.92C34.8013 15.288 34.4573 15.584 34.0013 15.808C33.5533 16.032 33.0053 16.144 32.3573 16.144ZM40.6326 16.144C40.0006 16.144 39.4966 16.036 39.1206 15.82C38.7526 15.596 38.4846 15.288 38.3166 14.896C38.1486 14.504 38.0646 14.048 38.0646 13.528V11.428H36.5766V10.12L38.1486 10.048L38.3766 8.224H39.8286V10.048H42.3486V11.428H39.8286V13.516C39.8286 13.812 39.8726 14.052 39.9606 14.236C40.0486 14.42 40.1846 14.556 40.3686 14.644C40.5526 14.724 40.7886 14.764 41.0766 14.764C41.3086 14.764 41.5206 14.744 41.7126 14.704C41.9046 14.664 42.0886 14.612 42.2646 14.548L42.5766 15.82C42.3126 15.9 42.0206 15.972 41.7006 16.036C41.3886 16.108 41.0326 16.144 40.6326 16.144ZM45.8599 16.144C45.4599 16.144 45.1119 16.064 44.8159 15.904C44.5279 15.744 44.3039 15.528 44.1439 15.256C43.9839 14.984 43.9039 14.68 43.9039 14.344C43.9039 13.68 44.2039 13.172 44.8039 12.82C45.4119 12.468 46.4199 12.252 47.8279 12.172C47.8039 11.988 47.7439 11.832 47.6479 11.704C47.5519 11.576 47.4119 11.48 47.2279 11.416C47.0519 11.344 46.8279 11.308 46.5559 11.308C46.3639 11.308 46.1719 11.332 45.9799 11.38C45.7879 11.42 45.5879 11.484 45.3799 11.572C45.1799 11.652 44.9679 11.748 44.7439 11.86L44.1199 10.708C44.3919 10.548 44.6759 10.408 44.9719 10.288C45.2759 10.168 45.5879 10.076 45.9079 10.012C46.2359 9.94 46.5679 9.904 46.9039 9.904C47.4639 9.904 47.9439 10.004 48.3439 10.204C48.7439 10.396 49.0519 10.692 49.2679 11.092C49.4839 11.484 49.5919 11.984 49.5919 12.592V16H48.1519L48.0199 15.328H47.9719C47.6759 15.552 47.3479 15.744 46.9879 15.904C46.6279 16.064 46.2519 16.144 45.8599 16.144ZM46.4239 14.776C46.6879 14.776 46.9359 14.724 47.1679 14.62C47.3999 14.508 47.6199 14.372 47.8279 14.212V13.228C47.2439 13.26 46.7879 13.32 46.4599 13.408C46.1399 13.496 45.9159 13.608 45.7879 13.744C45.6599 13.88 45.5959 14.036 45.5959 14.212C45.5959 14.332 45.6279 14.436 45.6919 14.524C45.7639 14.612 45.8599 14.676 45.9799 14.716C46.1079 14.756 46.2559 14.776 46.4239 14.776ZM54.4232 16.144C54.1512 16.144 53.8712 16.076 53.5832 15.94C53.3032 15.804 53.0432 15.608 52.8032 15.352H52.7552L52.6112 16H51.2312V7.588H52.9952V9.652L52.9352 10.588H52.9712C53.2032 10.372 53.4592 10.204 53.7392 10.084C54.0272 9.964 54.3152 9.904 54.6032 9.904C55.1072 9.904 55.5352 10.028 55.8872 10.276C56.2472 10.524 56.5232 10.876 56.7152 11.332C56.9072 11.78 57.0032 12.308 57.0032 12.916C57.0032 13.596 56.8792 14.18 56.6312 14.668C56.3912 15.148 56.0752 15.516 55.6832 15.772C55.2912 16.02 54.8712 16.144 54.4232 16.144ZM54.0272 14.704C54.2432 14.704 54.4392 14.644 54.6152 14.524C54.7912 14.404 54.9312 14.216 55.0352 13.96C55.1392 13.696 55.1912 13.36 55.1912 12.952C55.1912 12.592 55.1512 12.296 55.0712 12.064C54.9912 11.824 54.8712 11.644 54.7112 11.524C54.5592 11.404 54.3552 11.344 54.0992 11.344C53.9072 11.344 53.7192 11.388 53.5352 11.476C53.3592 11.556 53.1792 11.696 52.9952 11.896V14.308C53.1632 14.444 53.3352 14.544 53.5112 14.608C53.6952 14.672 53.8672 14.704 54.0272 14.704ZM62.3025 16.144C61.5585 16.144 60.9945 15.92 60.6105 15.472C60.2265 15.024 60.0345 14.424 60.0345 13.672V8.98H58.1745V7.6H61.7985V13.744C61.7985 14.112 61.8985 14.368 62.0985 14.512C62.2985 14.648 62.5185 14.716 62.7585 14.716C62.9025 14.716 63.0465 14.7 63.1905 14.668C63.3425 14.636 63.5105 14.588 63.6945 14.524L64.0785 15.82C63.7745 15.916 63.4945 15.992 63.2385 16.048C62.9905 16.112 62.6785 16.144 62.3025 16.144ZM68.7178 16.144C68.1018 16.144 67.5418 16.024 67.0378 15.784C66.5418 15.536 66.1458 15.18 65.8498 14.716C65.5618 14.244 65.4178 13.68 65.4178 13.024C65.4178 12.376 65.5658 11.82 65.8618 11.356C66.1578 10.884 66.5418 10.524 67.0138 10.276C67.4858 10.028 67.9858 9.904 68.5138 9.904C69.1298 9.904 69.6458 10.032 70.0618 10.288C70.4778 10.536 70.7898 10.876 70.9978 11.308C71.2138 11.732 71.3218 12.216 71.3218 12.76C71.3218 12.92 71.3098 13.076 71.2858 13.228C71.2698 13.372 71.2538 13.48 71.2378 13.552H66.7258V12.364H70.0498L69.7738 12.7C69.7738 12.22 69.6698 11.86 69.4618 11.62C69.2618 11.372 68.9658 11.248 68.5738 11.248C68.2858 11.248 68.0338 11.312 67.8178 11.44C67.6018 11.568 67.4338 11.764 67.3138 12.028C67.1938 12.292 67.1338 12.624 67.1338 13.024C67.1338 13.432 67.2058 13.768 67.3498 14.032C67.4938 14.288 67.7018 14.48 67.9738 14.608C68.2458 14.736 68.5738 14.8 68.9578 14.8C69.2298 14.8 69.4858 14.764 69.7258 14.692C69.9738 14.62 70.2298 14.516 70.4938 14.38L71.0818 15.448C70.7378 15.664 70.3578 15.836 69.9418 15.964C69.5258 16.084 69.1178 16.144 68.7178 16.144ZM76.0691 16.144C75.4451 16.144 74.8811 16.024 74.3771 15.784C73.8811 15.536 73.4851 15.18 73.1891 14.716C72.9011 14.244 72.7571 13.68 72.7571 13.024C72.7571 12.368 72.9171 11.808 73.2371 11.344C73.5571 10.872 73.9771 10.516 74.4971 10.276C75.0251 10.028 75.5931 9.904 76.2011 9.904C76.6731 9.904 77.1011 9.98 77.4851 10.132C77.8691 10.276 78.1851 10.468 78.4331 10.708L77.6171 11.8C77.3851 11.64 77.1611 11.524 76.9451 11.452C76.7371 11.372 76.5211 11.332 76.2971 11.332C75.9611 11.332 75.6611 11.4 75.3971 11.536C75.1331 11.672 74.9291 11.868 74.7851 12.124C74.6411 12.38 74.5691 12.68 74.5691 13.024C74.5691 13.368 74.6371 13.668 74.7731 13.924C74.9171 14.18 75.1131 14.376 75.3611 14.512C75.6171 14.648 75.9091 14.716 76.2371 14.716C76.5491 14.716 76.8331 14.66 77.0891 14.548C77.3531 14.436 77.5931 14.304 77.8091 14.152L78.5171 15.268C78.1651 15.564 77.7691 15.784 77.3291 15.928C76.8971 16.072 76.4771 16.144 76.0691 16.144ZM82.7484 16.144C82.2284 16.144 81.7364 16.024 81.2724 15.784C80.8084 15.536 80.4324 15.18 80.1444 14.716C79.8564 14.244 79.7124 13.68 79.7124 13.024C79.7124 12.368 79.8564 11.808 80.1444 11.344C80.4324 10.872 80.8084 10.516 81.2724 10.276C81.7364 10.028 82.2284 9.904 82.7484 9.904C83.2684 9.904 83.7604 10.028 84.2244 10.276C84.6884 10.516 85.0644 10.872 85.3524 11.344C85.6404 11.808 85.7844 12.368 85.7844 13.024C85.7844 13.68 85.6404 14.244 85.3524 14.716C85.0644 15.18 84.6884 15.536 84.2244 15.784C83.7604 16.024 83.2684 16.144 82.7484 16.144ZM82.7484 14.716C83.0204 14.716 83.2444 14.648 83.4204 14.512C83.6044 14.376 83.7404 14.18 83.8284 13.924C83.9244 13.668 83.9724 13.368 83.9724 13.024C83.9724 12.68 83.9244 12.38 83.8284 12.124C83.7404 11.868 83.6044 11.672 83.4204 11.536C83.2444 11.4 83.0204 11.332 82.7484 11.332C82.4764 11.332 82.2484 11.4 82.0644 11.536C81.8884 11.672 81.7524 11.868 81.6564 12.124C81.5684 12.38 81.5244 12.68 81.5244 13.024C81.5244 13.368 81.5684 13.668 81.6564 13.924C81.7524 14.18 81.8884 14.376 82.0644 14.512C82.2484 14.648 82.4764 14.716 82.7484 14.716ZM89.6798 16V11.428H87.2798V10.048H91.4438V16H89.6798ZM90.4838 9.112C90.1478 9.112 89.8678 9.016 89.6438 8.824C89.4198 8.624 89.3078 8.364 89.3078 8.044C89.3078 7.716 89.4198 7.452 89.6438 7.252C89.8678 7.044 90.1478 6.94 90.4838 6.94C90.8278 6.94 91.1078 7.044 91.3238 7.252C91.5478 7.452 91.6598 7.716 91.6598 8.044C91.6598 8.364 91.5478 8.624 91.3238 8.824C91.1078 9.016 90.8278 9.112 90.4838 9.112ZM94.4031 16V10.048H95.8431L95.9751 10.84H96.0231C96.2791 10.584 96.5711 10.364 96.8991 10.18C97.2351 9.996 97.6271 9.904 98.0751 9.904C98.7471 9.904 99.2391 10.12 99.5511 10.552C99.8631 10.984 100.019 11.576 100.019 12.328V16H98.2551V12.556C98.2551 12.156 98.1871 11.864 98.0511 11.68C97.9231 11.496 97.6991 11.404 97.3791 11.404C97.1391 11.404 96.9271 11.46 96.7431 11.572C96.5671 11.676 96.3751 11.828 96.1671 12.028V16H94.4031ZM108.83 16V8.176H111.602C112.17 8.176 112.682 8.256 113.138 8.416C113.602 8.568 113.97 8.828 114.242 9.196C114.522 9.564 114.662 10.064 114.662 10.696C114.662 11.304 114.522 11.804 114.242 12.196C113.962 12.588 113.59 12.88 113.126 13.072C112.662 13.256 112.154 13.348 111.602 13.348H110.594V16H108.83ZM110.594 11.944H111.494C111.982 11.944 112.342 11.836 112.574 11.62C112.814 11.404 112.934 11.096 112.934 10.696C112.934 10.28 112.81 9.992 112.562 9.832C112.322 9.664 111.966 9.58 111.494 9.58H110.594V11.944ZM116.517 16V10.048H117.957L118.101 11.344H118.137C118.433 10.856 118.789 10.496 119.205 10.264C119.629 10.024 120.077 9.904 120.549 9.904C120.813 9.904 121.025 9.924 121.185 9.964C121.353 10.004 121.525 10.064 121.701 10.144L121.341 11.62C121.157 11.564 120.989 11.524 120.837 11.5C120.693 11.468 120.509 11.452 120.285 11.452C119.917 11.452 119.553 11.56 119.193 11.776C118.841 11.992 118.537 12.368 118.281 12.904V16H116.517ZM125.656 16V11.428H123.256V10.048H127.42V16H125.656ZM126.46 9.112C126.124 9.112 125.844 9.016 125.62 8.824C125.396 8.624 125.284 8.364 125.284 8.044C125.284 7.716 125.396 7.452 125.62 7.252C125.844 7.044 126.124 6.94 126.46 6.94C126.804 6.94 127.084 7.044 127.3 7.252C127.524 7.452 127.636 7.716 127.636 8.044C127.636 8.364 127.524 8.624 127.3 8.824C127.084 9.016 126.804 9.112 126.46 9.112ZM133.632 16.144C133.008 16.144 132.444 16.024 131.94 15.784C131.444 15.536 131.048 15.18 130.752 14.716C130.464 14.244 130.32 13.68 130.32 13.024C130.32 12.368 130.48 11.808 130.8 11.344C131.12 10.872 131.54 10.516 132.06 10.276C132.588 10.028 133.156 9.904 133.764 9.904C134.236 9.904 134.664 9.98 135.048 10.132C135.432 10.276 135.748 10.468 135.996 10.708L135.18 11.8C134.948 11.64 134.724 11.524 134.508 11.452C134.3 11.372 134.084 11.332 133.86 11.332C133.524 11.332 133.224 11.4 132.96 11.536C132.696 11.672 132.492 11.868 132.348 12.124C132.204 12.38 132.132 12.68 132.132 13.024C132.132 13.368 132.2 13.668 132.336 13.924C132.48 14.18 132.676 14.376 132.924 14.512C133.18 14.648 133.472 14.716 133.8 14.716C134.112 14.716 134.396 14.66 134.652 14.548C134.916 14.436 135.156 14.304 135.372 14.152L136.08 15.268C135.728 15.564 135.332 15.784 134.892 15.928C134.46 16.072 134.04 16.144 133.632 16.144ZM140.671 16.144C140.055 16.144 139.495 16.024 138.991 15.784C138.495 15.536 138.099 15.18 137.803 14.716C137.515 14.244 137.371 13.68 137.371 13.024C137.371 12.376 137.519 11.82 137.815 11.356C138.111 10.884 138.495 10.524 138.967 10.276C139.439 10.028 139.939 9.904 140.467 9.904C141.083 9.904 141.599 10.032 142.015 10.288C142.431 10.536 142.743 10.876 142.951 11.308C143.167 11.732 143.275 12.216 143.275 12.76C143.275 12.92 143.263 13.076 143.239 13.228C143.223 13.372 143.207 13.48 143.191 13.552H138.679V12.364H142.003L141.727 12.7C141.727 12.22 141.623 11.86 141.415 11.62C141.215 11.372 140.919 11.248 140.527 11.248C140.239 11.248 139.987 11.312 139.771 11.44C139.555 11.568 139.387 11.764 139.267 12.028C139.147 12.292 139.087 12.624 139.087 13.024C139.087 13.432 139.159 13.768 139.303 14.032C139.447 14.288 139.655 14.48 139.927 14.608C140.199 14.736 140.527 14.8 140.911 14.8C141.183 14.8 141.439 14.764 141.679 14.692C141.927 14.62 142.183 14.516 142.447 14.38L143.035 15.448C142.691 15.664 142.311 15.836 141.895 15.964C141.479 16.084 141.071 16.144 140.671 16.144ZM155.806 18.148C155.03 17.452 154.414 16.648 153.958 15.736C153.502 14.816 153.274 13.792 153.274 12.664C153.274 11.536 153.502 10.512 153.958 9.592C154.414 8.672 155.03 7.868 155.806 7.18L156.79 7.96C156.07 8.656 155.55 9.376 155.23 10.12C154.91 10.864 154.75 11.712 154.75 12.664C154.75 13.608 154.91 14.456 155.23 15.208C155.55 15.952 156.07 16.672 156.79 17.368L155.806 18.148ZM159.137 16V8.176H161.297C162.057 8.176 162.717 8.312 163.277 8.584C163.845 8.856 164.285 9.28 164.597 9.856C164.909 10.424 165.065 11.156 165.065 12.052C165.065 12.948 164.909 13.688 164.597 14.272C164.293 14.856 163.865 15.292 163.313 15.58C162.761 15.86 162.125 16 161.405 16H159.137ZM160.913 14.572H161.201C161.617 14.572 161.977 14.492 162.281 14.332C162.585 14.172 162.821 13.908 162.989 13.54C163.165 13.172 163.253 12.676 163.253 12.052C163.253 11.428 163.165 10.94 162.989 10.588C162.821 10.228 162.585 9.976 162.281 9.832C161.977 9.68 161.617 9.604 161.201 9.604H160.913V14.572ZM165.6 16L168.036 8.176H170.148L172.584 16H170.712L169.704 12.04C169.608 11.648 169.504 11.232 169.392 10.792C169.28 10.352 169.176 9.928 169.08 9.52H169.032C168.936 9.928 168.836 10.352 168.732 10.792C168.628 11.232 168.524 11.648 168.42 12.04L167.4 16H165.6ZM167.208 14.14V12.76H170.952V14.14H167.208ZM173.576 16V14.512H175.4V9.664H173.576V8.176H179V9.664H177.176V14.512H179V16H173.576ZM182.379 18.148L181.395 17.368C182.115 16.672 182.635 15.952 182.955 15.208C183.275 14.456 183.435 13.608 183.435 12.664C183.435 11.712 183.275 10.864 182.955 10.12C182.635 9.376 182.115 8.656 181.395 7.96L182.379 7.18C183.155 7.868 183.771 8.672 184.227 9.592C184.683 10.512 184.911 11.536 184.911 12.664C184.911 13.792 184.683 14.816 184.227 15.736C183.771 16.648 183.155 17.452 182.379 18.148Z" fill="white"/>
<path d="M199.073 16.192C198.295 16.192 197.612 15.9893 197.025 15.584C196.439 15.168 195.98 14.5653 195.649 13.776C195.329 12.9867 195.169 12.0213 195.169 10.88C195.169 9.14133 195.527 7.83467 196.241 6.96C196.956 6.08533 197.9 5.648 199.073 5.648C200.257 5.648 201.201 6.08533 201.905 6.96C202.62 7.83467 202.977 9.14133 202.977 10.88C202.977 12.0213 202.812 12.9867 202.481 13.776C202.161 14.5653 201.708 15.168 201.121 15.584C200.545 15.9893 199.863 16.192 199.073 16.192ZM199.073 14.368C199.415 14.368 199.719 14.2613 199.985 14.048C200.263 13.8347 200.481 13.472 200.641 12.96C200.801 12.448 200.881 11.7547 200.881 10.88C200.881 9.99467 200.801 9.30667 200.641 8.816C200.481 8.31467 200.263 7.968 199.985 7.776C199.719 7.57333 199.415 7.472 199.073 7.472C198.743 7.472 198.439 7.57333 198.161 7.776C197.884 7.968 197.665 8.31467 197.505 8.816C197.345 9.30667 197.265 9.99467 197.265 10.88C197.265 11.7547 197.345 12.448 197.505 12.96C197.665 13.472 197.884 13.8347 198.161 14.048C198.439 14.2613 198.743 14.368 199.073 14.368ZM199.073 12.064C198.743 12.064 198.46 11.952 198.225 11.728C197.991 11.504 197.873 11.2107 197.873 10.848C197.873 10.4747 197.991 10.1813 198.225 9.968C198.46 9.744 198.743 9.632 199.073 9.632C199.415 9.632 199.697 9.744 199.921 9.968C200.156 10.1813 200.273 10.4747 200.273 10.848C200.273 11.2107 200.156 11.504 199.921 11.728C199.697 11.952 199.415 12.064 199.073 12.064ZM208.667 16.192C208.123 16.192 207.675 16.0107 207.323 15.648C206.982 15.2853 206.811 14.8427 206.811 14.32C206.811 13.7973 206.982 13.3547 207.323 12.992C207.675 12.6187 208.123 12.432 208.667 12.432C209.222 12.432 209.67 12.6187 210.011 12.992C210.353 13.3547 210.523 13.7973 210.523 14.32C210.523 14.8427 210.353 15.2853 210.011 15.648C209.67 16.0107 209.222 16.192 208.667 16.192ZM217.701 16.192C216.976 16.192 216.341 16.0693 215.797 15.824C215.253 15.5787 214.805 15.296 214.453 14.976L215.701 13.568C215.914 13.76 216.181 13.9307 216.501 14.08C216.821 14.2187 217.152 14.288 217.493 14.288C217.93 14.288 218.33 14.176 218.693 13.952C219.066 13.728 219.365 13.3547 219.589 12.832C219.813 12.2987 219.925 11.584 219.925 10.688C219.925 9.84533 219.834 9.18933 219.653 8.72C219.472 8.24 219.232 7.904 218.933 7.712C218.645 7.50933 218.336 7.408 218.005 7.408C217.738 7.408 217.488 7.46667 217.253 7.584C217.018 7.70133 216.826 7.87733 216.677 8.112C216.528 8.34667 216.453 8.66133 216.453 9.056C216.453 9.568 216.592 9.94133 216.869 10.176C217.146 10.4107 217.514 10.528 217.973 10.528C218.282 10.528 218.602 10.448 218.933 10.288C219.274 10.1173 219.6 9.83467 219.909 9.44L220.021 10.976C219.648 11.3493 219.226 11.648 218.757 11.872C218.288 12.0853 217.856 12.192 217.461 12.192C216.874 12.192 216.341 12.08 215.861 11.856C215.381 11.632 215.002 11.2907 214.725 10.832C214.448 10.3627 214.309 9.77067 214.309 9.056C214.309 8.352 214.48 7.744 214.821 7.232C215.162 6.72 215.61 6.33067 216.165 6.064C216.72 5.78667 217.317 5.648 217.957 5.648C218.49 5.648 218.997 5.744 219.477 5.936C219.968 6.128 220.41 6.42667 220.805 6.832C221.2 7.23733 221.509 7.76 221.733 8.4C221.957 9.02933 222.069 9.792 222.069 10.688C222.069 11.6373 221.946 12.4587 221.701 13.152C221.466 13.8453 221.141 14.416 220.725 14.864C220.32 15.312 219.85 15.648 219.317 15.872C218.794 16.0853 218.256 16.192 217.701 16.192ZM227.295 16.192C226.569 16.192 225.935 16.0693 225.391 15.824C224.847 15.5787 224.399 15.296 224.047 14.976L225.295 13.568C225.508 13.76 225.775 13.9307 226.095 14.08C226.415 14.2187 226.745 14.288 227.087 14.288C227.524 14.288 227.924 14.176 228.287 13.952C228.66 13.728 228.959 13.3547 229.183 12.832C229.407 12.2987 229.519 11.584 229.519 10.688C229.519 9.84533 229.428 9.18933 229.247 8.72C229.065 8.24 228.825 7.904 228.527 7.712C228.239 7.50933 227.929 7.408 227.599 7.408C227.332 7.408 227.081 7.46667 226.847 7.584C226.612 7.70133 226.42 7.87733 226.271 8.112C226.121 8.34667 226.047 8.66133 226.047 9.056C226.047 9.568 226.185 9.94133 226.463 10.176C226.74 10.4107 227.108 10.528 227.567 10.528C227.876 10.528 228.196 10.448 228.527 10.288C228.868 10.1173 229.193 9.83467 229.503 9.44L229.615 10.976C229.241 11.3493 228.82 11.648 228.351 11.872C227.881 12.0853 227.449 12.192 227.055 12.192C226.468 12.192 225.935 12.08 225.455 11.856C224.975 11.632 224.596 11.2907 224.319 10.832C224.041 10.3627 223.903 9.77067 223.903 9.056C223.903 8.352 224.073 7.744 224.415 7.232C224.756 6.72 225.204 6.33067 225.759 6.064C226.313 5.78667 226.911 5.648 227.551 5.648C228.084 5.648 228.591 5.744 229.071 5.936C229.561 6.128 230.004 6.42667 230.399 6.832C230.793 7.23733 231.103 7.76 231.327 8.4C231.551 9.02933 231.663 9.792 231.663 10.688C231.663 11.6373 231.54 12.4587 231.295 13.152C231.06 13.8453 230.735 14.416 230.319 14.864C229.913 15.312 229.444 15.648 228.911 15.872C228.388 16.0853 227.849 16.192 227.295 16.192ZM237.176 16.192C236.59 16.192 236.062 16.128 235.592 16C235.123 15.872 234.707 15.7013 234.344 15.488C233.982 15.2747 233.662 15.0347 233.384 14.768L234.44 13.28C234.664 13.4613 234.899 13.632 235.144 13.792C235.39 13.9413 235.651 14.064 235.928 14.16C236.216 14.2453 236.52 14.288 236.84 14.288C237.224 14.288 237.566 14.2293 237.864 14.112C238.163 13.984 238.392 13.8027 238.552 13.568C238.723 13.3333 238.808 13.0453 238.808 12.704C238.808 12.192 238.632 11.8027 238.28 11.536C237.928 11.2693 237.486 11.136 236.952 11.136C236.622 11.136 236.339 11.1733 236.104 11.248C235.88 11.3227 235.592 11.456 235.24 11.648L234.2 10.976L234.472 5.84H240.696V7.824H236.504L236.328 9.728C236.574 9.64267 236.792 9.584 236.984 9.552C237.187 9.50933 237.416 9.488 237.672 9.488C238.302 9.488 238.878 9.6 239.4 9.824C239.934 10.048 240.36 10.3947 240.68 10.864C241 11.3333 241.16 11.9253 241.16 12.64C241.16 13.3973 240.974 14.0427 240.6 14.576C240.227 15.0987 239.736 15.4987 239.128 15.776C238.52 16.0533 237.87 16.192 237.176 16.192ZM247.314 16.192C246.792 16.192 246.285 16.096 245.794 15.904C245.304 15.712 244.861 15.4133 244.466 15.008C244.082 14.6027 243.773 14.0853 243.538 13.456C243.314 12.816 243.202 12.048 243.202 11.152C243.202 10.2027 243.325 9.38133 243.57 8.688C243.816 7.99467 244.141 7.424 244.546 6.976C244.962 6.528 245.432 6.19733 245.954 5.984C246.477 5.76 247.021 5.648 247.586 5.648C248.301 5.648 248.93 5.77067 249.474 6.016C250.029 6.25067 250.477 6.53333 250.818 6.864L249.586 8.272C249.373 8.08 249.106 7.91467 248.786 7.776C248.466 7.62667 248.136 7.552 247.794 7.552C247.357 7.552 246.952 7.664 246.578 7.888C246.216 8.112 245.922 8.49067 245.698 9.024C245.474 9.54667 245.362 10.256 245.362 11.152C245.362 11.9947 245.453 12.656 245.634 13.136C245.816 13.6053 246.05 13.9413 246.338 14.144C246.637 14.336 246.946 14.432 247.266 14.432C247.544 14.432 247.8 14.3733 248.034 14.256C248.269 14.1387 248.456 13.9627 248.594 13.728C248.744 13.4827 248.818 13.168 248.818 12.784C248.818 12.2613 248.68 11.888 248.402 11.664C248.125 11.4293 247.762 11.312 247.314 11.312C247.016 11.312 246.696 11.392 246.354 11.552C246.024 11.712 245.693 11.9947 245.362 12.4L245.266 10.864C245.64 10.4693 246.061 10.1707 246.53 9.968C247 9.75467 247.432 9.648 247.826 9.648C248.413 9.648 248.941 9.76 249.41 9.984C249.89 10.208 250.269 10.5547 250.546 11.024C250.824 11.4827 250.962 12.0693 250.962 12.784C250.962 13.488 250.792 14.096 250.45 14.608C250.12 15.12 249.677 15.5147 249.122 15.792C248.578 16.0587 247.976 16.192 247.314 16.192Z" fill="#7B61FF"/>
<g clip-path="url(#clip0_95_3998)">
<path fill-rule="evenodd" clip-rule="evenodd" d="M41 103.5C41 102.119 42.1193 101 43.5 101V101C44.8807 101 46 102.119 46 103.5V128.5C46 129.881 44.8807 131 43.5 131V131C42.1193 131 41 129.881 41 128.5V103.5Z" fill="#00A7FF"/>
<path fill-rule="evenodd" clip-rule="evenodd" d="M149 85.5C149 84.1193 150.119 83 151.5 83V83C152.881 83 154 84.1193 154 85.5V110.5C154 111.881 152.881 113 151.5 113V113C150.119 113 149 111.881 149 110.5V85.5Z" fill="#00A7FF"/>
<path fill-rule="evenodd" clip-rule="evenodd" d="M221 92.5C221 91.1193 222.119 90 223.5 90V90C224.881 90 226 91.1193 226 92.5V117.5C226 118.881 224.881 120 223.5 120V120C222.119 120 221 118.881 221 117.5V92.5Z" fill="#00A7FF"/>
<path fill-rule="evenodd" clip-rule="evenodd" d="M257 146.5C257 145.119 258.119 144 259.5 144V144C260.881 144 262 145.119 262 146.5V171.5C262 172.881 260.881 174 259.5 174V174C258.119 174 257 172.881 257 171.5V146.5Z" fill="#00A7FF"/>
<path fill-rule="evenodd" clip-rule="evenodd" d="M269 127.5C269 126.119 270.119 125 271.5 125V125C272.881 125 274 126.119 274 127.5V141.5C274 142.881 272.881 144 271.5 144V144C270.119 144 269 142.881 269 141.5V127.5Z" fill="#00A7FF"/>
<rect x="281" y="116" width="5" height="9" rx="2.5" fill="#00A7FF"/>
<path fill-rule="evenodd" clip-rule="evenodd" d="M161 80.5C161 81.8807 162.119 83 163.5 83V83C164.881 83 166 81.8807 166 80.5V76.5C166 75.1193 164.881 74 163.5 74V74C162.119 74 161 75.1193 161 76.5V80.5Z" fill="#00A7FF"/>
<path fill-rule="evenodd" clip-rule="evenodd" d="M173 71.5C173 72.8807 174.119 74 175.5 74V74C176.881 74 178 72.8807 178 71.5V57.5C178 56.1193 176.881 55 175.5 55V55C174.119 55 173 56.1193 173 57.5V71.5Z" fill="#00A7FF"/>
<rect x="65" y="116" width="5" height="9" rx="2.5" fill="#00A7FF"/>
<rect x="113" y="133" width="5" height="13" rx="2.5" fill="#00A7FF"/>
<rect x="137" y="113" width="5" height="44" rx="2.5" fill="#00A7FF"/>
<rect x="77" y="66" width="5" height="50" rx="2.5" fill="#00A7FF"/>
</g>
<defs>
<clipPath id="clip0_95_3998">
<rect width="245" height="126" fill="white" transform="translate(41 55)"/>
</clipPath>
</defs>
</svg>
