<svg width="330" height="225" viewBox="0 0 330 225" fill="none" xmlns="http://www.w3.org/2000/svg">
<path fill-rule="evenodd" clip-rule="evenodd" d="M0 163.079C0 162.231 0.53383 161.476 1.33248 161.193L30.832 150.749L65.272 143.769L118.02 131.088C118.276 131.027 118.542 131.016 118.802 131.058L140.668 134.542C140.914 134.581 141.165 134.574 141.408 134.521L162.478 129.936C162.618 129.906 162.76 129.891 162.903 129.891H171.872H188.589C188.814 129.891 189.036 129.853 189.248 129.779L243.342 110.926C244.642 110.473 246 111.438 246 112.815V177H0V163.079Z" fill="url(#paint0_linear_124_4730)"/>
<path d="M3.61172 14.144C3.04372 14.144 2.55572 13.988 2.14772 13.676C1.73972 13.356 1.42372 12.9 1.19972 12.308C0.975719 11.716 0.863719 10.996 0.863719 10.148C0.863719 8.86 1.10772 7.88 1.59572 7.208C2.09172 6.536 2.76372 6.2 3.61172 6.2C4.46772 6.2 5.13972 6.536 5.62772 7.208C6.11572 7.88 6.35972 8.86 6.35972 10.148C6.35972 10.996 6.24772 11.716 6.02372 12.308C5.80772 12.9 5.49172 13.356 5.07572 13.676C4.66772 13.988 4.17972 14.144 3.61172 14.144ZM3.61172 13.352C3.97172 13.352 4.28772 13.24 4.55972 13.016C4.83172 12.784 5.04372 12.432 5.19572 11.96C5.35572 11.48 5.43572 10.876 5.43572 10.148C5.43572 9.412 5.35572 8.812 5.19572 8.348C5.04372 7.884 4.83172 7.544 4.55972 7.328C4.28772 7.104 3.97172 6.992 3.61172 6.992C3.25972 6.992 2.94372 7.104 2.66372 7.328C2.39172 7.544 2.17572 7.884 2.01572 8.348C1.86372 8.812 1.78772 9.412 1.78772 10.148C1.78772 10.876 1.86372 11.48 2.01572 11.96C2.17572 12.432 2.39172 12.784 2.66372 13.016C2.94372 13.24 3.25972 13.352 3.61172 13.352ZM3.61172 10.868C3.41172 10.868 3.23572 10.796 3.08372 10.652C2.93972 10.508 2.86772 10.312 2.86772 10.064C2.86772 9.816 2.93972 9.624 3.08372 9.488C3.23572 9.344 3.41172 9.272 3.61172 9.272C3.81972 9.272 3.99572 9.344 4.13972 9.488C4.28372 9.624 4.35572 9.816 4.35572 10.064C4.35572 10.312 4.28372 10.508 4.13972 10.652C3.99572 10.796 3.81972 10.868 3.61172 10.868ZM8.37103 14V13.184H10.579V7.544H8.86303V6.908C9.16703 6.868 9.43503 6.82 9.66703 6.764C9.89903 6.708 10.111 6.648 10.303 6.584C10.495 6.512 10.671 6.432 10.831 6.344H11.563V13.184H13.567V14H8.37103ZM18.0023 14.144C17.7383 14.144 17.5103 14.052 17.3183 13.868C17.1263 13.676 17.0303 13.432 17.0303 13.136C17.0303 12.832 17.1263 12.588 17.3183 12.404C17.5103 12.212 17.7383 12.116 18.0023 12.116C18.2743 12.116 18.5023 12.212 18.6863 12.404C18.8783 12.588 18.9743 12.832 18.9743 13.136C18.9743 13.432 18.8783 13.676 18.6863 13.868C18.5023 14.052 18.2743 14.144 18.0023 14.144ZM22.7617 14V13.184H24.9697V7.544H23.2537V6.908C23.5577 6.868 23.8257 6.82 24.0577 6.764C24.2897 6.708 24.5017 6.648 24.6937 6.584C24.8857 6.512 25.0617 6.432 25.2217 6.344H25.9537V13.184H27.9577V14H22.7617ZM32.393 14.144C31.825 14.144 31.337 13.988 30.929 13.676C30.521 13.356 30.205 12.9 29.981 12.308C29.757 11.716 29.645 10.996 29.645 10.148C29.645 8.86 29.889 7.88 30.377 7.208C30.873 6.536 31.545 6.2 32.393 6.2C33.249 6.2 33.921 6.536 34.409 7.208C34.897 7.88 35.141 8.86 35.141 10.148C35.141 10.996 35.029 11.716 34.805 12.308C34.589 12.9 34.273 13.356 33.857 13.676C33.449 13.988 32.961 14.144 32.393 14.144ZM32.393 13.352C32.753 13.352 33.069 13.24 33.341 13.016C33.613 12.784 33.825 12.432 33.977 11.96C34.137 11.48 34.217 10.876 34.217 10.148C34.217 9.412 34.137 8.812 33.977 8.348C33.825 7.884 33.613 7.544 33.341 7.328C33.069 7.104 32.753 6.992 32.393 6.992C32.041 6.992 31.725 7.104 31.445 7.328C31.173 7.544 30.957 7.884 30.797 8.348C30.645 8.812 30.569 9.412 30.569 10.148C30.569 10.876 30.645 11.48 30.797 11.96C30.957 12.432 31.173 12.784 31.445 13.016C31.725 13.24 32.041 13.352 32.393 13.352ZM32.393 10.868C32.193 10.868 32.017 10.796 31.865 10.652C31.721 10.508 31.649 10.312 31.649 10.064C31.649 9.816 31.721 9.624 31.865 9.488C32.017 9.344 32.193 9.272 32.393 9.272C32.601 9.272 32.777 9.344 32.921 9.488C33.065 9.624 33.137 9.816 33.137 10.064C33.137 10.312 33.065 10.508 32.921 10.652C32.777 10.796 32.601 10.868 32.393 10.868Z" fill="#F7F7F7"/>
<path d="M76.6117 14.144C76.0437 14.144 75.5557 13.988 75.1477 13.676C74.7397 13.356 74.4237 12.9 74.1997 12.308C73.9757 11.716 73.8637 10.996 73.8637 10.148C73.8637 8.86 74.1077 7.88 74.5957 7.208C75.0917 6.536 75.7637 6.2 76.6117 6.2C77.4677 6.2 78.1397 6.536 78.6277 7.208C79.1157 7.88 79.3597 8.86 79.3597 10.148C79.3597 10.996 79.2477 11.716 79.0237 12.308C78.8077 12.9 78.4917 13.356 78.0757 13.676C77.6677 13.988 77.1797 14.144 76.6117 14.144ZM76.6117 13.352C76.9717 13.352 77.2877 13.24 77.5597 13.016C77.8317 12.784 78.0437 12.432 78.1957 11.96C78.3557 11.48 78.4357 10.876 78.4357 10.148C78.4357 9.412 78.3557 8.812 78.1957 8.348C78.0437 7.884 77.8317 7.544 77.5597 7.328C77.2877 7.104 76.9717 6.992 76.6117 6.992C76.2597 6.992 75.9437 7.104 75.6637 7.328C75.3917 7.544 75.1757 7.884 75.0157 8.348C74.8637 8.812 74.7877 9.412 74.7877 10.148C74.7877 10.876 74.8637 11.48 75.0157 11.96C75.1757 12.432 75.3917 12.784 75.6637 13.016C75.9437 13.24 76.2597 13.352 76.6117 13.352ZM76.6117 10.868C76.4117 10.868 76.2357 10.796 76.0837 10.652C75.9397 10.508 75.8677 10.312 75.8677 10.064C75.8677 9.816 75.9397 9.624 76.0837 9.488C76.2357 9.344 76.4117 9.272 76.6117 9.272C76.8197 9.272 76.9957 9.344 77.1397 9.488C77.2837 9.624 77.3557 9.816 77.3557 10.064C77.3557 10.312 77.2837 10.508 77.1397 10.652C76.9957 10.796 76.8197 10.868 76.6117 10.868ZM82.919 14C82.951 13.272 83.019 12.608 83.123 12.008C83.227 11.408 83.379 10.844 83.579 10.316C83.779 9.78 84.035 9.26 84.347 8.756C84.659 8.252 85.031 7.732 85.463 7.196H81.047V6.344H86.591V6.956C86.079 7.532 85.659 8.084 85.331 8.612C85.003 9.14 84.743 9.676 84.551 10.22C84.359 10.764 84.215 11.344 84.119 11.96C84.031 12.568 83.975 13.248 83.951 14H82.919ZM91.0023 14.144C90.7383 14.144 90.5103 14.052 90.3183 13.868C90.1263 13.676 90.0303 13.432 90.0303 13.136C90.0303 12.832 90.1263 12.588 90.3183 12.404C90.5103 12.212 90.7383 12.116 91.0023 12.116C91.2743 12.116 91.5023 12.212 91.6863 12.404C91.8783 12.588 91.9743 12.832 91.9743 13.136C91.9743 13.432 91.8783 13.676 91.6863 13.868C91.5023 14.052 91.2743 14.144 91.0023 14.144ZM95.7617 14V13.184H97.9697V7.544H96.2537V6.908C96.5577 6.868 96.8257 6.82 97.0577 6.764C97.2897 6.708 97.5017 6.648 97.6937 6.584C97.8857 6.512 98.0617 6.432 98.2217 6.344H98.9537V13.184H100.958V14H95.7617ZM105.393 14.144C104.825 14.144 104.337 13.988 103.929 13.676C103.521 13.356 103.205 12.9 102.981 12.308C102.757 11.716 102.645 10.996 102.645 10.148C102.645 8.86 102.889 7.88 103.377 7.208C103.873 6.536 104.545 6.2 105.393 6.2C106.249 6.2 106.921 6.536 107.409 7.208C107.897 7.88 108.141 8.86 108.141 10.148C108.141 10.996 108.029 11.716 107.805 12.308C107.589 12.9 107.273 13.356 106.857 13.676C106.449 13.988 105.961 14.144 105.393 14.144ZM105.393 13.352C105.753 13.352 106.069 13.24 106.341 13.016C106.613 12.784 106.825 12.432 106.977 11.96C107.137 11.48 107.217 10.876 107.217 10.148C107.217 9.412 107.137 8.812 106.977 8.348C106.825 7.884 106.613 7.544 106.341 7.328C106.069 7.104 105.753 6.992 105.393 6.992C105.041 6.992 104.725 7.104 104.445 7.328C104.173 7.544 103.957 7.884 103.797 8.348C103.645 8.812 103.569 9.412 103.569 10.148C103.569 10.876 103.645 11.48 103.797 11.96C103.957 12.432 104.173 12.784 104.445 13.016C104.725 13.24 105.041 13.352 105.393 13.352ZM105.393 10.868C105.193 10.868 105.017 10.796 104.865 10.652C104.721 10.508 104.649 10.312 104.649 10.064C104.649 9.816 104.721 9.624 104.865 9.488C105.017 9.344 105.193 9.272 105.393 9.272C105.601 9.272 105.777 9.344 105.921 9.488C106.065 9.624 106.137 9.816 106.137 10.064C106.137 10.312 106.065 10.508 105.921 10.652C105.777 10.796 105.601 10.868 105.393 10.868Z" fill="#F7F7F7"/>
<path d="M147.176 14V13.184H149.384V7.544H147.668V6.908C147.972 6.868 148.24 6.82 148.472 6.764C148.704 6.708 148.916 6.648 149.108 6.584C149.3 6.512 149.476 6.432 149.636 6.344H150.368V13.184H152.372V14H147.176ZM157.623 14V8.72C157.631 8.512 157.639 8.288 157.647 8.048C157.663 7.8 157.675 7.572 157.683 7.364H157.623C157.503 7.548 157.375 7.736 157.239 7.928C157.103 8.112 156.971 8.296 156.843 8.48L154.767 11.096H159.747V11.888H153.675V11.228L157.503 6.344H158.559V14H157.623ZM164.002 14.144C163.738 14.144 163.51 14.052 163.318 13.868C163.126 13.676 163.03 13.432 163.03 13.136C163.03 12.832 163.126 12.588 163.318 12.404C163.51 12.212 163.738 12.116 164.002 12.116C164.274 12.116 164.502 12.212 164.686 12.404C164.878 12.588 164.974 12.832 164.974 13.136C164.974 13.432 164.878 13.676 164.686 13.868C164.502 14.052 164.274 14.144 164.002 14.144ZM168.762 14V13.184H170.97V7.544H169.254V6.908C169.558 6.868 169.826 6.82 170.058 6.764C170.29 6.708 170.502 6.648 170.694 6.584C170.886 6.512 171.062 6.432 171.222 6.344H171.954V13.184H173.958V14H168.762ZM178.393 14.144C177.825 14.144 177.337 13.988 176.929 13.676C176.521 13.356 176.205 12.9 175.981 12.308C175.757 11.716 175.645 10.996 175.645 10.148C175.645 8.86 175.889 7.88 176.377 7.208C176.873 6.536 177.545 6.2 178.393 6.2C179.249 6.2 179.921 6.536 180.409 7.208C180.897 7.88 181.141 8.86 181.141 10.148C181.141 10.996 181.029 11.716 180.805 12.308C180.589 12.9 180.273 13.356 179.857 13.676C179.449 13.988 178.961 14.144 178.393 14.144ZM178.393 13.352C178.753 13.352 179.069 13.24 179.341 13.016C179.613 12.784 179.825 12.432 179.977 11.96C180.137 11.48 180.217 10.876 180.217 10.148C180.217 9.412 180.137 8.812 179.977 8.348C179.825 7.884 179.613 7.544 179.341 7.328C179.069 7.104 178.753 6.992 178.393 6.992C178.041 6.992 177.725 7.104 177.445 7.328C177.173 7.544 176.957 7.884 176.797 8.348C176.645 8.812 176.569 9.412 176.569 10.148C176.569 10.876 176.645 11.48 176.797 11.96C176.957 12.432 177.173 12.784 177.445 13.016C177.725 13.24 178.041 13.352 178.393 13.352ZM178.393 10.868C178.193 10.868 178.017 10.796 177.865 10.652C177.721 10.508 177.649 10.312 177.649 10.064C177.649 9.816 177.721 9.624 177.865 9.488C178.017 9.344 178.193 9.272 178.393 9.272C178.601 9.272 178.777 9.344 178.921 9.488C179.065 9.624 179.137 9.816 179.137 10.064C179.137 10.312 179.065 10.508 178.921 10.652C178.777 10.796 178.601 10.868 178.393 10.868Z" fill="#F7F7F7"/>
<path d="M219.888 14V13.412C220.752 12.652 221.48 11.984 222.072 11.408C222.672 10.824 223.128 10.3 223.44 9.836C223.752 9.372 223.908 8.928 223.908 8.504C223.908 8.064 223.772 7.704 223.5 7.424C223.228 7.144 222.808 7.004 222.24 7.004C221.88 7.004 221.544 7.092 221.232 7.268C220.928 7.444 220.652 7.664 220.404 7.928L219.84 7.364C220.184 7.012 220.552 6.732 220.944 6.524C221.344 6.308 221.816 6.2 222.36 6.2C222.872 6.2 223.312 6.296 223.68 6.488C224.056 6.672 224.344 6.932 224.544 7.268C224.752 7.604 224.856 8 224.856 8.456C224.856 8.936 224.708 9.42 224.412 9.908C224.116 10.396 223.7 10.912 223.164 11.456C222.636 11.992 222.024 12.58 221.328 13.22C221.568 13.196 221.808 13.18 222.048 13.172C222.288 13.156 222.524 13.148 222.756 13.148H225.276V14H219.888ZM227.371 14V13.184H229.579V7.544H227.863V6.908C228.167 6.868 228.435 6.82 228.667 6.764C228.899 6.708 229.111 6.648 229.303 6.584C229.495 6.512 229.671 6.432 229.831 6.344H230.563V13.184H232.567V14H227.371ZM237.002 14.144C236.738 14.144 236.51 14.052 236.318 13.868C236.126 13.676 236.03 13.432 236.03 13.136C236.03 12.832 236.126 12.588 236.318 12.404C236.51 12.212 236.738 12.116 237.002 12.116C237.274 12.116 237.502 12.212 237.686 12.404C237.878 12.588 237.974 12.832 237.974 13.136C237.974 13.432 237.878 13.676 237.686 13.868C237.502 14.052 237.274 14.144 237.002 14.144ZM241.762 14V13.184H243.97V7.544H242.254V6.908C242.558 6.868 242.826 6.82 243.058 6.764C243.29 6.708 243.502 6.648 243.694 6.584C243.886 6.512 244.062 6.432 244.222 6.344H244.954V13.184H246.958V14H241.762ZM251.393 14.144C250.825 14.144 250.337 13.988 249.929 13.676C249.521 13.356 249.205 12.9 248.981 12.308C248.757 11.716 248.645 10.996 248.645 10.148C248.645 8.86 248.889 7.88 249.377 7.208C249.873 6.536 250.545 6.2 251.393 6.2C252.249 6.2 252.921 6.536 253.409 7.208C253.897 7.88 254.141 8.86 254.141 10.148C254.141 10.996 254.029 11.716 253.805 12.308C253.589 12.9 253.273 13.356 252.857 13.676C252.449 13.988 251.961 14.144 251.393 14.144ZM251.393 13.352C251.753 13.352 252.069 13.24 252.341 13.016C252.613 12.784 252.825 12.432 252.977 11.96C253.137 11.48 253.217 10.876 253.217 10.148C253.217 9.412 253.137 8.812 252.977 8.348C252.825 7.884 252.613 7.544 252.341 7.328C252.069 7.104 251.753 6.992 251.393 6.992C251.041 6.992 250.725 7.104 250.445 7.328C250.173 7.544 249.957 7.884 249.797 8.348C249.645 8.812 249.569 9.412 249.569 10.148C249.569 10.876 249.645 11.48 249.797 11.96C249.957 12.432 250.173 12.784 250.445 13.016C250.725 13.24 251.041 13.352 251.393 13.352ZM251.393 10.868C251.193 10.868 251.017 10.796 250.865 10.652C250.721 10.508 250.649 10.312 250.649 10.064C250.649 9.816 250.721 9.624 250.865 9.488C251.017 9.344 251.193 9.272 251.393 9.272C251.601 9.272 251.777 9.344 251.921 9.488C252.065 9.624 252.137 9.816 252.137 10.064C252.137 10.312 252.065 10.508 251.921 10.652C251.777 10.796 251.601 10.868 251.393 10.868Z" fill="#F7F7F7"/>
<path d="M291.888 14V13.412C292.752 12.652 293.48 11.984 294.072 11.408C294.672 10.824 295.128 10.3 295.44 9.836C295.752 9.372 295.908 8.928 295.908 8.504C295.908 8.064 295.772 7.704 295.5 7.424C295.228 7.144 294.808 7.004 294.24 7.004C293.88 7.004 293.544 7.092 293.232 7.268C292.928 7.444 292.652 7.664 292.404 7.928L291.84 7.364C292.184 7.012 292.552 6.732 292.944 6.524C293.344 6.308 293.816 6.2 294.36 6.2C294.872 6.2 295.312 6.296 295.68 6.488C296.056 6.672 296.344 6.932 296.544 7.268C296.752 7.604 296.856 8 296.856 8.456C296.856 8.936 296.708 9.42 296.412 9.908C296.116 10.396 295.7 10.912 295.164 11.456C294.636 11.992 294.024 12.58 293.328 13.22C293.568 13.196 293.808 13.18 294.048 13.172C294.288 13.156 294.524 13.148 294.756 13.148H297.276V14H291.888ZM301.831 14.144C301.255 14.144 300.755 14.056 300.331 13.88C299.915 13.696 299.591 13.444 299.359 13.124C299.135 12.804 299.023 12.444 299.023 12.044C299.023 11.692 299.103 11.388 299.263 11.132C299.423 10.868 299.627 10.648 299.875 10.472C300.131 10.288 300.395 10.132 300.667 10.004V9.956C300.347 9.748 300.071 9.5 299.839 9.212C299.615 8.916 299.503 8.568 299.503 8.168C299.503 7.776 299.603 7.432 299.803 7.136C300.011 6.84 300.291 6.612 300.643 6.452C301.003 6.284 301.411 6.2 301.867 6.2C302.611 6.2 303.191 6.392 303.607 6.776C304.031 7.152 304.243 7.64 304.243 8.24C304.243 8.6 304.127 8.94 303.895 9.26C303.671 9.572 303.399 9.84 303.079 10.064V10.112C303.359 10.256 303.611 10.412 303.835 10.58C304.067 10.748 304.247 10.952 304.375 11.192C304.511 11.432 304.579 11.736 304.579 12.104C304.579 12.48 304.471 12.824 304.255 13.136C304.047 13.44 303.739 13.684 303.331 13.868C302.923 14.052 302.423 14.144 301.831 14.144ZM302.431 9.824C303.071 9.36 303.391 8.848 303.391 8.288C303.391 8.04 303.331 7.816 303.211 7.616C303.091 7.408 302.915 7.244 302.683 7.124C302.459 6.996 302.179 6.932 301.843 6.932C301.427 6.932 301.083 7.048 300.811 7.28C300.539 7.504 300.403 7.8 300.403 8.168C300.403 8.472 300.491 8.724 300.667 8.924C300.851 9.124 301.095 9.296 301.399 9.44C301.711 9.576 302.055 9.704 302.431 9.824ZM301.855 13.412C302.423 13.412 302.859 13.288 303.163 13.04C303.475 12.792 303.631 12.468 303.631 12.068C303.631 11.804 303.567 11.584 303.439 11.408C303.319 11.224 303.151 11.072 302.935 10.952C302.719 10.824 302.463 10.708 302.167 10.604C301.879 10.5 301.567 10.392 301.231 10.28C300.983 10.416 300.759 10.564 300.559 10.724C300.359 10.884 300.203 11.064 300.091 11.264C299.979 11.464 299.923 11.692 299.923 11.948C299.923 12.228 299.999 12.48 300.151 12.704C300.311 12.92 300.535 13.092 300.823 13.22C301.119 13.348 301.463 13.412 301.855 13.412ZM309.002 14.144C308.738 14.144 308.51 14.052 308.318 13.868C308.126 13.676 308.03 13.432 308.03 13.136C308.03 12.832 308.126 12.588 308.318 12.404C308.51 12.212 308.738 12.116 309.002 12.116C309.274 12.116 309.502 12.212 309.686 12.404C309.878 12.588 309.974 12.832 309.974 13.136C309.974 13.432 309.878 13.676 309.686 13.868C309.502 14.052 309.274 14.144 309.002 14.144ZM313.762 14V13.184H315.97V7.544H314.254V6.908C314.558 6.868 314.826 6.82 315.058 6.764C315.29 6.708 315.502 6.648 315.694 6.584C315.886 6.512 316.062 6.432 316.222 6.344H316.954V13.184H318.958V14H313.762ZM323.393 14.144C322.825 14.144 322.337 13.988 321.929 13.676C321.521 13.356 321.205 12.9 320.981 12.308C320.757 11.716 320.645 10.996 320.645 10.148C320.645 8.86 320.889 7.88 321.377 7.208C321.873 6.536 322.545 6.2 323.393 6.2C324.249 6.2 324.921 6.536 325.409 7.208C325.897 7.88 326.141 8.86 326.141 10.148C326.141 10.996 326.029 11.716 325.805 12.308C325.589 12.9 325.273 13.356 324.857 13.676C324.449 13.988 323.961 14.144 323.393 14.144ZM323.393 13.352C323.753 13.352 324.069 13.24 324.341 13.016C324.613 12.784 324.825 12.432 324.977 11.96C325.137 11.48 325.217 10.876 325.217 10.148C325.217 9.412 325.137 8.812 324.977 8.348C324.825 7.884 324.613 7.544 324.341 7.328C324.069 7.104 323.753 6.992 323.393 6.992C323.041 6.992 322.725 7.104 322.445 7.328C322.173 7.544 321.957 7.884 321.797 8.348C321.645 8.812 321.569 9.412 321.569 10.148C321.569 10.876 321.645 11.48 321.797 11.96C321.957 12.432 322.173 12.784 322.445 13.016C322.725 13.24 323.041 13.352 323.393 13.352ZM323.393 10.868C323.193 10.868 323.017 10.796 322.865 10.652C322.721 10.508 322.649 10.312 322.649 10.064C322.649 9.816 322.721 9.624 322.865 9.488C323.017 9.344 323.193 9.272 323.393 9.272C323.601 9.272 323.777 9.344 323.921 9.488C324.065 9.624 324.137 9.816 324.137 10.064C324.137 10.312 324.065 10.508 323.921 10.652C323.777 10.796 323.601 10.868 323.393 10.868Z" fill="#F7F7F7"/>
<g clip-path="url(#clip0_124_4730)">
<g clip-path="url(#clip1_124_4730)">
<rect y="193" width="48" height="32" rx="8" fill="#1E1F20" fill-opacity="0.08"/>
</g>
<path d="M6.95972 213V211.572H9.01172V207.168H7.31972V206.076C7.66372 206.02 7.95972 205.964 8.20772 205.908C8.46372 205.844 8.69172 205.772 8.89172 205.692C9.09172 205.604 9.28772 205.5 9.47972 205.38H10.7757V211.572H12.5037V213H6.95972ZM16.807 213.144C16.223 213.144 15.711 212.992 15.271 212.688C14.831 212.376 14.487 211.924 14.239 211.332C13.999 210.74 13.879 210.016 13.879 209.16C13.879 207.856 14.147 206.876 14.683 206.22C15.219 205.564 15.927 205.236 16.807 205.236C17.695 205.236 18.403 205.564 18.931 206.22C19.467 206.876 19.735 207.856 19.735 209.16C19.735 210.016 19.611 210.74 19.363 211.332C19.123 211.924 18.783 212.376 18.343 212.688C17.911 212.992 17.399 213.144 16.807 213.144ZM16.807 211.776C17.063 211.776 17.291 211.696 17.491 211.536C17.699 211.376 17.863 211.104 17.983 210.72C18.103 210.336 18.163 209.816 18.163 209.16C18.163 208.496 18.103 207.98 17.983 207.612C17.863 207.236 17.699 206.976 17.491 206.832C17.291 206.68 17.063 206.604 16.807 206.604C16.559 206.604 16.331 206.68 16.123 206.832C15.915 206.976 15.751 207.236 15.631 207.612C15.511 207.98 15.451 208.496 15.451 209.16C15.451 209.816 15.511 210.336 15.631 210.72C15.751 211.104 15.915 211.376 16.123 211.536C16.331 211.696 16.559 211.776 16.807 211.776ZM16.807 210.048C16.559 210.048 16.347 209.964 16.171 209.796C15.995 209.628 15.907 209.408 15.907 209.136C15.907 208.856 15.995 208.636 16.171 208.476C16.347 208.308 16.559 208.224 16.807 208.224C17.063 208.224 17.275 208.308 17.443 208.476C17.619 208.636 17.707 208.856 17.707 209.136C17.707 209.408 17.619 209.628 17.443 209.796C17.275 209.964 17.063 210.048 16.807 210.048ZM21.0983 213V205.176H22.9463L23.7143 207.948L23.9783 209.028H24.0263L24.2903 207.948L25.0583 205.176H26.9063V213H25.4183V210.576C25.4183 210.36 25.4263 210.092 25.4423 209.772C25.4583 209.444 25.4783 209.104 25.5023 208.752C25.5263 208.4 25.5503 208.064 25.5743 207.744C25.6063 207.424 25.6303 207.16 25.6463 206.952H25.6103L25.0103 209.04L24.4103 210.924H23.5463L22.9343 209.04L22.3703 206.952H22.3343C22.3503 207.16 22.3703 207.424 22.3943 207.744C22.4263 208.064 22.4543 208.4 22.4783 208.752C22.5023 209.104 22.5223 209.444 22.5383 209.772C22.5543 210.092 22.5623 210.36 22.5623 210.576V213H21.0983ZM30.9337 213V208.428H28.5337V207.048H32.6977V213H30.9337ZM31.7377 206.112C31.4017 206.112 31.1217 206.016 30.8977 205.824C30.6737 205.624 30.5617 205.364 30.5617 205.044C30.5617 204.716 30.6737 204.452 30.8977 204.252C31.1217 204.044 31.4017 203.94 31.7377 203.94C32.0817 203.94 32.3617 204.044 32.5777 204.252C32.8017 204.452 32.9137 204.716 32.9137 205.044C32.9137 205.364 32.8017 205.624 32.5777 205.824C32.3617 206.016 32.0817 206.112 31.7377 206.112ZM35.657 213V207.048H37.097L37.229 207.84H37.277C37.533 207.584 37.825 207.364 38.153 207.18C38.489 206.996 38.881 206.904 39.329 206.904C40.001 206.904 40.493 207.12 40.805 207.552C41.117 207.984 41.273 208.576 41.273 209.328V213H39.509V209.556C39.509 209.156 39.441 208.864 39.305 208.68C39.177 208.496 38.953 208.404 38.633 208.404C38.393 208.404 38.181 208.46 37.997 208.572C37.821 208.676 37.629 208.828 37.421 209.028V213H35.657Z" fill="#F7F7F7"/>
</g>
<g clip-path="url(#clip2_124_4730)">
<g clip-path="url(#clip3_124_4730)">
<rect x="112" y="193" width="48" height="32" rx="8" fill="#1E1F20" fill-opacity="0.08"/>
</g>
<path d="M125.903 213V211.992C126.631 211.376 127.267 210.82 127.811 210.324C128.363 209.82 128.791 209.36 129.095 208.944C129.399 208.52 129.551 208.128 129.551 207.768C129.551 207.392 129.439 207.108 129.215 206.916C128.999 206.716 128.695 206.616 128.303 206.616C127.999 206.616 127.719 206.696 127.463 206.856C127.215 207.008 126.983 207.188 126.767 207.396L125.819 206.448C126.211 206.04 126.615 205.736 127.031 205.536C127.455 205.336 127.959 205.236 128.543 205.236C129.071 205.236 129.535 205.336 129.935 205.536C130.343 205.736 130.659 206.02 130.883 206.388C131.115 206.748 131.231 207.172 131.231 207.66C131.231 208.092 131.099 208.528 130.835 208.968C130.579 209.408 130.235 209.852 129.803 210.3C129.379 210.74 128.923 211.176 128.435 211.608C128.651 211.584 128.887 211.564 129.143 211.548C129.399 211.524 129.623 211.512 129.815 211.512H131.627V213H125.903ZM136.494 213V208.548C136.494 208.308 136.502 208.032 136.518 207.72C136.534 207.4 136.546 207.12 136.554 206.88H136.506C136.378 207.088 136.238 207.3 136.086 207.516C135.942 207.732 135.806 207.952 135.678 208.176L134.526 209.832H139.098V211.176H132.822V209.964L136.002 205.38H138.138V213H136.494ZM140.462 213V204.588H142.226V206.652L142.13 207.792H142.166C142.39 207.56 142.662 207.356 142.982 207.18C143.31 206.996 143.698 206.904 144.146 206.904C144.818 206.904 145.306 207.12 145.61 207.552C145.922 207.984 146.078 208.576 146.078 209.328V213H144.314V209.556C144.314 209.156 144.246 208.864 144.11 208.68C143.982 208.496 143.758 208.404 143.438 208.404C143.198 208.404 142.986 208.46 142.802 208.572C142.626 208.676 142.434 208.828 142.226 209.028V213H140.462Z" fill="#F7F7F7"/>
</g>
<g clip-path="url(#clip4_124_4730)">
<g clip-path="url(#clip5_124_4730)">
<rect x="56" y="193" width="48" height="32" rx="8" fill="#1E1F20" fill-opacity="0.08"/>
</g>
<path d="M73.7527 213V211.572H75.8047V207.168H74.1127V206.076C74.4567 206.02 74.7527 205.964 75.0007 205.908C75.2567 205.844 75.4847 205.772 75.6847 205.692C75.8847 205.604 76.0807 205.5 76.2727 205.38H77.5687V211.572H79.2967V213H73.7527ZM80.864 213V204.588H82.628V206.652L82.532 207.792H82.568C82.792 207.56 83.064 207.356 83.384 207.18C83.712 206.996 84.1 206.904 84.548 206.904C85.22 206.904 85.708 207.12 86.012 207.552C86.324 207.984 86.48 208.576 86.48 209.328V213H84.716V209.556C84.716 209.156 84.648 208.864 84.512 208.68C84.384 208.496 84.16 208.404 83.84 208.404C83.6 208.404 83.388 208.46 83.204 208.572C83.028 208.676 82.836 208.828 82.628 209.028V213H80.864Z" fill="#F7F7F7"/>
</g>
<g clip-path="url(#clip6_124_4730)">
<g clip-path="url(#clip7_124_4730)">
<rect x="224" y="193" width="48" height="32" rx="8" fill="#1E1F20" fill-opacity="0.08"/>
</g>
<path d="M244.153 213.144C243.721 213.144 243.325 213.096 242.965 213C242.613 212.912 242.297 212.788 242.017 212.628C241.737 212.468 241.501 212.28 241.309 212.064L242.125 210.948C242.381 211.172 242.669 211.356 242.989 211.5C243.309 211.644 243.641 211.716 243.985 211.716C244.257 211.716 244.501 211.684 244.717 211.62C244.933 211.548 245.101 211.444 245.221 211.308C245.349 211.172 245.413 211.008 245.413 210.816C245.413 210.592 245.345 210.4 245.209 210.24C245.073 210.072 244.837 209.944 244.501 209.856C244.173 209.768 243.709 209.724 243.109 209.724V208.476C243.613 208.476 244.013 208.432 244.309 208.344C244.605 208.256 244.821 208.136 244.957 207.984C245.093 207.832 245.161 207.656 245.161 207.456C245.161 207.184 245.061 206.976 244.861 206.832C244.661 206.688 244.385 206.616 244.033 206.616C243.737 206.616 243.457 206.676 243.193 206.796C242.937 206.908 242.677 207.072 242.413 207.288L241.525 206.208C241.901 205.904 242.305 205.668 242.737 205.5C243.169 205.324 243.629 205.236 244.117 205.236C244.669 205.236 245.157 205.32 245.581 205.488C246.005 205.648 246.333 205.884 246.565 206.196C246.805 206.5 246.925 206.876 246.925 207.324C246.925 207.716 246.797 208.052 246.541 208.332C246.285 208.612 245.929 208.84 245.473 209.016V209.064C245.793 209.152 246.081 209.28 246.337 209.448C246.601 209.608 246.805 209.812 246.949 210.06C247.101 210.308 247.177 210.596 247.177 210.924C247.177 211.396 247.037 211.8 246.757 212.136C246.477 212.464 246.109 212.716 245.653 212.892C245.197 213.06 244.697 213.144 244.153 213.144ZM248.696 213V205.176H250.544L251.312 207.948L251.576 209.028H251.624L251.888 207.948L252.656 205.176H254.504V213H253.016V210.576C253.016 210.36 253.024 210.092 253.04 209.772C253.056 209.444 253.076 209.104 253.1 208.752C253.124 208.4 253.148 208.064 253.172 207.744C253.204 207.424 253.228 207.16 253.244 206.952H253.208L252.608 209.04L252.008 210.924H251.144L250.532 209.04L249.968 206.952H249.932C249.948 207.16 249.968 207.424 249.992 207.744C250.024 208.064 250.052 208.4 250.076 208.752C250.1 209.104 250.12 209.444 250.136 209.772C250.152 210.092 250.16 210.36 250.16 210.576V213H248.696Z" fill="#F7F7F7"/>
</g>
<g clip-path="url(#clip8_124_4730)">
<g clip-path="url(#clip9_124_4730)">
<rect x="280" y="193" width="48" height="32" rx="8" fill="#1E1F20" fill-opacity="0.08"/>
</g>
<path d="M297.753 213V211.572H299.805V207.168H298.113V206.076C298.457 206.02 298.753 205.964 299.001 205.908C299.257 205.844 299.485 205.772 299.685 205.692C299.885 205.604 300.081 205.5 300.273 205.38H301.569V211.572H303.297V213H297.753ZM306.712 213V210.36L304.192 205.176H306.088L306.88 207.06C307 207.356 307.116 207.652 307.228 207.948C307.348 208.236 307.468 208.536 307.588 208.848H307.636C307.764 208.536 307.888 208.236 308.008 207.948C308.136 207.652 308.256 207.356 308.368 207.06L309.16 205.176H311.008L308.488 210.36V213H306.712Z" fill="#F7F7F7"/>
</g>
<path d="M285.948 106V104.572H288V100.168H286.308V99.076C286.652 99.02 286.948 98.964 287.196 98.908C287.452 98.844 287.68 98.772 287.88 98.692C288.08 98.604 288.276 98.5 288.468 98.38H289.764V104.572H291.492V106H285.948ZM295.795 106.144C295.387 106.144 295.051 106.008 294.787 105.736C294.531 105.464 294.403 105.132 294.403 104.74C294.403 104.348 294.531 104.016 294.787 103.744C295.051 103.464 295.387 103.324 295.795 103.324C296.211 103.324 296.547 103.464 296.803 103.744C297.059 104.016 297.187 104.348 297.187 104.74C297.187 105.132 297.059 105.464 296.803 105.736C296.547 106.008 296.211 106.144 295.795 106.144ZM302.991 106.144C302.407 106.144 301.895 105.992 301.455 105.688C301.015 105.376 300.671 104.924 300.423 104.332C300.183 103.74 300.063 103.016 300.063 102.16C300.063 100.856 300.331 99.876 300.867 99.22C301.403 98.564 302.111 98.236 302.991 98.236C303.879 98.236 304.587 98.564 305.115 99.22C305.651 99.876 305.919 100.856 305.919 102.16C305.919 103.016 305.795 103.74 305.547 104.332C305.307 104.924 304.967 105.376 304.527 105.688C304.095 105.992 303.583 106.144 302.991 106.144ZM302.991 104.776C303.247 104.776 303.475 104.696 303.675 104.536C303.883 104.376 304.047 104.104 304.167 103.72C304.287 103.336 304.347 102.816 304.347 102.16C304.347 101.496 304.287 100.98 304.167 100.612C304.047 100.236 303.883 99.976 303.675 99.832C303.475 99.68 303.247 99.604 302.991 99.604C302.743 99.604 302.515 99.68 302.307 99.832C302.099 99.976 301.935 100.236 301.815 100.612C301.695 100.98 301.635 101.496 301.635 102.16C301.635 102.816 301.695 103.336 301.815 103.72C301.935 104.104 302.099 104.376 302.307 104.536C302.515 104.696 302.743 104.776 302.991 104.776ZM302.991 103.048C302.743 103.048 302.531 102.964 302.355 102.796C302.179 102.628 302.091 102.408 302.091 102.136C302.091 101.856 302.179 101.636 302.355 101.476C302.531 101.308 302.743 101.224 302.991 101.224C303.247 101.224 303.459 101.308 303.627 101.476C303.803 101.636 303.891 101.856 303.891 102.136C303.891 102.408 303.803 102.628 303.627 102.796C303.459 102.964 303.247 103.048 302.991 103.048ZM310.186 106.144C309.602 106.144 309.09 105.992 308.65 105.688C308.21 105.376 307.866 104.924 307.618 104.332C307.378 103.74 307.258 103.016 307.258 102.16C307.258 100.856 307.526 99.876 308.062 99.22C308.598 98.564 309.306 98.236 310.186 98.236C311.074 98.236 311.782 98.564 312.31 99.22C312.846 99.876 313.114 100.856 313.114 102.16C313.114 103.016 312.99 103.74 312.742 104.332C312.502 104.924 312.162 105.376 311.722 105.688C311.29 105.992 310.778 106.144 310.186 106.144ZM310.186 104.776C310.442 104.776 310.67 104.696 310.87 104.536C311.078 104.376 311.242 104.104 311.362 103.72C311.482 103.336 311.542 102.816 311.542 102.16C311.542 101.496 311.482 100.98 311.362 100.612C311.242 100.236 311.078 99.976 310.87 99.832C310.67 99.68 310.442 99.604 310.186 99.604C309.938 99.604 309.71 99.68 309.502 99.832C309.294 99.976 309.13 100.236 309.01 100.612C308.89 100.98 308.83 101.496 308.83 102.16C308.83 102.816 308.89 103.336 309.01 103.72C309.13 104.104 309.294 104.376 309.502 104.536C309.71 104.696 309.938 104.776 310.186 104.776ZM310.186 103.048C309.938 103.048 309.726 102.964 309.55 102.796C309.374 102.628 309.286 102.408 309.286 102.136C309.286 101.856 309.374 101.636 309.55 101.476C309.726 101.308 309.938 101.224 310.186 101.224C310.442 101.224 310.654 101.308 310.822 101.476C310.998 101.636 311.086 101.856 311.086 102.136C311.086 102.408 310.998 102.628 310.822 102.796C310.654 102.964 310.442 103.048 310.186 103.048ZM317.381 106.144C316.797 106.144 316.285 105.992 315.845 105.688C315.405 105.376 315.061 104.924 314.813 104.332C314.573 103.74 314.453 103.016 314.453 102.16C314.453 100.856 314.721 99.876 315.257 99.22C315.793 98.564 316.501 98.236 317.381 98.236C318.269 98.236 318.977 98.564 319.505 99.22C320.041 99.876 320.309 100.856 320.309 102.16C320.309 103.016 320.185 103.74 319.937 104.332C319.697 104.924 319.357 105.376 318.917 105.688C318.485 105.992 317.973 106.144 317.381 106.144ZM317.381 104.776C317.637 104.776 317.865 104.696 318.065 104.536C318.273 104.376 318.437 104.104 318.557 103.72C318.677 103.336 318.737 102.816 318.737 102.16C318.737 101.496 318.677 100.98 318.557 100.612C318.437 100.236 318.273 99.976 318.065 99.832C317.865 99.68 317.637 99.604 317.381 99.604C317.133 99.604 316.905 99.68 316.697 99.832C316.489 99.976 316.325 100.236 316.205 100.612C316.085 100.98 316.025 101.496 316.025 102.16C316.025 102.816 316.085 103.336 316.205 103.72C316.325 104.104 316.489 104.376 316.697 104.536C316.905 104.696 317.133 104.776 317.381 104.776ZM317.381 103.048C317.133 103.048 316.921 102.964 316.745 102.796C316.569 102.628 316.481 102.408 316.481 102.136C316.481 101.856 316.569 101.636 316.745 101.476C316.921 101.308 317.133 101.224 317.381 101.224C317.637 101.224 317.849 101.308 318.017 101.476C318.193 101.636 318.281 101.856 318.281 102.136C318.281 102.408 318.193 102.628 318.017 102.796C317.849 102.964 317.637 103.048 317.381 103.048ZM324.781 106.144C324.389 106.144 324.009 106.072 323.641 105.928C323.273 105.784 322.941 105.56 322.645 105.256C322.357 104.952 322.125 104.564 321.949 104.092C321.781 103.612 321.697 103.036 321.697 102.364C321.697 101.652 321.789 101.036 321.973 100.516C322.157 99.996 322.401 99.568 322.705 99.232C323.017 98.896 323.369 98.648 323.761 98.488C324.153 98.32 324.561 98.236 324.985 98.236C325.521 98.236 325.993 98.328 326.401 98.512C326.817 98.688 327.153 98.9 327.409 99.148L326.485 100.204C326.325 100.06 326.125 99.936 325.885 99.832C325.645 99.72 325.397 99.664 325.141 99.664C324.813 99.664 324.509 99.748 324.229 99.916C323.957 100.084 323.737 100.368 323.569 100.768C323.401 101.16 323.317 101.692 323.317 102.364C323.317 102.996 323.385 103.492 323.521 103.852C323.657 104.204 323.833 104.456 324.049 104.608C324.273 104.752 324.505 104.824 324.745 104.824C324.953 104.824 325.145 104.78 325.321 104.692C325.497 104.604 325.637 104.472 325.741 104.296C325.853 104.112 325.909 103.876 325.909 103.588C325.909 103.196 325.805 102.916 325.597 102.748C325.389 102.572 325.117 102.484 324.781 102.484C324.557 102.484 324.317 102.544 324.061 102.664C323.813 102.784 323.565 102.996 323.317 103.3L323.245 102.148C323.525 101.852 323.841 101.628 324.193 101.476C324.545 101.316 324.869 101.236 325.165 101.236C325.605 101.236 326.001 101.32 326.353 101.488C326.713 101.656 326.997 101.916 327.205 102.268C327.413 102.612 327.517 103.052 327.517 103.588C327.517 104.116 327.389 104.572 327.133 104.956C326.885 105.34 326.553 105.636 326.137 105.844C325.729 106.044 325.277 106.144 324.781 106.144Z" fill="#AC90FF"/>
<path d="M284.948 53V51.572H287V47.168H285.308V46.076C285.652 46.02 285.948 45.964 286.196 45.908C286.452 45.844 286.68 45.772 286.88 45.692C287.08 45.604 287.276 45.5 287.468 45.38H288.764V51.572H290.492V53H284.948ZM294.795 53.144C294.387 53.144 294.051 53.008 293.787 52.736C293.531 52.464 293.403 52.132 293.403 51.74C293.403 51.348 293.531 51.016 293.787 50.744C294.051 50.464 294.387 50.324 294.795 50.324C295.211 50.324 295.547 50.464 295.803 50.744C296.059 51.016 296.187 51.348 296.187 51.74C296.187 52.132 296.059 52.464 295.803 52.736C295.547 53.008 295.211 53.144 294.795 53.144ZM301.991 53.144C301.407 53.144 300.895 52.992 300.455 52.688C300.015 52.376 299.671 51.924 299.423 51.332C299.183 50.74 299.063 50.016 299.063 49.16C299.063 47.856 299.331 46.876 299.867 46.22C300.403 45.564 301.111 45.236 301.991 45.236C302.879 45.236 303.587 45.564 304.115 46.22C304.651 46.876 304.919 47.856 304.919 49.16C304.919 50.016 304.795 50.74 304.547 51.332C304.307 51.924 303.967 52.376 303.527 52.688C303.095 52.992 302.583 53.144 301.991 53.144ZM301.991 51.776C302.247 51.776 302.475 51.696 302.675 51.536C302.883 51.376 303.047 51.104 303.167 50.72C303.287 50.336 303.347 49.816 303.347 49.16C303.347 48.496 303.287 47.98 303.167 47.612C303.047 47.236 302.883 46.976 302.675 46.832C302.475 46.68 302.247 46.604 301.991 46.604C301.743 46.604 301.515 46.68 301.307 46.832C301.099 46.976 300.935 47.236 300.815 47.612C300.695 47.98 300.635 48.496 300.635 49.16C300.635 49.816 300.695 50.336 300.815 50.72C300.935 51.104 301.099 51.376 301.307 51.536C301.515 51.696 301.743 51.776 301.991 51.776ZM301.991 50.048C301.743 50.048 301.531 49.964 301.355 49.796C301.179 49.628 301.091 49.408 301.091 49.136C301.091 48.856 301.179 48.636 301.355 48.476C301.531 48.308 301.743 48.224 301.991 48.224C302.247 48.224 302.459 48.308 302.627 48.476C302.803 48.636 302.891 48.856 302.891 49.136C302.891 49.408 302.803 49.628 302.627 49.796C302.459 49.964 302.247 50.048 301.991 50.048ZM309.186 53.144C308.602 53.144 308.09 52.992 307.65 52.688C307.21 52.376 306.866 51.924 306.618 51.332C306.378 50.74 306.258 50.016 306.258 49.16C306.258 47.856 306.526 46.876 307.062 46.22C307.598 45.564 308.306 45.236 309.186 45.236C310.074 45.236 310.782 45.564 311.31 46.22C311.846 46.876 312.114 47.856 312.114 49.16C312.114 50.016 311.99 50.74 311.742 51.332C311.502 51.924 311.162 52.376 310.722 52.688C310.29 52.992 309.778 53.144 309.186 53.144ZM309.186 51.776C309.442 51.776 309.67 51.696 309.87 51.536C310.078 51.376 310.242 51.104 310.362 50.72C310.482 50.336 310.542 49.816 310.542 49.16C310.542 48.496 310.482 47.98 310.362 47.612C310.242 47.236 310.078 46.976 309.87 46.832C309.67 46.68 309.442 46.604 309.186 46.604C308.938 46.604 308.71 46.68 308.502 46.832C308.294 46.976 308.13 47.236 308.01 47.612C307.89 47.98 307.83 48.496 307.83 49.16C307.83 49.816 307.89 50.336 308.01 50.72C308.13 51.104 308.294 51.376 308.502 51.536C308.71 51.696 308.938 51.776 309.186 51.776ZM309.186 50.048C308.938 50.048 308.726 49.964 308.55 49.796C308.374 49.628 308.286 49.408 308.286 49.136C308.286 48.856 308.374 48.636 308.55 48.476C308.726 48.308 308.938 48.224 309.186 48.224C309.442 48.224 309.654 48.308 309.822 48.476C309.998 48.636 310.086 48.856 310.086 49.136C310.086 49.408 309.998 49.628 309.822 49.796C309.654 49.964 309.442 50.048 309.186 50.048ZM315.961 53.144C315.417 53.144 314.941 53.052 314.533 52.868C314.125 52.684 313.789 52.472 313.525 52.232L314.461 51.176C314.621 51.32 314.821 51.448 315.061 51.56C315.301 51.664 315.549 51.716 315.805 51.716C316.133 51.716 316.433 51.632 316.705 51.464C316.985 51.296 317.209 51.016 317.377 50.624C317.545 50.224 317.629 49.688 317.629 49.016C317.629 48.384 317.561 47.892 317.425 47.54C317.289 47.18 317.109 46.928 316.885 46.784C316.669 46.632 316.437 46.556 316.189 46.556C315.989 46.556 315.801 46.6 315.625 46.688C315.449 46.776 315.305 46.908 315.193 47.084C315.081 47.26 315.025 47.496 315.025 47.792C315.025 48.176 315.129 48.456 315.337 48.632C315.545 48.808 315.821 48.896 316.165 48.896C316.397 48.896 316.637 48.836 316.885 48.716C317.141 48.588 317.385 48.376 317.617 48.08L317.701 49.232C317.421 49.512 317.105 49.736 316.753 49.904C316.401 50.064 316.077 50.144 315.781 50.144C315.341 50.144 314.941 50.06 314.581 49.892C314.221 49.724 313.937 49.468 313.729 49.124C313.521 48.772 313.417 48.328 313.417 47.792C313.417 47.264 313.545 46.808 313.801 46.424C314.057 46.04 314.393 45.748 314.809 45.548C315.225 45.34 315.673 45.236 316.153 45.236C316.553 45.236 316.933 45.308 317.293 45.452C317.661 45.596 317.993 45.82 318.289 46.124C318.585 46.428 318.817 46.82 318.985 47.3C319.153 47.772 319.237 48.344 319.237 49.016C319.237 49.728 319.145 50.344 318.961 50.864C318.785 51.384 318.541 51.812 318.229 52.148C317.925 52.484 317.573 52.736 317.173 52.904C316.781 53.064 316.377 53.144 315.961 53.144ZM323.781 53.144C323.389 53.144 323.009 53.072 322.641 52.928C322.273 52.784 321.941 52.56 321.645 52.256C321.357 51.952 321.125 51.564 320.949 51.092C320.781 50.612 320.697 50.036 320.697 49.364C320.697 48.652 320.789 48.036 320.973 47.516C321.157 46.996 321.401 46.568 321.705 46.232C322.017 45.896 322.369 45.648 322.761 45.488C323.153 45.32 323.561 45.236 323.985 45.236C324.521 45.236 324.993 45.328 325.401 45.512C325.817 45.688 326.153 45.9 326.409 46.148L325.485 47.204C325.325 47.06 325.125 46.936 324.885 46.832C324.645 46.72 324.397 46.664 324.141 46.664C323.813 46.664 323.509 46.748 323.229 46.916C322.957 47.084 322.737 47.368 322.569 47.768C322.401 48.16 322.317 48.692 322.317 49.364C322.317 49.996 322.385 50.492 322.521 50.852C322.657 51.204 322.833 51.456 323.049 51.608C323.273 51.752 323.505 51.824 323.745 51.824C323.953 51.824 324.145 51.78 324.321 51.692C324.497 51.604 324.637 51.472 324.741 51.296C324.853 51.112 324.909 50.876 324.909 50.588C324.909 50.196 324.805 49.916 324.597 49.748C324.389 49.572 324.117 49.484 323.781 49.484C323.557 49.484 323.317 49.544 323.061 49.664C322.813 49.784 322.565 49.996 322.317 50.3L322.245 49.148C322.525 48.852 322.841 48.628 323.193 48.476C323.545 48.316 323.869 48.236 324.165 48.236C324.605 48.236 325.001 48.32 325.353 48.488C325.713 48.656 325.997 48.916 326.205 49.268C326.413 49.612 326.517 50.052 326.517 50.588C326.517 51.116 326.389 51.572 326.133 51.956C325.885 52.34 325.553 52.636 325.137 52.844C324.729 53.044 324.277 53.144 323.781 53.144Z" fill="#6FCF97"/>
<path d="M288.6 149.144C288.016 149.144 287.504 148.992 287.064 148.688C286.624 148.376 286.28 147.924 286.032 147.332C285.792 146.74 285.672 146.016 285.672 145.16C285.672 143.856 285.94 142.876 286.476 142.22C287.012 141.564 287.72 141.236 288.6 141.236C289.488 141.236 290.196 141.564 290.724 142.22C291.26 142.876 291.528 143.856 291.528 145.16C291.528 146.016 291.404 146.74 291.156 147.332C290.916 147.924 290.576 148.376 290.136 148.688C289.704 148.992 289.192 149.144 288.6 149.144ZM288.6 147.776C288.856 147.776 289.084 147.696 289.284 147.536C289.492 147.376 289.656 147.104 289.776 146.72C289.896 146.336 289.956 145.816 289.956 145.16C289.956 144.496 289.896 143.98 289.776 143.612C289.656 143.236 289.492 142.976 289.284 142.832C289.084 142.68 288.856 142.604 288.6 142.604C288.352 142.604 288.124 142.68 287.916 142.832C287.708 142.976 287.544 143.236 287.424 143.612C287.304 143.98 287.244 144.496 287.244 145.16C287.244 145.816 287.304 146.336 287.424 146.72C287.544 147.104 287.708 147.376 287.916 147.536C288.124 147.696 288.352 147.776 288.6 147.776ZM288.6 146.048C288.352 146.048 288.14 145.964 287.964 145.796C287.788 145.628 287.7 145.408 287.7 145.136C287.7 144.856 287.788 144.636 287.964 144.476C288.14 144.308 288.352 144.224 288.6 144.224C288.856 144.224 289.068 144.308 289.236 144.476C289.412 144.636 289.5 144.856 289.5 145.136C289.5 145.408 289.412 145.628 289.236 145.796C289.068 145.964 288.856 146.048 288.6 146.048ZM295.795 149.144C295.387 149.144 295.051 149.008 294.787 148.736C294.531 148.464 294.403 148.132 294.403 147.74C294.403 147.348 294.531 147.016 294.787 146.744C295.051 146.464 295.387 146.324 295.795 146.324C296.211 146.324 296.547 146.464 296.803 146.744C297.059 147.016 297.187 147.348 297.187 147.74C297.187 148.132 297.059 148.464 296.803 148.736C296.547 149.008 296.211 149.144 295.795 149.144ZM302.571 149.144C302.027 149.144 301.551 149.052 301.143 148.868C300.735 148.684 300.399 148.472 300.135 148.232L301.071 147.176C301.231 147.32 301.431 147.448 301.671 147.56C301.911 147.664 302.159 147.716 302.415 147.716C302.743 147.716 303.043 147.632 303.315 147.464C303.595 147.296 303.819 147.016 303.987 146.624C304.155 146.224 304.239 145.688 304.239 145.016C304.239 144.384 304.171 143.892 304.035 143.54C303.899 143.18 303.719 142.928 303.495 142.784C303.279 142.632 303.047 142.556 302.799 142.556C302.599 142.556 302.411 142.6 302.235 142.688C302.059 142.776 301.915 142.908 301.803 143.084C301.691 143.26 301.635 143.496 301.635 143.792C301.635 144.176 301.739 144.456 301.947 144.632C302.155 144.808 302.431 144.896 302.775 144.896C303.007 144.896 303.247 144.836 303.495 144.716C303.751 144.588 303.995 144.376 304.227 144.08L304.311 145.232C304.031 145.512 303.715 145.736 303.363 145.904C303.011 146.064 302.687 146.144 302.391 146.144C301.951 146.144 301.551 146.06 301.191 145.892C300.831 145.724 300.547 145.468 300.339 145.124C300.131 144.772 300.027 144.328 300.027 143.792C300.027 143.264 300.155 142.808 300.411 142.424C300.667 142.04 301.003 141.748 301.419 141.548C301.835 141.34 302.283 141.236 302.763 141.236C303.163 141.236 303.543 141.308 303.903 141.452C304.271 141.596 304.603 141.82 304.899 142.124C305.195 142.428 305.427 142.82 305.595 143.3C305.763 143.772 305.847 144.344 305.847 145.016C305.847 145.728 305.755 146.344 305.571 146.864C305.395 147.384 305.151 147.812 304.839 148.148C304.535 148.484 304.183 148.736 303.783 148.904C303.391 149.064 302.987 149.144 302.571 149.144ZM309.766 149.144C309.222 149.144 308.746 149.052 308.338 148.868C307.93 148.684 307.594 148.472 307.33 148.232L308.266 147.176C308.426 147.32 308.626 147.448 308.866 147.56C309.106 147.664 309.354 147.716 309.61 147.716C309.938 147.716 310.238 147.632 310.51 147.464C310.79 147.296 311.014 147.016 311.182 146.624C311.35 146.224 311.434 145.688 311.434 145.016C311.434 144.384 311.366 143.892 311.23 143.54C311.094 143.18 310.914 142.928 310.69 142.784C310.474 142.632 310.242 142.556 309.994 142.556C309.794 142.556 309.606 142.6 309.43 142.688C309.254 142.776 309.11 142.908 308.998 143.084C308.886 143.26 308.83 143.496 308.83 143.792C308.83 144.176 308.934 144.456 309.142 144.632C309.35 144.808 309.626 144.896 309.97 144.896C310.202 144.896 310.442 144.836 310.69 144.716C310.946 144.588 311.19 144.376 311.422 144.08L311.506 145.232C311.226 145.512 310.91 145.736 310.558 145.904C310.206 146.064 309.882 146.144 309.586 146.144C309.146 146.144 308.746 146.06 308.386 145.892C308.026 145.724 307.742 145.468 307.534 145.124C307.326 144.772 307.222 144.328 307.222 143.792C307.222 143.264 307.35 142.808 307.606 142.424C307.862 142.04 308.198 141.748 308.614 141.548C309.03 141.34 309.478 141.236 309.958 141.236C310.358 141.236 310.738 141.308 311.098 141.452C311.466 141.596 311.798 141.82 312.094 142.124C312.39 142.428 312.622 142.82 312.79 143.3C312.958 143.772 313.042 144.344 313.042 145.016C313.042 145.728 312.95 146.344 312.766 146.864C312.59 147.384 312.346 147.812 312.034 148.148C311.73 148.484 311.378 148.736 310.978 148.904C310.586 149.064 310.182 149.144 309.766 149.144ZM317.369 149.144C316.785 149.144 316.277 149.056 315.845 148.88C315.413 148.704 315.081 148.46 314.849 148.148C314.625 147.828 314.513 147.464 314.513 147.056C314.513 146.744 314.577 146.472 314.705 146.24C314.841 146.008 315.017 145.808 315.233 145.64C315.449 145.464 315.689 145.312 315.953 145.184V145.136C315.633 144.912 315.365 144.656 315.149 144.368C314.941 144.08 314.837 143.736 314.837 143.336C314.837 142.904 314.945 142.532 315.161 142.22C315.385 141.9 315.693 141.656 316.085 141.488C316.477 141.32 316.925 141.236 317.429 141.236C318.189 141.236 318.793 141.428 319.241 141.812C319.697 142.188 319.925 142.692 319.925 143.324C319.925 143.676 319.817 143.996 319.601 144.284C319.385 144.564 319.129 144.8 318.833 144.992V145.04C319.105 145.168 319.349 145.324 319.565 145.508C319.781 145.684 319.949 145.896 320.069 146.144C320.197 146.392 320.261 146.688 320.261 147.032C320.261 147.432 320.149 147.792 319.925 148.112C319.701 148.424 319.373 148.676 318.941 148.868C318.517 149.052 317.993 149.144 317.369 149.144ZM317.897 144.56C318.281 144.208 318.473 143.836 318.473 143.444C318.473 143.244 318.429 143.072 318.341 142.928C318.261 142.784 318.141 142.672 317.981 142.592C317.821 142.504 317.625 142.46 317.393 142.46C317.113 142.46 316.873 142.536 316.673 142.688C316.481 142.832 316.385 143.048 316.385 143.336C316.385 143.544 316.449 143.72 316.577 143.864C316.705 144.008 316.881 144.136 317.105 144.248C317.337 144.36 317.601 144.464 317.897 144.56ZM317.417 147.92C317.777 147.92 318.065 147.844 318.281 147.692C318.505 147.532 318.617 147.292 318.617 146.972C318.617 146.804 318.573 146.656 318.485 146.528C318.397 146.4 318.269 146.288 318.101 146.192C317.941 146.096 317.749 146.008 317.525 145.928C317.301 145.84 317.053 145.744 316.781 145.64C316.637 145.744 316.509 145.86 316.397 145.988C316.285 146.108 316.197 146.244 316.133 146.396C316.069 146.54 316.037 146.692 316.037 146.852C316.037 147.076 316.097 147.268 316.217 147.428C316.337 147.588 316.501 147.712 316.709 147.8C316.917 147.88 317.153 147.92 317.417 147.92ZM324.565 149.144C323.981 149.144 323.473 149.056 323.041 148.88C322.609 148.704 322.277 148.46 322.045 148.148C321.821 147.828 321.709 147.464 321.709 147.056C321.709 146.744 321.773 146.472 321.901 146.24C322.037 146.008 322.213 145.808 322.429 145.64C322.645 145.464 322.885 145.312 323.149 145.184V145.136C322.829 144.912 322.561 144.656 322.345 144.368C322.137 144.08 322.033 143.736 322.033 143.336C322.033 142.904 322.141 142.532 322.357 142.22C322.581 141.9 322.889 141.656 323.281 141.488C323.673 141.32 324.121 141.236 324.625 141.236C325.385 141.236 325.989 141.428 326.437 141.812C326.893 142.188 327.121 142.692 327.121 143.324C327.121 143.676 327.013 143.996 326.797 144.284C326.581 144.564 326.325 144.8 326.029 144.992V145.04C326.301 145.168 326.545 145.324 326.761 145.508C326.977 145.684 327.145 145.896 327.265 146.144C327.393 146.392 327.457 146.688 327.457 147.032C327.457 147.432 327.345 147.792 327.121 148.112C326.897 148.424 326.569 148.676 326.137 148.868C325.713 149.052 325.189 149.144 324.565 149.144ZM325.093 144.56C325.477 144.208 325.669 143.836 325.669 143.444C325.669 143.244 325.625 143.072 325.537 142.928C325.457 142.784 325.337 142.672 325.177 142.592C325.017 142.504 324.821 142.46 324.589 142.46C324.309 142.46 324.069 142.536 323.869 142.688C323.677 142.832 323.581 143.048 323.581 143.336C323.581 143.544 323.645 143.72 323.773 143.864C323.901 144.008 324.077 144.136 324.301 144.248C324.533 144.36 324.797 144.464 325.093 144.56ZM324.613 147.92C324.973 147.92 325.261 147.844 325.477 147.692C325.701 147.532 325.813 147.292 325.813 146.972C325.813 146.804 325.769 146.656 325.681 146.528C325.593 146.4 325.465 146.288 325.297 146.192C325.137 146.096 324.945 146.008 324.721 145.928C324.497 145.84 324.249 145.744 323.977 145.64C323.833 145.744 323.705 145.86 323.593 145.988C323.481 146.108 323.393 146.244 323.329 146.396C323.265 146.54 323.233 146.692 323.233 146.852C323.233 147.076 323.293 147.268 323.413 147.428C323.533 147.588 323.697 147.712 323.905 147.8C324.113 147.88 324.349 147.92 324.613 147.92Z" fill="#EB5757"/>
<g clip-path="url(#clip10_124_4730)">
<g clip-path="url(#clip11_124_4730)">
<rect x="168" y="193" width="48" height="32" rx="8" fill="url(#paint1_linear_124_4730)"/>
</g>
<path d="M185.753 213V211.572H187.805V207.168H186.113V206.076C186.457 206.02 186.753 205.964 187.001 205.908C187.257 205.844 187.485 205.772 187.685 205.692C187.885 205.604 188.081 205.5 188.273 205.38H189.569V211.572H191.297V213H185.753ZM192.696 213V205.176H194.544L195.312 207.948L195.576 209.028H195.624L195.888 207.948L196.656 205.176H198.504V213H197.016V210.576C197.016 210.36 197.024 210.092 197.04 209.772C197.056 209.444 197.076 209.104 197.1 208.752C197.124 208.4 197.148 208.064 197.172 207.744C197.204 207.424 197.228 207.16 197.244 206.952H197.208L196.608 209.04L196.008 210.924H195.144L194.532 209.04L193.968 206.952H193.932C193.948 207.16 193.968 207.424 193.992 207.744C194.024 208.064 194.052 208.4 194.076 208.752C194.1 209.104 194.12 209.444 194.136 209.772C194.152 210.092 194.16 210.36 194.16 210.576V213H192.696Z" fill="#F7F7F7"/>
</g>
<path d="M1 136L328 135" stroke="#EB5757" stroke-width="2" stroke-dasharray="6 6"/>
<path d="M2 61L329 60" stroke="#6FCF97" stroke-opacity="0.8" stroke-width="2" stroke-dasharray="6 6"/>
<path d="M1 113L328 112" stroke="#AC90FF" stroke-width="2"/>
<circle cx="246" cy="112" r="3" fill="#8146EB"/>
<defs>
<linearGradient id="paint0_linear_124_4730" x1="0" y1="101.625" x2="0" y2="177" gradientUnits="userSpaceOnUse">
<stop stop-color="#8124E5"/>
<stop offset="1" stop-color="#00A7FF" stop-opacity="0.01"/>
</linearGradient>
<linearGradient id="paint1_linear_124_4730" x1="199.022" y1="269.8" x2="138.907" y2="260.551" gradientUnits="userSpaceOnUse">
<stop stop-color="#5EA0FD"/>
<stop offset="1" stop-color="#0B6FFB"/>
</linearGradient>
<clipPath id="clip0_124_4730">
<rect width="48" height="32" fill="white" transform="translate(0 193)"/>
</clipPath>
<clipPath id="clip1_124_4730">
<rect width="48" height="32" fill="white" transform="translate(0 193)"/>
</clipPath>
<clipPath id="clip2_124_4730">
<rect width="48" height="32" fill="white" transform="translate(112 193)"/>
</clipPath>
<clipPath id="clip3_124_4730">
<rect width="48" height="32" fill="white" transform="translate(112 193)"/>
</clipPath>
<clipPath id="clip4_124_4730">
<rect width="48" height="32" fill="white" transform="translate(56 193)"/>
</clipPath>
<clipPath id="clip5_124_4730">
<rect width="48" height="32" fill="white" transform="translate(56 193)"/>
</clipPath>
<clipPath id="clip6_124_4730">
<rect width="48" height="32" fill="white" transform="translate(224 193)"/>
</clipPath>
<clipPath id="clip7_124_4730">
<rect width="48" height="32" fill="white" transform="translate(224 193)"/>
</clipPath>
<clipPath id="clip8_124_4730">
<rect width="48" height="32" fill="white" transform="translate(280 193)"/>
</clipPath>
<clipPath id="clip9_124_4730">
<rect width="48" height="32" fill="white" transform="translate(280 193)"/>
</clipPath>
<clipPath id="clip10_124_4730">
<rect width="48" height="32" fill="white" transform="translate(168 193)"/>
</clipPath>
<clipPath id="clip11_124_4730">
<rect width="48" height="32" fill="white" transform="translate(168 193)"/>
</clipPath>
</defs>
</svg>
