<svg width="375" height="225" viewBox="0 0 375 225" fill="none" xmlns="http://www.w3.org/2000/svg">
<path fill-rule="evenodd" clip-rule="evenodd" d="M0 148.797C0 148.008 0.463804 147.293 1.18412 146.971L46.8446 126.569C46.948 126.523 47.0552 126.486 47.1649 126.458L99.5 113.074L180.018 88.6459C180.335 88.5499 180.669 88.5338 180.993 88.599L214.534 95.3438C214.84 95.4054 215.157 95.3944 215.458 95.3117L247.74 86.4464C247.913 86.399 248.091 86.375 248.27 86.375H262H287.58C287.857 86.375 288.131 86.3173 288.385 86.2057L372.195 49.3448C373.517 48.7635 375 49.7316 375 51.1756V177H0V148.797Z" fill="url(#paint0_linear_1_5973)"/>
<path d="M27.6117 14.144C27.0437 14.144 26.5557 13.988 26.1477 13.676C25.7397 13.356 25.4237 12.9 25.1997 12.308C24.9757 11.716 24.8637 10.996 24.8637 10.148C24.8637 8.86 25.1077 7.88 25.5957 7.208C26.0917 6.536 26.7637 6.2 27.6117 6.2C28.4677 6.2 29.1397 6.536 29.6277 7.208C30.1157 7.88 30.3597 8.86 30.3597 10.148C30.3597 10.996 30.2477 11.716 30.0237 12.308C29.8077 12.9 29.4917 13.356 29.0757 13.676C28.6677 13.988 28.1797 14.144 27.6117 14.144ZM27.6117 13.352C27.9717 13.352 28.2877 13.24 28.5597 13.016C28.8317 12.784 29.0437 12.432 29.1957 11.96C29.3557 11.48 29.4357 10.876 29.4357 10.148C29.4357 9.412 29.3557 8.812 29.1957 8.348C29.0437 7.884 28.8317 7.544 28.5597 7.328C28.2877 7.104 27.9717 6.992 27.6117 6.992C27.2597 6.992 26.9437 7.104 26.6637 7.328C26.3917 7.544 26.1757 7.884 26.0157 8.348C25.8637 8.812 25.7877 9.412 25.7877 10.148C25.7877 10.876 25.8637 11.48 26.0157 11.96C26.1757 12.432 26.3917 12.784 26.6637 13.016C26.9437 13.24 27.2597 13.352 27.6117 13.352ZM27.6117 10.868C27.4117 10.868 27.2357 10.796 27.0837 10.652C26.9397 10.508 26.8677 10.312 26.8677 10.064C26.8677 9.816 26.9397 9.624 27.0837 9.488C27.2357 9.344 27.4117 9.272 27.6117 9.272C27.8197 9.272 27.9957 9.344 28.1397 9.488C28.2837 9.624 28.3557 9.816 28.3557 10.064C28.3557 10.312 28.2837 10.508 28.1397 10.652C27.9957 10.796 27.8197 10.868 27.6117 10.868ZM32.371 14V13.184H34.579V7.544H32.863V6.908C33.167 6.868 33.435 6.82 33.667 6.764C33.899 6.708 34.111 6.648 34.303 6.584C34.495 6.512 34.671 6.432 34.831 6.344H35.563V13.184H37.567V14H32.371ZM42.0023 14.144C41.7383 14.144 41.5103 14.052 41.3183 13.868C41.1263 13.676 41.0303 13.432 41.0303 13.136C41.0303 12.832 41.1263 12.588 41.3183 12.404C41.5103 12.212 41.7383 12.116 42.0023 12.116C42.2743 12.116 42.5023 12.212 42.6863 12.404C42.8783 12.588 42.9743 12.832 42.9743 13.136C42.9743 13.432 42.8783 13.676 42.6863 13.868C42.5023 14.052 42.2743 14.144 42.0023 14.144ZM46.7617 14V13.184H48.9697V7.544H47.2537V6.908C47.5577 6.868 47.8257 6.82 48.0577 6.764C48.2897 6.708 48.5017 6.648 48.6937 6.584C48.8857 6.512 49.0617 6.432 49.2217 6.344H49.9537V13.184H51.9577V14H46.7617ZM56.393 14.144C55.825 14.144 55.337 13.988 54.929 13.676C54.521 13.356 54.205 12.9 53.981 12.308C53.757 11.716 53.645 10.996 53.645 10.148C53.645 8.86 53.889 7.88 54.377 7.208C54.873 6.536 55.545 6.2 56.393 6.2C57.249 6.2 57.921 6.536 58.409 7.208C58.897 7.88 59.141 8.86 59.141 10.148C59.141 10.996 59.029 11.716 58.805 12.308C58.589 12.9 58.273 13.356 57.857 13.676C57.449 13.988 56.961 14.144 56.393 14.144ZM56.393 13.352C56.753 13.352 57.069 13.24 57.341 13.016C57.613 12.784 57.825 12.432 57.977 11.96C58.137 11.48 58.217 10.876 58.217 10.148C58.217 9.412 58.137 8.812 57.977 8.348C57.825 7.884 57.613 7.544 57.341 7.328C57.069 7.104 56.753 6.992 56.393 6.992C56.041 6.992 55.725 7.104 55.445 7.328C55.173 7.544 54.957 7.884 54.797 8.348C54.645 8.812 54.569 9.412 54.569 10.148C54.569 10.876 54.645 11.48 54.797 11.96C54.957 12.432 55.173 12.784 55.445 13.016C55.725 13.24 56.041 13.352 56.393 13.352ZM56.393 10.868C56.193 10.868 56.017 10.796 55.865 10.652C55.721 10.508 55.649 10.312 55.649 10.064C55.649 9.816 55.721 9.624 55.865 9.488C56.017 9.344 56.193 9.272 56.393 9.272C56.601 9.272 56.777 9.344 56.921 9.488C57.065 9.624 57.137 9.816 57.137 10.064C57.137 10.312 57.065 10.508 56.921 10.652C56.777 10.796 56.601 10.868 56.393 10.868Z" fill="#F7F7F7"/>
<path d="M100.612 14.144C100.044 14.144 99.5557 13.988 99.1477 13.676C98.7397 13.356 98.4237 12.9 98.1997 12.308C97.9757 11.716 97.8637 10.996 97.8637 10.148C97.8637 8.86 98.1077 7.88 98.5957 7.208C99.0917 6.536 99.7637 6.2 100.612 6.2C101.468 6.2 102.14 6.536 102.628 7.208C103.116 7.88 103.36 8.86 103.36 10.148C103.36 10.996 103.248 11.716 103.024 12.308C102.808 12.9 102.492 13.356 102.076 13.676C101.668 13.988 101.18 14.144 100.612 14.144ZM100.612 13.352C100.972 13.352 101.288 13.24 101.56 13.016C101.832 12.784 102.044 12.432 102.196 11.96C102.356 11.48 102.436 10.876 102.436 10.148C102.436 9.412 102.356 8.812 102.196 8.348C102.044 7.884 101.832 7.544 101.56 7.328C101.288 7.104 100.972 6.992 100.612 6.992C100.26 6.992 99.9437 7.104 99.6637 7.328C99.3917 7.544 99.1757 7.884 99.0157 8.348C98.8637 8.812 98.7877 9.412 98.7877 10.148C98.7877 10.876 98.8637 11.48 99.0157 11.96C99.1757 12.432 99.3917 12.784 99.6637 13.016C99.9437 13.24 100.26 13.352 100.612 13.352ZM100.612 10.868C100.412 10.868 100.236 10.796 100.084 10.652C99.9397 10.508 99.8677 10.312 99.8677 10.064C99.8677 9.816 99.9397 9.624 100.084 9.488C100.236 9.344 100.412 9.272 100.612 9.272C100.82 9.272 100.996 9.344 101.14 9.488C101.284 9.624 101.356 9.816 101.356 10.064C101.356 10.312 101.284 10.508 101.14 10.652C100.996 10.796 100.82 10.868 100.612 10.868ZM106.919 14C106.951 13.272 107.019 12.608 107.123 12.008C107.227 11.408 107.379 10.844 107.579 10.316C107.779 9.78 108.035 9.26 108.347 8.756C108.659 8.252 109.031 7.732 109.463 7.196H105.047V6.344H110.591V6.956C110.079 7.532 109.659 8.084 109.331 8.612C109.003 9.14 108.743 9.676 108.551 10.22C108.359 10.764 108.215 11.344 108.119 11.96C108.031 12.568 107.975 13.248 107.951 14H106.919ZM115.002 14.144C114.738 14.144 114.51 14.052 114.318 13.868C114.126 13.676 114.03 13.432 114.03 13.136C114.03 12.832 114.126 12.588 114.318 12.404C114.51 12.212 114.738 12.116 115.002 12.116C115.274 12.116 115.502 12.212 115.686 12.404C115.878 12.588 115.974 12.832 115.974 13.136C115.974 13.432 115.878 13.676 115.686 13.868C115.502 14.052 115.274 14.144 115.002 14.144ZM119.762 14V13.184H121.97V7.544H120.254V6.908C120.558 6.868 120.826 6.82 121.058 6.764C121.29 6.708 121.502 6.648 121.694 6.584C121.886 6.512 122.062 6.432 122.222 6.344H122.954V13.184H124.958V14H119.762ZM129.393 14.144C128.825 14.144 128.337 13.988 127.929 13.676C127.521 13.356 127.205 12.9 126.981 12.308C126.757 11.716 126.645 10.996 126.645 10.148C126.645 8.86 126.889 7.88 127.377 7.208C127.873 6.536 128.545 6.2 129.393 6.2C130.249 6.2 130.921 6.536 131.409 7.208C131.897 7.88 132.141 8.86 132.141 10.148C132.141 10.996 132.029 11.716 131.805 12.308C131.589 12.9 131.273 13.356 130.857 13.676C130.449 13.988 129.961 14.144 129.393 14.144ZM129.393 13.352C129.753 13.352 130.069 13.24 130.341 13.016C130.613 12.784 130.825 12.432 130.977 11.96C131.137 11.48 131.217 10.876 131.217 10.148C131.217 9.412 131.137 8.812 130.977 8.348C130.825 7.884 130.613 7.544 130.341 7.328C130.069 7.104 129.753 6.992 129.393 6.992C129.041 6.992 128.725 7.104 128.445 7.328C128.173 7.544 127.957 7.884 127.797 8.348C127.645 8.812 127.569 9.412 127.569 10.148C127.569 10.876 127.645 11.48 127.797 11.96C127.957 12.432 128.173 12.784 128.445 13.016C128.725 13.24 129.041 13.352 129.393 13.352ZM129.393 10.868C129.193 10.868 129.017 10.796 128.865 10.652C128.721 10.508 128.649 10.312 128.649 10.064C128.649 9.816 128.721 9.624 128.865 9.488C129.017 9.344 129.193 9.272 129.393 9.272C129.601 9.272 129.777 9.344 129.921 9.488C130.065 9.624 130.137 9.816 130.137 10.064C130.137 10.312 130.065 10.508 129.921 10.652C129.777 10.796 129.601 10.868 129.393 10.868Z" fill="#F7F7F7"/>
<path d="M171.176 14V13.184H173.384V7.544H171.668V6.908C171.972 6.868 172.24 6.82 172.472 6.764C172.704 6.708 172.916 6.648 173.108 6.584C173.3 6.512 173.476 6.432 173.636 6.344H174.368V13.184H176.372V14H171.176ZM181.623 14V8.72C181.631 8.512 181.639 8.288 181.647 8.048C181.663 7.8 181.675 7.572 181.683 7.364H181.623C181.503 7.548 181.375 7.736 181.239 7.928C181.103 8.112 180.971 8.296 180.843 8.48L178.767 11.096H183.747V11.888H177.675V11.228L181.503 6.344H182.559V14H181.623ZM188.002 14.144C187.738 14.144 187.51 14.052 187.318 13.868C187.126 13.676 187.03 13.432 187.03 13.136C187.03 12.832 187.126 12.588 187.318 12.404C187.51 12.212 187.738 12.116 188.002 12.116C188.274 12.116 188.502 12.212 188.686 12.404C188.878 12.588 188.974 12.832 188.974 13.136C188.974 13.432 188.878 13.676 188.686 13.868C188.502 14.052 188.274 14.144 188.002 14.144ZM192.762 14V13.184H194.97V7.544H193.254V6.908C193.558 6.868 193.826 6.82 194.058 6.764C194.29 6.708 194.502 6.648 194.694 6.584C194.886 6.512 195.062 6.432 195.222 6.344H195.954V13.184H197.958V14H192.762ZM202.393 14.144C201.825 14.144 201.337 13.988 200.929 13.676C200.521 13.356 200.205 12.9 199.981 12.308C199.757 11.716 199.645 10.996 199.645 10.148C199.645 8.86 199.889 7.88 200.377 7.208C200.873 6.536 201.545 6.2 202.393 6.2C203.249 6.2 203.921 6.536 204.409 7.208C204.897 7.88 205.141 8.86 205.141 10.148C205.141 10.996 205.029 11.716 204.805 12.308C204.589 12.9 204.273 13.356 203.857 13.676C203.449 13.988 202.961 14.144 202.393 14.144ZM202.393 13.352C202.753 13.352 203.069 13.24 203.341 13.016C203.613 12.784 203.825 12.432 203.977 11.96C204.137 11.48 204.217 10.876 204.217 10.148C204.217 9.412 204.137 8.812 203.977 8.348C203.825 7.884 203.613 7.544 203.341 7.328C203.069 7.104 202.753 6.992 202.393 6.992C202.041 6.992 201.725 7.104 201.445 7.328C201.173 7.544 200.957 7.884 200.797 8.348C200.645 8.812 200.569 9.412 200.569 10.148C200.569 10.876 200.645 11.48 200.797 11.96C200.957 12.432 201.173 12.784 201.445 13.016C201.725 13.24 202.041 13.352 202.393 13.352ZM202.393 10.868C202.193 10.868 202.017 10.796 201.865 10.652C201.721 10.508 201.649 10.312 201.649 10.064C201.649 9.816 201.721 9.624 201.865 9.488C202.017 9.344 202.193 9.272 202.393 9.272C202.601 9.272 202.777 9.344 202.921 9.488C203.065 9.624 203.137 9.816 203.137 10.064C203.137 10.312 203.065 10.508 202.921 10.652C202.777 10.796 202.601 10.868 202.393 10.868Z" fill="#F7F7F7"/>
<path d="M243.888 14V13.412C244.752 12.652 245.48 11.984 246.072 11.408C246.672 10.824 247.128 10.3 247.44 9.836C247.752 9.372 247.908 8.928 247.908 8.504C247.908 8.064 247.772 7.704 247.5 7.424C247.228 7.144 246.808 7.004 246.24 7.004C245.88 7.004 245.544 7.092 245.232 7.268C244.928 7.444 244.652 7.664 244.404 7.928L243.84 7.364C244.184 7.012 244.552 6.732 244.944 6.524C245.344 6.308 245.816 6.2 246.36 6.2C246.872 6.2 247.312 6.296 247.68 6.488C248.056 6.672 248.344 6.932 248.544 7.268C248.752 7.604 248.856 8 248.856 8.456C248.856 8.936 248.708 9.42 248.412 9.908C248.116 10.396 247.7 10.912 247.164 11.456C246.636 11.992 246.024 12.58 245.328 13.22C245.568 13.196 245.808 13.18 246.048 13.172C246.288 13.156 246.524 13.148 246.756 13.148H249.276V14H243.888ZM251.371 14V13.184H253.579V7.544H251.863V6.908C252.167 6.868 252.435 6.82 252.667 6.764C252.899 6.708 253.111 6.648 253.303 6.584C253.495 6.512 253.671 6.432 253.831 6.344H254.563V13.184H256.567V14H251.371ZM261.002 14.144C260.738 14.144 260.51 14.052 260.318 13.868C260.126 13.676 260.03 13.432 260.03 13.136C260.03 12.832 260.126 12.588 260.318 12.404C260.51 12.212 260.738 12.116 261.002 12.116C261.274 12.116 261.502 12.212 261.686 12.404C261.878 12.588 261.974 12.832 261.974 13.136C261.974 13.432 261.878 13.676 261.686 13.868C261.502 14.052 261.274 14.144 261.002 14.144ZM265.762 14V13.184H267.97V7.544H266.254V6.908C266.558 6.868 266.826 6.82 267.058 6.764C267.29 6.708 267.502 6.648 267.694 6.584C267.886 6.512 268.062 6.432 268.222 6.344H268.954V13.184H270.958V14H265.762ZM275.393 14.144C274.825 14.144 274.337 13.988 273.929 13.676C273.521 13.356 273.205 12.9 272.981 12.308C272.757 11.716 272.645 10.996 272.645 10.148C272.645 8.86 272.889 7.88 273.377 7.208C273.873 6.536 274.545 6.2 275.393 6.2C276.249 6.2 276.921 6.536 277.409 7.208C277.897 7.88 278.141 8.86 278.141 10.148C278.141 10.996 278.029 11.716 277.805 12.308C277.589 12.9 277.273 13.356 276.857 13.676C276.449 13.988 275.961 14.144 275.393 14.144ZM275.393 13.352C275.753 13.352 276.069 13.24 276.341 13.016C276.613 12.784 276.825 12.432 276.977 11.96C277.137 11.48 277.217 10.876 277.217 10.148C277.217 9.412 277.137 8.812 276.977 8.348C276.825 7.884 276.613 7.544 276.341 7.328C276.069 7.104 275.753 6.992 275.393 6.992C275.041 6.992 274.725 7.104 274.445 7.328C274.173 7.544 273.957 7.884 273.797 8.348C273.645 8.812 273.569 9.412 273.569 10.148C273.569 10.876 273.645 11.48 273.797 11.96C273.957 12.432 274.173 12.784 274.445 13.016C274.725 13.24 275.041 13.352 275.393 13.352ZM275.393 10.868C275.193 10.868 275.017 10.796 274.865 10.652C274.721 10.508 274.649 10.312 274.649 10.064C274.649 9.816 274.721 9.624 274.865 9.488C275.017 9.344 275.193 9.272 275.393 9.272C275.601 9.272 275.777 9.344 275.921 9.488C276.065 9.624 276.137 9.816 276.137 10.064C276.137 10.312 276.065 10.508 275.921 10.652C275.777 10.796 275.601 10.868 275.393 10.868Z" fill="#F7F7F7"/>
<path d="M315.888 14V13.412C316.752 12.652 317.48 11.984 318.072 11.408C318.672 10.824 319.128 10.3 319.44 9.836C319.752 9.372 319.908 8.928 319.908 8.504C319.908 8.064 319.772 7.704 319.5 7.424C319.228 7.144 318.808 7.004 318.24 7.004C317.88 7.004 317.544 7.092 317.232 7.268C316.928 7.444 316.652 7.664 316.404 7.928L315.84 7.364C316.184 7.012 316.552 6.732 316.944 6.524C317.344 6.308 317.816 6.2 318.36 6.2C318.872 6.2 319.312 6.296 319.68 6.488C320.056 6.672 320.344 6.932 320.544 7.268C320.752 7.604 320.856 8 320.856 8.456C320.856 8.936 320.708 9.42 320.412 9.908C320.116 10.396 319.7 10.912 319.164 11.456C318.636 11.992 318.024 12.58 317.328 13.22C317.568 13.196 317.808 13.18 318.048 13.172C318.288 13.156 318.524 13.148 318.756 13.148H321.276V14H315.888ZM325.831 14.144C325.255 14.144 324.755 14.056 324.331 13.88C323.915 13.696 323.591 13.444 323.359 13.124C323.135 12.804 323.023 12.444 323.023 12.044C323.023 11.692 323.103 11.388 323.263 11.132C323.423 10.868 323.627 10.648 323.875 10.472C324.131 10.288 324.395 10.132 324.667 10.004V9.956C324.347 9.748 324.071 9.5 323.839 9.212C323.615 8.916 323.503 8.568 323.503 8.168C323.503 7.776 323.603 7.432 323.803 7.136C324.011 6.84 324.291 6.612 324.643 6.452C325.003 6.284 325.411 6.2 325.867 6.2C326.611 6.2 327.191 6.392 327.607 6.776C328.031 7.152 328.243 7.64 328.243 8.24C328.243 8.6 328.127 8.94 327.895 9.26C327.671 9.572 327.399 9.84 327.079 10.064V10.112C327.359 10.256 327.611 10.412 327.835 10.58C328.067 10.748 328.247 10.952 328.375 11.192C328.511 11.432 328.579 11.736 328.579 12.104C328.579 12.48 328.471 12.824 328.255 13.136C328.047 13.44 327.739 13.684 327.331 13.868C326.923 14.052 326.423 14.144 325.831 14.144ZM326.431 9.824C327.071 9.36 327.391 8.848 327.391 8.288C327.391 8.04 327.331 7.816 327.211 7.616C327.091 7.408 326.915 7.244 326.683 7.124C326.459 6.996 326.179 6.932 325.843 6.932C325.427 6.932 325.083 7.048 324.811 7.28C324.539 7.504 324.403 7.8 324.403 8.168C324.403 8.472 324.491 8.724 324.667 8.924C324.851 9.124 325.095 9.296 325.399 9.44C325.711 9.576 326.055 9.704 326.431 9.824ZM325.855 13.412C326.423 13.412 326.859 13.288 327.163 13.04C327.475 12.792 327.631 12.468 327.631 12.068C327.631 11.804 327.567 11.584 327.439 11.408C327.319 11.224 327.151 11.072 326.935 10.952C326.719 10.824 326.463 10.708 326.167 10.604C325.879 10.5 325.567 10.392 325.231 10.28C324.983 10.416 324.759 10.564 324.559 10.724C324.359 10.884 324.203 11.064 324.091 11.264C323.979 11.464 323.923 11.692 323.923 11.948C323.923 12.228 323.999 12.48 324.151 12.704C324.311 12.92 324.535 13.092 324.823 13.22C325.119 13.348 325.463 13.412 325.855 13.412ZM333.002 14.144C332.738 14.144 332.51 14.052 332.318 13.868C332.126 13.676 332.03 13.432 332.03 13.136C332.03 12.832 332.126 12.588 332.318 12.404C332.51 12.212 332.738 12.116 333.002 12.116C333.274 12.116 333.502 12.212 333.686 12.404C333.878 12.588 333.974 12.832 333.974 13.136C333.974 13.432 333.878 13.676 333.686 13.868C333.502 14.052 333.274 14.144 333.002 14.144ZM337.762 14V13.184H339.97V7.544H338.254V6.908C338.558 6.868 338.826 6.82 339.058 6.764C339.29 6.708 339.502 6.648 339.694 6.584C339.886 6.512 340.062 6.432 340.222 6.344H340.954V13.184H342.958V14H337.762ZM347.393 14.144C346.825 14.144 346.337 13.988 345.929 13.676C345.521 13.356 345.205 12.9 344.981 12.308C344.757 11.716 344.645 10.996 344.645 10.148C344.645 8.86 344.889 7.88 345.377 7.208C345.873 6.536 346.545 6.2 347.393 6.2C348.249 6.2 348.921 6.536 349.409 7.208C349.897 7.88 350.141 8.86 350.141 10.148C350.141 10.996 350.029 11.716 349.805 12.308C349.589 12.9 349.273 13.356 348.857 13.676C348.449 13.988 347.961 14.144 347.393 14.144ZM347.393 13.352C347.753 13.352 348.069 13.24 348.341 13.016C348.613 12.784 348.825 12.432 348.977 11.96C349.137 11.48 349.217 10.876 349.217 10.148C349.217 9.412 349.137 8.812 348.977 8.348C348.825 7.884 348.613 7.544 348.341 7.328C348.069 7.104 347.753 6.992 347.393 6.992C347.041 6.992 346.725 7.104 346.445 7.328C346.173 7.544 345.957 7.884 345.797 8.348C345.645 8.812 345.569 9.412 345.569 10.148C345.569 10.876 345.645 11.48 345.797 11.96C345.957 12.432 346.173 12.784 346.445 13.016C346.725 13.24 347.041 13.352 347.393 13.352ZM347.393 10.868C347.193 10.868 347.017 10.796 346.865 10.652C346.721 10.508 346.649 10.312 346.649 10.064C346.649 9.816 346.721 9.624 346.865 9.488C347.017 9.344 347.193 9.272 347.393 9.272C347.601 9.272 347.777 9.344 347.921 9.488C348.065 9.624 348.137 9.816 348.137 10.064C348.137 10.312 348.065 10.508 347.921 10.652C347.777 10.796 347.601 10.868 347.393 10.868Z" fill="#F7F7F7"/>
<g clip-path="url(#clip0_1_5973)">
<g clip-path="url(#clip1_1_5973)">
<rect x="24" y="193" width="48" height="32" rx="8" fill="#1E1F20" fill-opacity="0.08"/>
</g>
<path d="M30.9597 213V211.572H33.0117V207.168H31.3197V206.076C31.6637 206.02 31.9597 205.964 32.2077 205.908C32.4637 205.844 32.6917 205.772 32.8917 205.692C33.0917 205.604 33.2877 205.5 33.4797 205.38H34.7757V211.572H36.5037V213H30.9597ZM40.807 213.144C40.223 213.144 39.711 212.992 39.271 212.688C38.831 212.376 38.487 211.924 38.239 211.332C37.999 210.74 37.879 210.016 37.879 209.16C37.879 207.856 38.147 206.876 38.683 206.22C39.219 205.564 39.927 205.236 40.807 205.236C41.695 205.236 42.403 205.564 42.931 206.22C43.467 206.876 43.735 207.856 43.735 209.16C43.735 210.016 43.611 210.74 43.363 211.332C43.123 211.924 42.783 212.376 42.343 212.688C41.911 212.992 41.399 213.144 40.807 213.144ZM40.807 211.776C41.063 211.776 41.291 211.696 41.491 211.536C41.699 211.376 41.863 211.104 41.983 210.72C42.103 210.336 42.163 209.816 42.163 209.16C42.163 208.496 42.103 207.98 41.983 207.612C41.863 207.236 41.699 206.976 41.491 206.832C41.291 206.68 41.063 206.604 40.807 206.604C40.559 206.604 40.331 206.68 40.123 206.832C39.915 206.976 39.751 207.236 39.631 207.612C39.511 207.98 39.451 208.496 39.451 209.16C39.451 209.816 39.511 210.336 39.631 210.72C39.751 211.104 39.915 211.376 40.123 211.536C40.331 211.696 40.559 211.776 40.807 211.776ZM40.807 210.048C40.559 210.048 40.347 209.964 40.171 209.796C39.995 209.628 39.907 209.408 39.907 209.136C39.907 208.856 39.995 208.636 40.171 208.476C40.347 208.308 40.559 208.224 40.807 208.224C41.063 208.224 41.275 208.308 41.443 208.476C41.619 208.636 41.707 208.856 41.707 209.136C41.707 209.408 41.619 209.628 41.443 209.796C41.275 209.964 41.063 210.048 40.807 210.048ZM45.0983 213V205.176H46.9463L47.7143 207.948L47.9783 209.028H48.0263L48.2903 207.948L49.0583 205.176H50.9063V213H49.4183V210.576C49.4183 210.36 49.4263 210.092 49.4423 209.772C49.4583 209.444 49.4783 209.104 49.5023 208.752C49.5263 208.4 49.5503 208.064 49.5743 207.744C49.6063 207.424 49.6303 207.16 49.6463 206.952H49.6103L49.0103 209.04L48.4103 210.924H47.5463L46.9343 209.04L46.3703 206.952H46.3343C46.3503 207.16 46.3703 207.424 46.3943 207.744C46.4263 208.064 46.4543 208.4 46.4783 208.752C46.5023 209.104 46.5223 209.444 46.5383 209.772C46.5543 210.092 46.5623 210.36 46.5623 210.576V213H45.0983ZM54.9337 213V208.428H52.5337V207.048H56.6977V213H54.9337ZM55.7377 206.112C55.4017 206.112 55.1217 206.016 54.8977 205.824C54.6737 205.624 54.5617 205.364 54.5617 205.044C54.5617 204.716 54.6737 204.452 54.8977 204.252C55.1217 204.044 55.4017 203.94 55.7377 203.94C56.0817 203.94 56.3617 204.044 56.5777 204.252C56.8017 204.452 56.9137 204.716 56.9137 205.044C56.9137 205.364 56.8017 205.624 56.5777 205.824C56.3617 206.016 56.0817 206.112 55.7377 206.112ZM59.657 213V207.048H61.097L61.229 207.84H61.277C61.533 207.584 61.825 207.364 62.153 207.18C62.489 206.996 62.881 206.904 63.329 206.904C64.001 206.904 64.493 207.12 64.805 207.552C65.117 207.984 65.273 208.576 65.273 209.328V213H63.509V209.556C63.509 209.156 63.441 208.864 63.305 208.68C63.177 208.496 62.953 208.404 62.633 208.404C62.393 208.404 62.181 208.46 61.997 208.572C61.821 208.676 61.629 208.828 61.421 209.028V213H59.657Z" fill="#F7F7F7"/>
</g>
<g clip-path="url(#clip2_1_5973)">
<g clip-path="url(#clip3_1_5973)">
<rect x="136" y="193" width="48" height="32" rx="8" fill="#1E1F20" fill-opacity="0.08"/>
</g>
<path d="M149.903 213V211.992C150.631 211.376 151.267 210.82 151.811 210.324C152.363 209.82 152.791 209.36 153.095 208.944C153.399 208.52 153.551 208.128 153.551 207.768C153.551 207.392 153.439 207.108 153.215 206.916C152.999 206.716 152.695 206.616 152.303 206.616C151.999 206.616 151.719 206.696 151.463 206.856C151.215 207.008 150.983 207.188 150.767 207.396L149.819 206.448C150.211 206.04 150.615 205.736 151.031 205.536C151.455 205.336 151.959 205.236 152.543 205.236C153.071 205.236 153.535 205.336 153.935 205.536C154.343 205.736 154.659 206.02 154.883 206.388C155.115 206.748 155.231 207.172 155.231 207.66C155.231 208.092 155.099 208.528 154.835 208.968C154.579 209.408 154.235 209.852 153.803 210.3C153.379 210.74 152.923 211.176 152.435 211.608C152.651 211.584 152.887 211.564 153.143 211.548C153.399 211.524 153.623 211.512 153.815 211.512H155.627V213H149.903ZM160.494 213V208.548C160.494 208.308 160.502 208.032 160.518 207.72C160.534 207.4 160.546 207.12 160.554 206.88H160.506C160.378 207.088 160.238 207.3 160.086 207.516C159.942 207.732 159.806 207.952 159.678 208.176L158.526 209.832H163.098V211.176H156.822V209.964L160.002 205.38H162.138V213H160.494ZM164.462 213V204.588H166.226V206.652L166.13 207.792H166.166C166.39 207.56 166.662 207.356 166.982 207.18C167.31 206.996 167.698 206.904 168.146 206.904C168.818 206.904 169.306 207.12 169.61 207.552C169.922 207.984 170.078 208.576 170.078 209.328V213H168.314V209.556C168.314 209.156 168.246 208.864 168.11 208.68C167.982 208.496 167.758 208.404 167.438 208.404C167.198 208.404 166.986 208.46 166.802 208.572C166.626 208.676 166.434 208.828 166.226 209.028V213H164.462Z" fill="#F7F7F7"/>
</g>
<g clip-path="url(#clip4_1_5973)">
<g clip-path="url(#clip5_1_5973)">
<rect x="80" y="193" width="48" height="32" rx="8" fill="#1E1F20" fill-opacity="0.08"/>
</g>
<path d="M97.7527 213V211.572H99.8047V207.168H98.1127V206.076C98.4567 206.02 98.7527 205.964 99.0007 205.908C99.2567 205.844 99.4847 205.772 99.6847 205.692C99.8847 205.604 100.081 205.5 100.273 205.38H101.569V211.572H103.297V213H97.7527ZM104.864 213V204.588H106.628V206.652L106.532 207.792H106.568C106.792 207.56 107.064 207.356 107.384 207.18C107.712 206.996 108.1 206.904 108.548 206.904C109.22 206.904 109.708 207.12 110.012 207.552C110.324 207.984 110.48 208.576 110.48 209.328V213H108.716V209.556C108.716 209.156 108.648 208.864 108.512 208.68C108.384 208.496 108.16 208.404 107.84 208.404C107.6 208.404 107.388 208.46 107.204 208.572C107.028 208.676 106.836 208.828 106.628 209.028V213H104.864Z" fill="#F7F7F7"/>
</g>
<g clip-path="url(#clip6_1_5973)">
<g clip-path="url(#clip7_1_5973)">
<rect x="248" y="193" width="48" height="32" rx="8" fill="#1E1F20" fill-opacity="0.08"/>
</g>
<path d="M268.153 213.144C267.721 213.144 267.325 213.096 266.965 213C266.613 212.912 266.297 212.788 266.017 212.628C265.737 212.468 265.501 212.28 265.309 212.064L266.125 210.948C266.381 211.172 266.669 211.356 266.989 211.5C267.309 211.644 267.641 211.716 267.985 211.716C268.257 211.716 268.501 211.684 268.717 211.62C268.933 211.548 269.101 211.444 269.221 211.308C269.349 211.172 269.413 211.008 269.413 210.816C269.413 210.592 269.345 210.4 269.209 210.24C269.073 210.072 268.837 209.944 268.501 209.856C268.173 209.768 267.709 209.724 267.109 209.724V208.476C267.613 208.476 268.013 208.432 268.309 208.344C268.605 208.256 268.821 208.136 268.957 207.984C269.093 207.832 269.161 207.656 269.161 207.456C269.161 207.184 269.061 206.976 268.861 206.832C268.661 206.688 268.385 206.616 268.033 206.616C267.737 206.616 267.457 206.676 267.193 206.796C266.937 206.908 266.677 207.072 266.413 207.288L265.525 206.208C265.901 205.904 266.305 205.668 266.737 205.5C267.169 205.324 267.629 205.236 268.117 205.236C268.669 205.236 269.157 205.32 269.581 205.488C270.005 205.648 270.333 205.884 270.565 206.196C270.805 206.5 270.925 206.876 270.925 207.324C270.925 207.716 270.797 208.052 270.541 208.332C270.285 208.612 269.929 208.84 269.473 209.016V209.064C269.793 209.152 270.081 209.28 270.337 209.448C270.601 209.608 270.805 209.812 270.949 210.06C271.101 210.308 271.177 210.596 271.177 210.924C271.177 211.396 271.037 211.8 270.757 212.136C270.477 212.464 270.109 212.716 269.653 212.892C269.197 213.06 268.697 213.144 268.153 213.144ZM272.696 213V205.176H274.544L275.312 207.948L275.576 209.028H275.624L275.888 207.948L276.656 205.176H278.504V213H277.016V210.576C277.016 210.36 277.024 210.092 277.04 209.772C277.056 209.444 277.076 209.104 277.1 208.752C277.124 208.4 277.148 208.064 277.172 207.744C277.204 207.424 277.228 207.16 277.244 206.952H277.208L276.608 209.04L276.008 210.924H275.144L274.532 209.04L273.968 206.952H273.932C273.948 207.16 273.968 207.424 273.992 207.744C274.024 208.064 274.052 208.4 274.076 208.752C274.1 209.104 274.12 209.444 274.136 209.772C274.152 210.092 274.16 210.36 274.16 210.576V213H272.696Z" fill="#F7F7F7"/>
</g>
<g clip-path="url(#clip8_1_5973)">
<g clip-path="url(#clip9_1_5973)">
<rect x="304" y="193" width="48" height="32" rx="8" fill="#1E1F20" fill-opacity="0.08"/>
</g>
<path d="M321.753 213V211.572H323.805V207.168H322.113V206.076C322.457 206.02 322.753 205.964 323.001 205.908C323.257 205.844 323.485 205.772 323.685 205.692C323.885 205.604 324.081 205.5 324.273 205.38H325.569V211.572H327.297V213H321.753ZM330.712 213V210.36L328.192 205.176H330.088L330.88 207.06C331 207.356 331.116 207.652 331.228 207.948C331.348 208.236 331.468 208.536 331.588 208.848H331.636C331.764 208.536 331.888 208.236 332.008 207.948C332.136 207.652 332.256 207.356 332.368 207.06L333.16 205.176H335.008L332.488 210.36V213H330.712Z" fill="#F7F7F7"/>
</g>
<g clip-path="url(#clip10_1_5973)">
<g clip-path="url(#clip11_1_5973)">
<rect x="192" y="193" width="48" height="32" rx="8" fill="url(#paint1_linear_1_5973)"/>
</g>
<path d="M209.753 213V211.572H211.805V207.168H210.113V206.076C210.457 206.02 210.753 205.964 211.001 205.908C211.257 205.844 211.485 205.772 211.685 205.692C211.885 205.604 212.081 205.5 212.273 205.38H213.569V211.572H215.297V213H209.753ZM216.696 213V205.176H218.544L219.312 207.948L219.576 209.028H219.624L219.888 207.948L220.656 205.176H222.504V213H221.016V210.576C221.016 210.36 221.024 210.092 221.04 209.772C221.056 209.444 221.076 209.104 221.1 208.752C221.124 208.4 221.148 208.064 221.172 207.744C221.204 207.424 221.228 207.16 221.244 206.952H221.208L220.608 209.04L220.008 210.924H219.144L218.532 209.04L217.968 206.952H217.932C217.948 207.16 217.968 207.424 217.992 207.744C218.024 208.064 218.052 208.4 218.076 208.752C218.1 209.104 218.12 209.444 218.136 209.772C218.152 210.092 218.16 210.36 218.16 210.576V213H216.696Z" fill="#F7F7F7"/>
</g>
<rect x="206" y="86" width="20" height="20" rx="10" fill="white"/>
<circle cx="216" cy="96" r="3" fill="#8146EB"/>
<path fill-rule="evenodd" clip-rule="evenodd" d="M179 31C176.791 31 175 32.7909 175 35V57C175 59.2091 176.791 61 179 61H205.858L212.314 67.4558C213.876 69.0179 216.408 69.0179 217.971 67.4558L224.426 61H252C254.209 61 256 59.2091 256 57V35C256 32.7909 254.209 31 252 31H179Z" fill="#5CC6FF"/>
<path d="M194.768 48.62L195.536 47.42C195.92 47.652 196.284 47.836 196.628 47.972C196.972 48.1 197.332 48.164 197.708 48.164C197.996 48.164 198.216 48.116 198.368 48.02C198.52 47.924 198.596 47.792 198.596 47.624C198.596 47.456 198.508 47.316 198.332 47.204C198.164 47.084 197.948 46.976 197.684 46.88C197.42 46.776 197.136 46.668 196.832 46.556C196.536 46.444 196.256 46.304 195.992 46.136C195.728 45.968 195.512 45.76 195.344 45.512C195.176 45.264 195.092 44.956 195.092 44.588C195.092 44.18 195.2 43.828 195.416 43.532C195.632 43.228 195.936 42.996 196.328 42.836C196.728 42.668 197.196 42.584 197.732 42.584C198.284 42.584 198.752 42.68 199.136 42.872C199.52 43.064 199.86 43.308 200.156 43.604L199.28 44.612C199 44.412 198.732 44.264 198.476 44.168C198.228 44.064 197.94 44.012 197.612 44.012C197.348 44.012 197.144 44.06 197 44.156C196.856 44.252 196.784 44.388 196.784 44.564C196.784 44.7 196.868 44.82 197.036 44.924C197.204 45.028 197.42 45.128 197.684 45.224C197.948 45.312 198.228 45.416 198.524 45.536C198.828 45.648 199.112 45.788 199.376 45.956C199.64 46.124 199.856 46.332 200.024 46.58C200.192 46.82 200.276 47.124 200.276 47.492C200.276 47.892 200.168 48.252 199.952 48.572C199.736 48.884 199.416 49.132 198.992 49.316C198.576 49.5 198.06 49.592 197.444 49.592C197.164 49.592 196.86 49.552 196.532 49.472C196.212 49.392 195.896 49.28 195.584 49.136C195.28 48.992 195.008 48.82 194.768 48.62ZM197.06 43.136V41.06H198.236V43.136H197.06ZM197.06 48.872H198.236V51.32H197.06V48.872ZM203.511 50C203.543 49.368 203.603 48.784 203.691 48.248C203.787 47.712 203.919 47.208 204.087 46.736C204.263 46.256 204.487 45.784 204.759 45.32C205.031 44.848 205.367 44.364 205.767 43.868H201.939V42.38H207.663V43.46C207.183 43.996 206.795 44.5 206.499 44.972C206.203 45.444 205.971 45.924 205.803 46.412C205.643 46.9 205.523 47.436 205.443 48.02C205.371 48.596 205.319 49.256 205.287 50H203.511ZM211.019 52.604L210.575 51.572C211.111 51.388 211.507 51.148 211.763 50.852C212.027 50.556 212.151 50.216 212.135 49.832L212.075 48.404L212.795 49.604C212.683 49.7 212.559 49.772 212.423 49.82C212.295 49.86 212.155 49.88 212.003 49.88C211.779 49.88 211.567 49.832 211.367 49.736C211.167 49.64 211.007 49.504 210.887 49.328C210.767 49.144 210.707 48.92 210.707 48.656C210.707 48.288 210.839 47.992 211.103 47.768C211.367 47.536 211.683 47.42 212.051 47.42C212.547 47.42 212.919 47.604 213.167 47.972C213.415 48.332 213.539 48.836 213.539 49.484C213.539 50.244 213.323 50.888 212.891 51.416C212.467 51.952 211.843 52.348 211.019 52.604ZM218.982 50.144C218.542 50.144 218.146 50.096 217.794 50C217.442 49.904 217.13 49.776 216.858 49.616C216.586 49.456 216.346 49.276 216.138 49.076L216.93 47.96C217.098 48.096 217.274 48.224 217.458 48.344C217.642 48.456 217.838 48.548 218.046 48.62C218.262 48.684 218.49 48.716 218.73 48.716C219.018 48.716 219.274 48.672 219.498 48.584C219.722 48.488 219.894 48.352 220.014 48.176C220.142 48 220.206 47.784 220.206 47.528C220.206 47.144 220.074 46.852 219.81 46.652C219.546 46.452 219.214 46.352 218.814 46.352C218.566 46.352 218.354 46.38 218.178 46.436C218.01 46.492 217.794 46.592 217.53 46.736L216.75 46.232L216.954 42.38H221.622V43.868H218.478L218.346 45.296C218.53 45.232 218.694 45.188 218.838 45.164C218.99 45.132 219.162 45.116 219.354 45.116C219.826 45.116 220.258 45.2 220.65 45.368C221.05 45.536 221.37 45.796 221.61 46.148C221.85 46.5 221.97 46.944 221.97 47.48C221.97 48.048 221.83 48.532 221.55 48.932C221.27 49.324 220.902 49.624 220.446 49.832C219.99 50.04 219.502 50.144 218.982 50.144ZM223.477 50V48.992C224.205 48.376 224.841 47.82 225.385 47.324C225.937 46.82 226.365 46.36 226.669 45.944C226.973 45.52 227.125 45.128 227.125 44.768C227.125 44.392 227.013 44.108 226.789 43.916C226.573 43.716 226.269 43.616 225.877 43.616C225.573 43.616 225.293 43.696 225.037 43.856C224.789 44.008 224.557 44.188 224.341 44.396L223.393 43.448C223.785 43.04 224.189 42.736 224.605 42.536C225.029 42.336 225.533 42.236 226.117 42.236C226.645 42.236 227.109 42.336 227.509 42.536C227.917 42.736 228.233 43.02 228.457 43.388C228.689 43.748 228.805 44.172 228.805 44.66C228.805 45.092 228.673 45.528 228.409 45.968C228.153 46.408 227.809 46.852 227.377 47.3C226.953 47.74 226.497 48.176 226.009 48.608C226.225 48.584 226.461 48.564 226.717 48.548C226.973 48.524 227.197 48.512 227.389 48.512H229.201V50H223.477ZM233.577 50.144C232.993 50.144 232.481 49.992 232.041 49.688C231.601 49.376 231.257 48.924 231.009 48.332C230.769 47.74 230.649 47.016 230.649 46.16C230.649 44.856 230.917 43.876 231.453 43.22C231.989 42.564 232.697 42.236 233.577 42.236C234.465 42.236 235.173 42.564 235.701 43.22C236.237 43.876 236.505 44.856 236.505 46.16C236.505 47.016 236.381 47.74 236.133 48.332C235.893 48.924 235.553 49.376 235.113 49.688C234.681 49.992 234.169 50.144 233.577 50.144ZM233.577 48.776C233.833 48.776 234.061 48.696 234.261 48.536C234.469 48.376 234.633 48.104 234.753 47.72C234.873 47.336 234.933 46.816 234.933 46.16C234.933 45.496 234.873 44.98 234.753 44.612C234.633 44.236 234.469 43.976 234.261 43.832C234.061 43.68 233.833 43.604 233.577 43.604C233.329 43.604 233.101 43.68 232.893 43.832C232.685 43.976 232.521 44.236 232.401 44.612C232.281 44.98 232.221 45.496 232.221 46.16C232.221 46.816 232.281 47.336 232.401 47.72C232.521 48.104 232.685 48.376 232.893 48.536C233.101 48.696 233.329 48.776 233.577 48.776ZM233.577 47.048C233.329 47.048 233.117 46.964 232.941 46.796C232.765 46.628 232.677 46.408 232.677 46.136C232.677 45.856 232.765 45.636 232.941 45.476C233.117 45.308 233.329 45.224 233.577 45.224C233.833 45.224 234.045 45.308 234.213 45.476C234.389 45.636 234.477 45.856 234.477 46.136C234.477 46.408 234.389 46.628 234.213 46.796C234.045 46.964 233.833 47.048 233.577 47.048Z" fill="white"/>
<defs>
<linearGradient id="paint0_linear_1_5973" x1="0" y1="31.9998" x2="0" y2="177" gradientUnits="userSpaceOnUse">
<stop stop-color="#8124E5"/>
<stop offset="1" stop-color="#00A7FF" stop-opacity="0.01"/>
</linearGradient>
<linearGradient id="paint1_linear_1_5973" x1="223.022" y1="269.8" x2="162.907" y2="260.551" gradientUnits="userSpaceOnUse">
<stop stop-color="#5EA0FD"/>
<stop offset="1" stop-color="#0B6FFB"/>
</linearGradient>
<clipPath id="clip0_1_5973">
<rect width="48" height="32" fill="white" transform="translate(24 193)"/>
</clipPath>
<clipPath id="clip1_1_5973">
<rect width="48" height="32" fill="white" transform="translate(24 193)"/>
</clipPath>
<clipPath id="clip2_1_5973">
<rect width="48" height="32" fill="white" transform="translate(136 193)"/>
</clipPath>
<clipPath id="clip3_1_5973">
<rect width="48" height="32" fill="white" transform="translate(136 193)"/>
</clipPath>
<clipPath id="clip4_1_5973">
<rect width="48" height="32" fill="white" transform="translate(80 193)"/>
</clipPath>
<clipPath id="clip5_1_5973">
<rect width="48" height="32" fill="white" transform="translate(80 193)"/>
</clipPath>
<clipPath id="clip6_1_5973">
<rect width="48" height="32" fill="white" transform="translate(248 193)"/>
</clipPath>
<clipPath id="clip7_1_5973">
<rect width="48" height="32" fill="white" transform="translate(248 193)"/>
</clipPath>
<clipPath id="clip8_1_5973">
<rect width="48" height="32" fill="white" transform="translate(304 193)"/>
</clipPath>
<clipPath id="clip9_1_5973">
<rect width="48" height="32" fill="white" transform="translate(304 193)"/>
</clipPath>
<clipPath id="clip10_1_5973">
<rect width="48" height="32" fill="white" transform="translate(192 193)"/>
</clipPath>
<clipPath id="clip11_1_5973">
<rect width="48" height="32" fill="white" transform="translate(192 193)"/>
</clipPath>
</defs>
</svg>
