<svg width="48" height="48" viewBox="0 0 48 48" fill="none" xmlns="http://www.w3.org/2000/svg">
<path fill-rule="evenodd" clip-rule="evenodd" d="M48 24C48 37.2548 37.2548 48 24 48C10.7452 48 0 37.2548 0 24C0 10.7452 10.7452 0 24 0C37.2548 0 48 10.7452 48 24Z" fill="#E84142"/>
<path fill-rule="evenodd" clip-rule="evenodd" d="M17.1992 33.5503H12.5415C11.5628 33.5503 11.0793 33.5503 10.7845 33.3617C10.4662 33.1553 10.2716 32.8134 10.248 32.436C10.2303 32.0882 10.472 31.6637 10.9555 30.8146L22.456 10.5434C22.9453 9.68262 23.193 9.25225 23.5055 9.09304C23.8415 8.92211 24.2425 8.92211 24.5785 9.09304C24.891 9.25225 25.1387 9.68262 25.628 10.5434L27.9922 14.6705L28.0043 14.6916C28.5329 15.6151 28.8009 16.0834 28.9179 16.5749C29.0476 17.1114 29.0476 17.6774 28.9179 18.2139C28.8 18.7092 28.5346 19.1809 27.9981 20.1184L21.9572 30.797L21.9416 30.8244C21.4095 31.7554 21.1399 32.2273 20.7662 32.5834C20.3594 32.9726 19.8701 33.2555 19.3335 33.4147C18.8442 33.5503 18.2959 33.5503 17.1992 33.5503Z" fill="white"/>
<path fill-rule="evenodd" clip-rule="evenodd" d="M28.9614 33.5507H35.6356C36.6202 33.5507 37.1154 33.5507 37.4102 33.3562C37.7286 33.1498 37.929 32.802 37.9468 32.4246C37.9638 32.0883 37.7273 31.6802 37.2639 30.8805C37.2481 30.8532 37.232 30.8256 37.2156 30.7974L33.8727 25.0784L33.8346 25.0141C33.3649 24.2196 33.1276 23.8185 32.8232 23.6634C32.4872 23.4924 32.0922 23.4924 31.7561 23.6634C31.4495 23.8225 31.2018 24.2412 30.7125 25.0843L27.3814 30.8032L27.3699 30.823C26.8823 31.6647 26.6386 32.0854 26.6562 32.4306C26.6798 32.8079 26.8743 33.1558 27.1927 33.3621C27.4816 33.5507 27.9768 33.5507 28.9614 33.5507Z" fill="white"/>
</svg>
