<svg width="24" height="24" viewBox="0 0 24 24" fill="none" xmlns="http://www.w3.org/2000/svg">
<circle cx="12" cy="12" r="12" fill="url(#paint0_linear_79_3943)"/>
<path d="M12.6314 12.6364H15.8283C15.8964 12.6364 15.9286 12.6364 15.9335 12.5409C15.9597 12.1933 15.9597 11.8437 15.9335 11.4956C15.9335 11.428 15.9021 11.4001 15.8336 11.4001H9.47115C9.3924 11.4001 9.3712 11.428 9.3712 11.507V12.5073C9.3712 12.6364 9.3712 12.6364 9.49727 12.6364H12.6314V12.6364ZM15.5765 10.231C15.5856 10.2055 15.5856 10.1776 15.5765 10.1525C15.5231 10.0282 15.4599 9.90968 15.3865 9.79839C15.2759 9.60819 15.1457 9.43296 14.9972 9.27554C14.9272 9.18044 14.8462 9.09505 14.7553 9.02261C14.3002 8.60862 13.7592 8.31563 13.1777 8.16832C12.8843 8.09791 12.5844 8.06432 12.2838 8.06715H9.46017C9.38142 8.06715 9.37082 8.10074 9.37082 8.17399V10.1691C9.37082 10.2533 9.37082 10.2759 9.47077 10.2759H15.5387C15.5387 10.2759 15.5913 10.2646 15.6019 10.231H15.5761H15.5765ZM15.5765 13.8056C15.4872 13.795 15.3971 13.795 15.3077 13.8056H9.47645C9.3977 13.8056 9.3712 13.8056 9.3712 13.9181V15.8686C9.3712 15.9585 9.3712 15.9811 9.47645 15.9811H12.1687C12.2974 15.9917 12.4262 15.982 12.5522 15.9532C12.9429 15.9233 13.3272 15.8326 13.6937 15.6833C13.827 15.6339 13.9557 15.5696 14.0772 15.4923H14.114C14.7451 15.1414 15.2577 14.5902 15.5811 13.9136C15.5811 13.9136 15.6178 13.8286 15.5765 13.8064V13.8056ZM8.31451 16.9925V16.9589V15.6493V15.2054V13.8845C8.31451 13.8112 8.31451 13.8003 8.23046 13.8003H7.08935C7.02612 13.8003 7 13.8003 7 13.7105V12.6425H8.21986C8.28801 12.6425 8.31451 12.6425 8.31451 12.547V11.4904C8.31451 11.4228 8.31451 11.4062 8.23046 11.4062H7.08935C7.02612 11.4062 7 11.4062 7 11.3164V10.3273C7 10.2654 7 10.2488 7.08405 10.2488H8.21456C8.29331 10.2488 8.31451 10.2488 8.31451 10.142V7.1125C8.31451 7.02266 8.31451 7 8.41976 7H12.3633C12.6495 7.01214 12.9339 7.04573 13.2152 7.10117C13.7948 7.2157 14.3517 7.43706 14.861 7.75312C15.1987 7.96558 15.5095 8.22215 15.7863 8.51756C15.9945 8.74864 16.1823 8.99873 16.3489 9.26502C16.5143 9.53494 16.6518 9.82348 16.7597 10.125C16.7729 10.2035 16.8433 10.2565 16.9168 10.2431H17.858C17.9788 10.2431 17.9788 10.2431 17.9841 10.367V11.2888C17.9841 11.3787 17.9526 11.4013 17.8682 11.4013H17.1424C17.069 11.4013 17.0478 11.4013 17.0531 11.5025C17.0818 11.8449 17.0818 12.1885 17.0531 12.5308C17.0531 12.6263 17.0531 12.6376 17.1534 12.6376H17.9837C18.0204 12.6882 17.9837 12.7388 17.9837 12.7898C17.989 12.855 17.989 12.9209 17.9837 12.9861V13.6664C17.9837 13.7619 17.9576 13.7902 17.8784 13.7902H16.8846C16.8153 13.776 16.7479 13.8234 16.732 13.897C16.4954 14.5546 16.1168 15.1443 15.6276 15.6169C15.4489 15.7889 15.2611 15.9508 15.065 16.1001C14.8545 16.2296 14.6497 16.3644 14.4339 16.4712C14.0367 16.6622 13.6203 16.8031 13.1928 16.8925C12.787 16.9702 12.3754 17.0054 11.9624 16.9993H8.313V16.9937L8.31451 16.9925Z" fill="white"/>
<defs>
<linearGradient id="paint0_linear_79_3943" x1="12" y1="0" x2="12" y2="24" gradientUnits="userSpaceOnUse">
<stop stop-color="#F4BA45"/>
<stop offset="1" stop-color="#F19C3B"/>
</linearGradient>
</defs>
</svg>
