<svg width="48" height="48" viewBox="0 0 48 48" fill="none" xmlns="http://www.w3.org/2000/svg">
<circle cx="24" cy="24" r="24" fill="#A5A8A9"/>
<path d="M24.3889 24.7894L21.8925 33.2132H35.2452C35.4605 33.2138 35.663 33.3155 35.792 33.4878C35.921 33.6602 35.9614 33.8832 35.9012 34.0899L34.7401 38.0899C34.6263 38.4825 34.2664 38.7523 33.8577 38.7517H13.4629L16.9114 27.1058L13.0972 28.2669L13.939 25.5442L17.759 24.383L22.6008 8.02311C22.7102 7.62913 23.0685 7.3562 23.4774 7.35547H28.6443C28.8593 7.3547 29.0621 7.45487 29.1922 7.62601C29.3223 7.79714 29.3645 8.0194 29.3062 8.2263L25.2423 22.0608L29.0565 20.8997L28.238 23.669L24.3889 24.7894Z" fill="white"/>
</svg>
