<svg width="48" height="48" viewBox="0 0 48 48" fill="none" xmlns="http://www.w3.org/2000/svg">
<circle cx="24" cy="24" r="24" fill="url(#paint0_linear_5300_16114)"/>
<path fill-rule="evenodd" clip-rule="evenodd" d="M41.1816 24.2924H36.9507C36.9507 15.6702 29.9366 8.68091 21.2836 8.68091C12.7378 8.68091 5.79 15.4991 5.61995 23.9737C5.44403 32.7337 13.6917 40.3405 22.484 40.3405H23.59C31.3414 40.3405 41.7307 34.2941 43.354 26.9269C43.6537 25.569 42.5772 24.2924 41.1816 24.2924ZM14.9963 24.6766C14.9963 25.8296 14.0499 26.7726 12.8928 26.7726C11.7356 26.7726 10.7893 25.8291 10.7893 24.6766V21.2857C10.7893 20.1327 11.7356 19.1896 12.8928 19.1896C14.0499 19.1896 14.9963 20.1327 14.9963 21.2857V24.6766ZM20.1971 26.7726C21.3542 26.7726 22.3005 25.8296 22.3005 24.6766V21.2857C22.3005 20.1327 21.3542 19.1896 20.1971 19.1896C19.0403 19.1896 18.0936 20.1327 18.0936 21.2857V24.6766C18.0936 25.8291 19.0399 26.7726 20.1971 26.7726Z" fill="url(#paint1_linear_5300_16114)"/>
<defs>
<linearGradient id="paint0_linear_5300_16114" x1="0" y1="0" x2="0" y2="48" gradientUnits="userSpaceOnUse">
<stop stop-color="#534BB1"/>
<stop offset="1" stop-color="#551BF9"/>
</linearGradient>
<linearGradient id="paint1_linear_5300_16114" x1="5.61714" y1="8.68091" x2="5.61714" y2="40.3405" gradientUnits="userSpaceOnUse">
<stop stop-color="white"/>
<stop offset="1" stop-color="white" stop-opacity="0.82"/>
</linearGradient>
</defs>
</svg>
