<svg width="48" height="48" viewBox="0 0 48 48" fill="none" xmlns="http://www.w3.org/2000/svg">
<circle cx="24" cy="24" r="24" fill="white"/>
<path fill-rule="evenodd" clip-rule="evenodd" d="M7.90326 6.19849L7.55014 6.52448L9.44285 8.8377L15.579 16.3812L16.079 17.0145C16.3959 17.4524 16.2766 17.8462 15.7338 18.1548C15.4321 18.3263 14.8114 18.5003 14.5007 18.5003C14.1493 18.5003 13.7533 18.331 13.4651 18.0575C13.4585 18.0513 13.4513 18.044 13.4434 18.0356L13.3543 17.9296L13.2272 17.7604L12.8486 17.218L12.1753 16.2078L7.84573 9.54387L7.82244 9.52081C7.81832 9.51832 7.81653 9.51953 7.81893 9.5278L7.82446 9.54258L7.8774 9.64934L11.0878 15.417L12.0479 17.1669L12.3807 17.8005L12.4872 18.016L12.5729 18.2093L12.5934 18.269L12.6001 18.306C12.6001 18.5901 12.5226 18.7394 12.1721 19.1302L12.0664 19.2535C11.5557 19.8765 11.3151 20.6089 11.1384 22.0295L11.1071 22.2582C10.8709 23.839 10.258 25.0215 8.6862 26.9819L8.39351 27.3479L7.95795 27.9029L7.73345 28.2045L7.61868 28.3702L7.52326 28.5196L7.43986 28.6629L7.32123 28.8889C7.01494 29.4991 6.9307 29.8409 6.89657 30.6113C6.86045 31.4261 6.9307 31.9523 7.17967 32.7311C7.36123 33.2994 7.54941 33.7068 7.9436 34.348L8.42263 35.1079L8.60695 35.4202L8.75771 35.6975C8.91338 35.9993 8.99715 36.2229 8.99715 36.3445L9.00066 36.4069C9.00935 36.4597 9.03865 36.4838 9.13394 36.4795L9.25291 36.4658C9.27696 36.4619 9.30327 36.4573 9.33204 36.4518L9.5359 36.4098L10.1537 36.2665C11.8561 35.8358 13.2338 35.1331 14.0305 34.2841C14.5564 33.7235 14.6799 33.414 14.6839 32.6457C14.6842 32.5899 14.6842 32.539 14.6839 32.4922L14.6761 32.2542C14.6616 32.0527 14.6236 31.9417 14.533 31.749C14.312 31.2786 13.9095 30.8873 13.0223 30.2809L12.8121 30.1337C11.7993 29.4055 11.3549 28.7917 11.2264 27.9668C11.127 27.3299 11.217 26.8585 11.6813 25.8306L12.0225 25.1007C12.5763 23.9039 12.7258 23.298 12.8295 21.9924L12.8467 21.7923C12.9179 21.0293 13.0214 20.7035 13.2624 20.4381C13.5345 20.1382 13.7797 20.0366 14.4533 19.9446L14.7197 19.9042C15.6674 19.7454 16.2989 19.4662 16.8259 18.9806C17.3246 18.5211 17.5332 18.0783 17.5653 17.4118L17.5896 16.9065L17.3109 16.5815L17.1108 16.3533L7.90326 6.19849ZM8.47615 30.7294C8.4018 30.6773 8.36802 30.6177 8.36802 30.5413C8.36802 30.2289 8.92829 30.1159 9.28888 30.3557C9.67055 30.6095 9.79183 31.129 9.5636 31.5331C9.34515 31.9202 8.92783 32.047 8.63307 31.8162C8.45016 31.6731 8.43734 31.4623 8.59684 31.2226L8.64292 31.1481C8.74871 30.9605 8.71745 30.8588 8.53963 30.7672L8.47615 30.7294Z" fill="#FF007A"/>
<path d="M16.432 9.49626C15.9817 9.42636 15.9627 9.41821 16.1746 9.38559C16.5807 9.32314 17.5395 9.4083 18.2002 9.56535C19.7427 9.93199 21.1463 10.8712 22.6445 12.5394L23.0425 12.9825L23.6119 12.891C26.0107 12.5055 28.451 12.8119 30.492 13.7547C31.0535 14.0142 31.9388 14.5305 32.0494 14.6632C32.0847 14.7055 32.1493 14.9777 32.1931 15.2681C32.3448 16.2731 32.2689 17.0434 31.9615 17.6187C31.7942 17.9318 31.7849 18.031 31.8973 18.299C31.9872 18.5128 32.2374 18.671 32.4852 18.6706C32.9925 18.6701 33.5384 17.8501 33.7913 16.7092L33.8918 16.2561L34.0909 16.4815C35.1828 17.7186 36.0402 19.4055 36.1876 20.6064L36.2259 20.9194L36.0425 20.6348C35.7266 20.145 35.4092 19.8116 35.0029 19.5427C34.2703 19.058 33.4958 18.893 31.4444 18.7849C29.5917 18.6873 28.5432 18.5291 27.5035 18.1901C25.7345 17.6132 24.8426 16.8451 22.7413 14.0882C21.808 12.8637 21.2311 12.1861 20.6573 11.6405C19.3534 10.4008 18.0722 9.75059 16.432 9.49626Z" fill="#FF007A"/>
<path d="M32.4671 12.2303C32.5137 11.4097 32.625 10.8686 32.8488 10.3742C32.9373 10.1786 33.0203 10.0186 33.0331 10.0186C33.0459 10.0186 33.0073 10.1629 32.9475 10.3394C32.7848 10.8191 32.7581 11.4752 32.8702 12.2385C33.0125 13.207 33.0933 13.3469 34.117 14.3931C34.5972 14.8838 35.1557 15.5028 35.3582 15.7685L35.7262 16.2517L35.3582 15.9063C34.9079 15.4841 33.8725 14.6606 33.6438 14.5429C33.4905 14.4639 33.4678 14.4653 33.3732 14.5594C33.286 14.6462 33.2676 14.7765 33.2555 15.3928C33.2366 16.3532 33.1058 16.9698 32.7898 17.5862C32.6189 17.9195 32.592 17.8485 32.7466 17.4722C32.8621 17.1911 32.8738 17.0677 32.8729 16.1378C32.8711 14.2696 32.6494 13.8204 31.3487 13.0512C31.0192 12.8563 30.4763 12.5751 30.1422 12.4265C29.8082 12.2777 29.5428 12.1483 29.5525 12.1386C29.5893 12.1019 30.8578 12.4721 31.3683 12.6686C32.1277 12.9606 32.2531 12.9985 32.3454 12.9633C32.4072 12.9397 32.437 12.7596 32.4671 12.2303Z" fill="#FF007A"/>
<path d="M17.3064 15.4263C16.3923 14.1679 15.8268 12.2385 15.9492 10.7962L15.9871 10.3499L16.1952 10.3878C16.5859 10.459 17.2595 10.7099 17.575 10.9014C18.4407 11.4272 18.8155 12.1193 19.1968 13.8968C19.3084 14.4174 19.455 15.0065 19.5224 15.206C19.631 15.5271 20.0411 16.277 20.3745 16.764C20.6148 17.1148 20.4553 17.281 19.9242 17.233C19.1134 17.1599 18.015 16.4018 17.3064 15.4263Z" fill="#FF007A"/>
<path d="M31.3582 24.792C27.0866 23.072 25.582 21.5791 25.582 19.0602C25.582 18.6896 25.5948 18.3862 25.6103 18.3862C25.626 18.3862 25.7912 18.5086 25.9776 18.6582C26.8438 19.3529 27.8138 19.6496 30.4991 20.0414C32.0793 20.272 32.9686 20.4581 33.7887 20.7302C36.396 21.5949 38.0091 23.3495 38.3937 25.7396C38.5056 26.4341 38.4401 27.7365 38.2588 28.4228C38.1157 28.9649 37.6791 29.9422 37.5633 29.9797C37.5312 29.9901 37.4997 29.867 37.4915 29.6996C37.4476 28.8022 36.994 27.9284 36.2324 27.2739C35.3665 26.5298 34.2029 25.9373 31.3582 24.792Z" fill="#FF007A"/>
<path d="M28.3596 25.5065C28.306 25.188 28.2132 24.7812 28.1533 24.6026L28.0442 24.2778L28.2467 24.5051C28.5269 24.8196 28.7483 25.222 28.936 25.7579C29.0791 26.167 29.0952 26.2886 29.0942 26.9532C29.0931 27.6059 29.0752 27.7427 28.943 28.1108C28.7344 28.6914 28.4757 29.1031 28.0414 29.545C27.2611 30.3391 26.2579 30.7788 24.8102 30.9612C24.5585 30.9928 23.8251 31.0463 23.1803 31.0797C21.5553 31.1643 20.4857 31.3388 19.5247 31.6763C19.3866 31.7249 19.2633 31.7544 19.2507 31.7418C19.2118 31.7031 19.8662 31.3131 20.4065 31.0528C21.1686 30.6857 21.9271 30.4853 23.6268 30.2023C24.4665 30.0625 25.3335 29.8929 25.5537 29.8253C27.6329 29.1878 28.7017 27.5428 28.3596 25.5065Z" fill="#FF007A"/>
<path d="M30.3175 28.9843C29.75 27.7642 29.6197 26.5861 29.9306 25.4876C29.9639 25.3703 30.0174 25.2742 30.0496 25.2742C30.0817 25.2742 30.2157 25.3465 30.3471 25.4351C30.6087 25.6111 31.1332 25.9076 32.5307 26.6695C34.2745 27.6202 35.2688 28.3564 35.9448 29.1976C36.537 29.9342 36.9034 30.7731 37.0797 31.7961C37.1797 32.3756 37.1211 33.77 36.9724 34.3535C36.5036 36.1934 35.4139 37.6387 33.8596 38.4819C33.632 38.6054 33.4275 38.7069 33.4054 38.7074C33.3832 38.7078 33.4663 38.4968 33.5898 38.2385C34.1127 37.1456 34.1722 36.0825 33.7769 34.8992C33.5348 34.1746 33.0414 33.2906 32.0449 31.7963C30.8865 30.0591 30.6025 29.5968 30.3175 28.9843Z" fill="#FF007A"/>
<path d="M14.2727 35.5671C15.8579 34.2285 17.8303 33.2777 19.627 32.9859C20.4012 32.8601 21.6911 32.9099 22.408 33.0936C23.5574 33.3876 24.5855 34.0464 25.1202 34.8312C25.6427 35.5984 25.8668 36.2668 26.1002 37.7541C26.1924 38.3408 26.2924 38.93 26.3227 39.0634C26.4981 39.8341 26.8392 40.4503 27.2619 40.7598C27.9332 41.2511 29.0892 41.2817 30.2265 40.8381C30.4195 40.7628 30.587 40.7107 30.5988 40.7225C30.64 40.7635 30.0674 41.1468 29.6634 41.3486C29.1198 41.6202 28.6875 41.7251 28.1132 41.7251C27.0716 41.7251 26.2069 41.1953 25.4854 40.1149C25.3434 39.9023 25.0243 39.2654 24.7762 38.6997C24.0143 36.9621 23.6382 36.4328 22.7536 35.8534C21.9838 35.3494 20.9911 35.2591 20.2442 35.6253C19.2632 36.1064 18.9894 37.3599 19.6921 38.1545C19.9713 38.4702 20.4921 38.7426 20.9179 38.7955C21.7146 38.8947 22.3993 38.2886 22.3993 37.4843C22.3993 36.9621 22.1986 36.6639 21.6932 36.4359C21.003 36.1245 20.2612 36.4885 20.2647 37.137C20.2662 37.4134 20.3867 37.587 20.6637 37.7124C20.8415 37.7929 20.8457 37.7992 20.7007 37.7691C20.0675 37.6378 19.9192 36.8744 20.4283 36.3676C21.0396 35.7592 22.3037 36.0276 22.7378 36.858C22.9201 37.207 22.9413 37.9017 22.7823 38.3211C22.4265 39.2601 21.3889 39.7539 20.3364 39.4852C19.6197 39.3022 19.328 39.1041 18.464 38.2143C16.9627 36.6678 16.3798 36.3681 14.2155 36.0302L13.8008 35.9655L14.2727 35.5671Z" fill="#FF007A"/>
<path fill-rule="evenodd" clip-rule="evenodd" d="M18.283 20.2096C17.7674 20.3679 17.2662 20.9144 17.111 21.4874C17.0163 21.837 17.07 22.4502 17.2118 22.6395C17.4408 22.9454 17.6623 23.0261 18.2621 23.0217C19.4363 23.0136 20.4571 22.5099 20.5757 21.8805C20.673 21.3643 20.2247 20.6491 19.6072 20.3352C19.2886 20.1732 18.6109 20.1089 18.283 20.2096ZM19.6557 21.2829C19.8367 21.0257 19.7575 20.7476 19.4495 20.5595C18.863 20.2014 17.9762 20.4977 17.9762 21.0518C17.9762 21.3275 18.4387 21.6285 18.8626 21.6285C19.1448 21.6285 19.5309 21.4602 19.6557 21.2829Z" fill="#FF007A"/>
</svg>
