<svg width="48" height="48" viewBox="0 0 48 48" fill="none" xmlns="http://www.w3.org/2000/svg">
<circle cx="24" cy="24" r="24" fill="white"/>
<path fill-rule="evenodd" clip-rule="evenodd" d="M23.9288 39.9375C19.258 39.934 15.4955 38.8132 12.8667 36.8001C10.2063 34.7627 8.79492 31.8716 8.79492 28.6002C8.79492 25.448 10.2032 23.175 11.7966 21.6386C13.0453 20.4345 14.4233 19.6634 15.3828 19.2198C15.1659 18.5539 14.8951 17.6821 14.6529 16.7817C14.3289 15.5768 14.0109 14.1632 14.0109 13.1273C14.0109 11.9011 14.2783 10.6697 14.9991 9.71285C15.7606 8.70195 16.9071 8.1604 18.2863 8.1604C19.3642 8.1604 20.2794 8.5602 20.9959 9.25C21.6807 9.9093 22.1365 10.785 22.4512 11.6977C23.0042 13.3016 23.2196 15.3166 23.28 17.3275H24.6011C24.6615 15.3166 24.8768 13.3016 25.4298 11.6977C25.7445 10.785 26.2003 9.9093 26.8852 9.25C27.6016 8.5602 28.5168 8.1604 29.5947 8.1604C30.974 8.1604 32.1204 8.70195 32.882 9.71285C33.6028 10.6697 33.8701 11.9011 33.8701 13.1273C33.8701 14.1632 33.5522 15.5768 33.2281 16.7817C32.9859 17.6821 32.7152 18.5539 32.4982 19.2198C33.4577 19.6634 34.8357 20.4345 36.0844 21.6386C37.6779 23.175 39.0861 25.448 39.0861 28.6002C39.0861 31.8716 37.6748 34.7627 35.0144 36.8001C32.3855 38.8132 28.6231 39.934 23.9522 39.9375H23.9288Z" fill="#633001"/>
<path d="M18.2861 9.32642C16.266 9.32642 15.3361 10.8489 15.3361 12.9544C15.3361 14.628 16.4166 17.9797 16.8599 19.2845C16.9596 19.578 16.8029 19.8995 16.5172 20.0133C14.8981 20.6582 10.1201 23.0195 10.1201 28.4273C10.1201 34.1239 14.9756 38.419 23.9296 38.4258C23.9332 38.4258 23.9367 38.4258 23.9403 38.4258C23.9439 38.4258 23.9474 38.4258 23.951 38.4258C32.905 38.419 37.7605 34.1239 37.7605 28.4273C37.7605 23.0195 32.9825 20.6582 31.3635 20.0133C31.0777 19.8995 30.9211 19.578 31.0208 19.2845C31.4641 17.9797 32.5445 14.628 32.5445 12.9544C32.5445 10.8489 31.6146 9.32642 29.5945 9.32642C26.6866 9.32642 25.9618 13.4876 25.9101 17.9535C25.9066 18.2517 25.668 18.4936 25.3729 18.4936H22.5078C22.2126 18.4936 21.974 18.2517 21.9706 17.9535C21.9189 13.4876 21.194 9.32642 18.2861 9.32642Z" fill="#D1884F"/>
<path d="M23.951 36.6011C17.3721 36.6011 10.1315 33.0435 10.1201 28.4382C10.1201 28.4454 10.1201 28.4526 10.1201 28.4598C10.1201 34.1609 14.9834 38.4583 23.951 38.4583C32.9186 38.4583 37.7819 34.1609 37.7819 28.4598C37.7819 28.4526 37.7819 28.4454 37.7819 28.4382C37.7705 33.0435 30.53 36.6011 23.951 36.6011Z" fill="#FEDC90"/>
<path d="M20.2957 27.0236C20.2957 28.5784 19.5683 29.3882 18.671 29.3882C17.7737 29.3882 17.0464 28.5784 17.0464 27.0236C17.0464 25.4687 17.7737 24.6589 18.671 24.6589C19.5683 24.6589 20.2957 25.4687 20.2957 27.0236Z" fill="#633001"/>
<path d="M30.8557 27.0236C30.8557 28.5784 30.1284 29.3882 29.2311 29.3882C28.3338 29.3882 27.6064 28.5784 27.6064 27.0236C27.6064 25.4687 28.3338 24.6589 29.2311 24.6589C30.1284 24.6589 30.8557 25.4687 30.8557 27.0236Z" fill="#633001"/>
</svg>
