<svg width="48" height="48" viewBox="0 0 48 48" fill="none" xmlns="http://www.w3.org/2000/svg">
<circle cx="24" cy="24" r="24" fill="white"/>
<path d="M20.0889 38.2592C20.0889 38.7809 19.7333 38.9548 19.2 38.9548C12.6222 36.8681 8 30.9557 8 24C8 17.0443 12.6222 11.1319 19.2 9.04523C19.7333 8.87134 20.0889 9.21913 20.0889 9.74081V10.9581C20.0889 11.3058 19.9111 11.6536 19.5556 11.8275C14.4 13.7403 10.8444 18.4354 10.8444 24C10.8444 29.5646 14.5778 34.4336 19.5556 36.1725C19.9111 36.3464 20.0889 36.6942 20.0889 37.0419V38.2592Z" fill="#2775CA"/>
<path d="M25.4223 33.9118C25.4223 34.2596 25.0667 34.6074 24.7112 34.6074H23.2889C22.9334 34.6074 22.5778 34.2596 22.5778 33.9118V31.8251C19.7334 31.4773 18.3112 29.9123 17.7778 27.6517C17.7778 27.3039 17.9556 26.9561 18.3112 26.9561H19.9112C20.2667 26.9561 20.4445 27.13 20.6223 27.4778C20.9778 28.6951 21.6889 29.7384 24.0001 29.7384C25.7778 29.7384 27.0223 28.869 27.0223 27.4778C27.0223 26.0867 26.3112 25.565 23.8223 25.2172C20.0889 24.6955 18.3112 23.6522 18.3112 20.696C18.3112 18.4354 20.0889 16.6965 22.5778 16.3487V14.262C22.5778 13.9142 22.9334 13.5664 23.2889 13.5664H24.7112C25.0667 13.5664 25.4223 13.9142 25.4223 14.262V16.3487C27.5556 16.6965 28.9778 17.9137 29.3334 19.8265C29.3334 20.1743 29.1556 20.5221 28.8001 20.5221H27.3778C27.0223 20.5221 26.8445 20.3482 26.6667 20.0004C26.3112 18.7832 25.4223 18.2615 23.8223 18.2615C22.0445 18.2615 21.1556 19.131 21.1556 20.3482C21.1556 21.5655 21.6889 22.261 24.3556 22.6088C28.0889 23.1305 29.8667 24.1739 29.8667 27.13C29.8667 29.3906 28.0889 31.3035 25.4223 31.8251V33.9118Z" fill="#2775CA"/>
<path d="M28.8 38.9547C28.2667 39.1286 27.9111 38.7808 27.9111 38.2591V37.0419C27.9111 36.6941 28.0889 36.3463 28.4445 36.1724C33.6 34.2596 37.1556 29.5645 37.1556 23.9999C37.1556 18.4354 33.4222 13.5664 28.4445 11.8274C28.0889 11.6536 27.9111 11.3058 27.9111 10.958V9.74074C27.9111 9.21906 28.2667 9.04517 28.8 9.04517C35.2 11.1319 40 17.0442 40 23.9999C40 30.9556 35.3778 36.868 28.8 38.9547Z" fill="#2775CA"/>
</svg>
