<svg width="252" height="531" viewBox="0 0 252 531" fill="none" xmlns="http://www.w3.org/2000/svg">
<path d="M0.346777 133.688C0.346778 155.302 6.00814 177.138 11.5252 198.415C16.6219 218.075 21.4358 236.645 21.5656 253.953C21.6895 272.531 16.8623 291.669 11.7394 311.959C4.35271 341.203 -3.28544 371.447 3.79624 402.161C10.8238 432.668 24.6041 463.027 42.5987 487.64C63.3215 515.99 85.8948 530.984 107.875 531C126.517 531.013 143.837 520.292 159.353 499.131C168.052 487.269 177.849 477.528 187.322 468.109C203.275 452.246 218.344 437.263 227.499 413.643C243.978 371.133 251.992 318.896 252 253.948C252 253.911 252 253.872 252 253.837C252 211.498 248.807 161.662 225.209 112.926C222.008 106.314 218.208 96.7213 213.807 85.6141C199.928 50.5806 180.92 2.60104 161.659 2.89486L161.67 3.60501L161.659 2.89486C152.895 3.02831 145.915 5.04753 139.163 6.99857C127.533 10.3608 116.546 13.5384 97.767 6.79149C72.4893 -2.29254 61.1858 -3.48525 42.6138 20.2371C23.5464 44.5921 7.95932 80.8497 1.93415 114.864C0.828186 121.106 0.346777 127.389 0.346777 133.688ZM22.9893 254.729C22.9893 254.466 22.9876 254.205 22.9859 253.942C22.856 236.458 18.0201 217.807 12.9006 198.058C5.81198 170.728 -1.51532 142.467 3.3323 115.112C9.32021 81.3142 24.8002 45.2947 43.7308 21.1137C61.8104 -1.97999 72.2006 -0.886841 97.2862 8.12676C116.499 15.0309 127.699 11.7928 139.557 8.36368C146.219 6.4364 153.107 4.44684 161.681 4.31512C179.961 4.03574 198.76 51.4887 212.486 86.1356C216.897 97.2709 220.706 106.886 223.931 113.544C247.403 162.021 250.58 211.661 250.58 253.837C250.58 253.876 250.58 253.909 250.58 253.948C250.572 318.717 242.589 370.785 226.175 413.129C217.128 436.469 202.163 451.347 186.32 467.103C176.808 476.56 166.972 486.34 158.209 498.291C142.974 519.066 126.04 529.593 107.876 529.58C86.3663 529.563 64.1906 514.771 43.7454 486.801C25.8614 462.339 12.1649 432.167 5.17984 401.842C-1.82032 371.453 5.77125 341.387 13.1172 312.308C18.19 292.213 22.9893 273.212 22.9893 254.729Z" fill="url(#paint0_linear_5371_14284)"/>
<path d="M11.1471 367.786C11.1471 373.344 11.5191 378.867 12.3701 384.341C16.8137 412.976 31.31 447.25 50.1998 473.787C69.3132 500.633 90.1007 515.158 110.316 515.791C127.529 516.329 144.053 506.982 159.432 488.012C167.398 478.185 175.887 469.888 184.096 461.867C200.274 446.056 215.554 431.124 224.836 406.781C241.023 364.322 248.911 314.354 248.947 254.022C248.947 253.861 248.947 253.7 248.947 253.538C248.947 204.778 244.353 163.92 222.111 123.176C218.071 115.773 213.249 104.295 208.144 92.1423C194.892 60.5933 178.398 21.3304 161.332 17.7663C152.692 15.9629 145.288 18.4857 137.449 21.1564C128.022 24.3706 118.275 27.6919 104.691 24.5761C101.781 23.9083 99.0753 23.2385 96.5368 22.6116C76.9764 17.7739 67.1589 15.3471 50.3256 34.3854C7.58706 82.7195 16.2351 143.111 23.8622 196.394C26.7732 216.728 29.523 235.937 29.6085 253.952C29.6085 254.094 29.6103 254.237 29.6103 254.379C29.6103 270.356 25.3971 287.959 20.9384 306.586C16.1077 326.771 11.1471 347.498 11.1471 367.786ZM247.527 253.54C247.527 253.702 247.527 253.857 247.527 254.022C247.49 314.178 239.633 363.979 223.508 406.274C214.338 430.325 199.166 445.154 183.103 460.85C174.865 468.9 166.347 477.226 158.328 487.117C143.245 505.724 127.106 514.894 110.36 514.37C90.6065 513.753 70.2032 499.434 51.3576 472.962C32.5859 446.595 18.1845 412.554 13.7717 384.123C9.86595 358.949 16.1979 332.497 22.3197 306.917C26.7971 288.207 31.0306 270.524 31.0306 254.379C31.0306 254.235 31.0288 254.091 31.0288 253.945C30.9415 235.831 28.1859 216.577 25.2679 196.193C17.3132 140.627 9.08711 83.1671 51.3908 35.3249C67.6525 16.9322 77.1917 19.2902 96.1957 23.9894C98.7411 24.6203 101.454 25.2897 104.373 25.9592C118.351 29.1659 128.741 25.6262 137.907 22.501C145.557 19.895 152.781 17.4316 161.042 19.1569C177.379 22.5691 193.711 61.4495 206.834 92.6918C211.953 104.88 216.789 116.39 220.865 123.856C242.96 164.334 247.527 204.999 247.527 253.54Z" fill="url(#paint1_linear_5371_14284)"/>
<path d="M25.027 147.584C25.027 167.234 26.9724 187.08 28.8327 206.046C30.5085 223.138 32.0918 239.286 32.1285 253.95C32.1523 270.729 30.9265 287.648 29.7227 304.093C25.9386 355.76 22.0305 409.181 57.5231 460.289C75.3105 485.904 93.9035 499.538 112.783 500.812C128.638 501.883 144.37 494.032 159.541 477.478C166.306 470.099 173.08 463.624 179.633 457.364C196.466 441.277 212.366 426.084 222.255 400.298C238.451 358.066 246.345 310.29 246.387 254.24C246.387 254.075 246.387 253.904 246.387 253.739C246.387 207.905 241.771 171.826 219.018 133.865C213.596 124.82 208.112 112.196 202.305 98.8279C190.554 71.7749 177.234 41.1112 160.798 33.4084C153.717 30.0905 142.802 32.3229 131.248 34.6861C122.252 36.5249 112.949 38.4278 105.34 37.6379C102.572 37.3515 99.9642 37.0185 97.488 36.7042C81.6349 34.6861 71.1626 33.3531 57.6337 47.8966C31.6477 75.836 25.027 111.363 25.027 147.584ZM33.5505 254.765C33.5505 254.492 33.5488 254.22 33.5488 253.946C33.5121 239.214 31.9253 223.035 30.246 205.907C24.9863 152.276 19.0275 91.4896 58.6733 48.8657C71.7062 34.8549 81.891 36.1513 97.3087 38.1135C99.7959 38.4295 102.414 38.7625 105.194 39.0512C113.02 39.8631 122.431 37.9377 131.532 36.0773C142.85 33.7635 153.54 31.5778 160.195 34.6955C176.145 42.1694 189.351 72.5718 201.004 99.3937C206.828 112.804 212.331 125.47 217.799 134.594C240.383 172.274 244.966 208.151 244.966 253.739C244.966 253.905 244.966 254.072 244.966 254.24C244.925 310.113 237.062 357.722 220.928 399.791C211.153 425.278 195.366 440.364 178.651 456.337C172.082 462.614 165.291 469.104 158.494 476.52C143.629 492.737 128.282 500.435 112.88 499.396C94.4513 498.15 76.2186 484.722 58.6879 459.48C23.4863 408.787 27.3775 355.612 31.1389 304.197C32.3247 287.992 33.5505 271.246 33.5505 254.765Z" fill="url(#paint2_linear_5371_14284)"/>
<path d="M30.1703 179.974C30.1703 193.745 30.746 207.292 31.2873 220.078C31.7961 232.076 32.2769 243.409 32.2844 253.949C32.3013 264.033 32.0958 274.148 31.9055 283.987C30.7937 341.301 29.7454 395.446 64.642 446.954C81.1535 471.328 98.3617 484.603 115.789 486.417C130.258 487.922 145.023 481.509 159.677 467.355C164.041 463.14 168.333 459.162 172.485 455.316C192.018 437.215 208.886 421.582 219.755 394.009C236.242 352.188 244.266 306.585 244.287 254.596C244.287 254.53 244.287 254.457 244.287 254.391C244.287 213.909 239.456 179.75 215.976 144.657C208.687 133.764 202.206 119.862 195.94 106.418C185.684 84.4215 175.081 61.6742 160.107 49.608C152.448 43.4351 136.967 45.8001 123.309 47.8863C117.91 48.7111 112.812 49.4899 108.815 49.6215C105.641 49.7269 102.682 49.7117 99.8215 49.6989C86.6961 49.6395 76.3286 49.5918 64.7992 61.7644C35.6908 92.5019 30.1703 137.296 30.1703 179.974ZM33.7047 253.949C33.6972 243.377 33.2164 232.031 32.7059 220.019C30.3834 165.153 27.7424 102.962 65.8312 62.7411C76.9368 51.0156 86.5337 51.0581 99.8151 51.1192C102.689 51.132 105.661 51.1471 108.861 51.0418C112.942 50.9067 118.082 50.1227 123.524 49.2903C136.891 47.2483 152.043 44.9345 159.216 50.7139C173.932 62.5746 184.466 85.1689 194.652 107.02C200.941 120.511 207.446 134.463 214.796 145.449C238.076 180.24 242.867 214.171 242.867 254.391C242.867 254.459 242.867 254.527 242.867 254.596C242.845 306.404 234.854 351.835 218.434 393.487C207.684 420.761 190.925 436.29 171.52 454.272C167.363 458.125 163.064 462.108 158.69 466.334C144.352 480.182 129.968 486.463 115.937 485.004C98.9461 483.236 82.0831 470.166 65.8178 446.159C31.175 395.022 32.2105 341.099 33.3258 284.013C33.5162 274.174 33.7106 263.986 33.7047 253.949Z" fill="url(#paint3_linear_5371_14284)"/>
<path d="M32.5377 234.91C32.5377 238.32 32.547 241.668 32.5563 244.943C32.5639 248.019 32.5709 251.024 32.5709 253.948C32.5709 317.947 35.5448 379.884 71.4653 434.102C86.8102 457.263 102.251 469.697 118.669 472.112C131.936 474.065 145.781 469.139 159.818 457.471C215.522 411.169 242.611 345.244 242.611 255.982C242.611 255.677 242.611 255.383 242.611 255.076C242.529 215.094 237.668 185.933 213.059 155.198C202.525 142.041 194.704 126.506 187.141 111.482C178.684 94.6815 170.696 78.8115 159.268 66.093C152.252 58.2866 139.78 56.4536 130.553 56.2893C108.677 55.9007 82.3066 64.473 71.7668 75.3959C34.6128 113.9 32.5377 181.835 32.5377 234.91ZM241.191 255.982C241.191 344.806 214.273 410.361 158.91 456.38C145.197 467.777 131.727 472.599 118.876 470.709C103.102 468.388 87.5489 455.806 72.6492 433.318C36.9487 379.427 33.9918 317.721 33.9917 253.948C33.9917 251.022 33.9842 248.017 33.9766 244.939C33.8142 190.92 33.6495 116.946 72.7895 76.383C83.0918 65.7047 108.993 57.3267 130.528 57.7096C139.473 57.8687 151.537 59.6161 158.211 67.0435C169.512 79.6193 177.459 95.4062 185.873 112.121C193.469 127.211 201.323 142.814 211.95 156.086C236.299 186.497 241.11 215.411 241.19 255.079C241.191 255.379 241.191 255.682 241.191 255.982Z" fill="url(#paint4_linear_5371_14284)"/>
<path d="M34.9384 253.948C34.9384 287.28 53.982 427.527 107.902 455.318C123.801 463.513 141.317 460.935 159.963 447.652C230.549 397.372 241.316 307.256 241.316 257.053C241.316 256.589 241.315 256.134 241.313 255.675C241.164 217.559 236.192 191.858 210.384 165.237C195.719 150.107 186.854 133.344 177.468 115.598C171.723 104.735 165.781 93.502 158.381 82.6624C150.116 70.5579 137.383 67.4141 128.158 66.9088C109.906 65.9083 89.364 74.3031 78.2049 87.3232C39.1551 132.885 34.9384 219.028 34.9384 253.948ZM239.896 257.053C239.896 306.979 229.213 396.579 159.138 446.495C140.961 459.444 123.941 461.987 108.552 454.057C80.5001 439.598 62.8279 393.481 52.9429 357.342C41.5038 315.522 36.3587 271.704 36.3587 253.948C36.3587 219.185 40.5422 133.449 79.2829 88.2475C90.1743 75.54 110.241 67.3489 128.08 68.3272C136.987 68.8157 149.269 71.838 157.208 83.4651C164.564 94.2359 170.485 105.434 176.212 116.263C185.647 134.1 194.558 150.95 209.366 166.225C234.837 192.501 239.745 217.936 239.893 255.683C239.895 256.134 239.896 256.595 239.896 257.053Z" fill="url(#paint5_linear_5371_14284)"/>
<path d="M40.8978 253.948C40.8978 288.384 63.4496 414.171 113.245 441.475C127.863 449.49 143.631 448.225 160.113 437.717C215.627 402.316 240.344 322.093 240.344 257.748C240.344 257.29 240.343 256.837 240.34 256.38C240.153 222.216 234.989 199.098 208.279 174.813C189.773 157.987 180.224 140.364 169.168 119.959C165.529 113.244 161.767 106.3 157.498 99.0666C149.704 85.8561 138.973 78.3991 126.47 77.5021C112.04 76.4683 96.3759 84.6372 84.57 99.353C54.4022 136.956 40.8978 204.093 40.8978 253.948ZM238.923 257.752C238.923 321.707 214.414 401.406 159.349 436.519C143.338 446.729 128.056 447.976 113.927 440.229C87.3553 425.659 69.7821 382.734 59.7196 349.289C47.717 309.403 42.3181 269.524 42.3181 253.948C42.3181 204.341 55.7247 137.575 85.6783 100.241C97.1925 85.8894 112.403 77.9183 126.368 78.9189C138.386 79.781 148.729 86.9971 156.276 99.7878C160.529 106.999 164.287 113.932 167.919 120.636C179.037 141.156 188.639 158.875 207.323 175.864C233.792 199.93 238.731 221.864 238.92 256.387C238.923 256.839 238.923 257.299 238.923 257.752Z" fill="url(#paint6_linear_5371_14284)"/>
<path d="M49.1278 253.948C49.1278 285.295 70.265 400.95 116.937 428.341C130.466 436.28 145.034 436.001 160.236 427.508C212.023 398.583 239.633 319.487 239.633 258.93C239.633 258.34 239.631 257.757 239.625 257.173C239.338 224.915 233.984 203.693 206.57 183.949C181.764 166.082 173.316 148.887 160.527 122.861C159.303 120.372 158.037 117.795 156.713 115.126C148.47 98.5208 137.923 89.2127 126.212 88.208C114.214 87.18 101.877 94.8291 90.5333 110.327C60.004 152.041 49.1278 211.867 49.1278 253.948ZM238.213 258.935C238.213 319.088 210.86 397.607 159.545 426.269C144.813 434.497 130.719 434.782 117.655 427.114C71.357 399.945 50.5481 281.385 50.5481 253.948C50.5481 212.092 61.3545 152.603 91.68 111.167C102.715 96.0888 114.614 88.641 126.091 89.6248C137.281 90.5829 147.43 99.621 155.44 115.759C156.765 118.426 158.029 120.999 159.253 123.488C172.135 149.707 180.647 167.026 205.74 185.103C232.664 204.492 237.922 225.396 238.205 257.184C238.21 257.763 238.213 258.353 238.213 258.935Z" fill="url(#paint7_linear_5371_14284)"/>
<path d="M54.8062 253.949C54.8062 278.659 74.8742 387.033 119.524 415.078C132.344 423.128 146.073 423.727 160.328 416.855C212.07 391.912 239.102 310.151 239.102 259.62C239.102 259.086 239.098 258.561 239.093 258.036C238.723 225.71 230.558 209.716 205.488 192.215C177.76 172.859 170.961 162.622 156.069 130.596C145.513 107.895 133.926 97.7633 121.626 100.484C85.6364 108.442 54.8062 227.611 54.8062 253.949ZM237.681 259.628C237.681 309.779 210.928 390.887 159.712 415.575C145.925 422.221 132.658 421.648 120.279 413.873C76.0884 386.119 56.2265 278.497 56.2265 253.949C56.2265 227.827 86.5421 109.696 121.933 101.869C133.493 99.3129 144.545 109.18 154.781 131.195C169.801 163.497 176.665 173.826 204.675 193.38C229.595 210.776 237.304 225.887 237.672 258.051C237.678 258.574 237.681 259.099 237.681 259.628Z" fill="url(#paint8_linear_5371_14284)"/>
<path d="M58.7518 253.948C58.7518 280.65 81.3408 375.847 122.444 402.466C134.628 410.355 147.398 411.4 160.401 405.571C211.936 382.468 238.67 307.537 238.67 260.95C238.67 260.275 238.664 259.607 238.653 258.946C238.151 229.233 230.3 215.349 205.049 199.523C177.032 181.962 169.877 176.622 155.642 145.275C145.497 122.934 134.128 112.953 121.849 115.61C102.155 119.871 85.6803 155.777 77.6131 176.802C65.8073 207.568 58.7518 240.188 58.7518 253.948ZM237.25 260.991C237.25 285.243 230.037 314.837 217.784 340.644C207.423 362.461 188.957 391.212 159.82 404.277C147.285 409.895 134.97 408.885 123.216 401.273C83.2256 375.376 60.1721 279.624 60.1721 253.948C60.1721 225.445 89.4708 124.069 122.15 116.997C133.685 114.502 144.519 124.214 154.35 145.863C168.71 177.488 176.558 183.341 204.295 200.726C229.046 216.239 236.741 229.847 237.233 258.968C237.244 259.637 237.25 260.314 237.25 260.991Z" fill="url(#paint9_linear_5371_14284)"/>
<path d="M61.8393 253.948C61.8393 280.258 86.6187 362.248 124.014 388.02C136.017 396.29 148.269 398.136 160.427 393.503C204.253 376.809 237.633 309.197 238.201 259.899C238.572 231.245 226.274 218.534 204.992 206.222L200.767 203.785C177.81 190.563 168.307 185.09 155.517 158.872C145.479 138.291 134.143 129.299 121.828 132.144C88.83 139.763 61.8393 227.499 61.8393 253.948ZM236.787 258.797C236.787 259.158 236.785 259.517 236.781 259.885C236.218 308.724 203.23 375.677 159.923 392.176C148.225 396.633 136.416 394.84 124.82 386.849C87.7939 361.335 63.2596 280.044 63.2596 253.948C63.2596 224.857 91.897 140.513 122.148 133.527C133.733 130.851 144.53 139.588 154.241 159.493C167.222 186.104 177.512 192.032 200.058 205.016L204.28 207.45C224.834 219.342 236.787 231.622 236.787 258.797Z" fill="url(#paint10_linear_5371_14284)"/>
<path d="M64.7842 253.947C64.7842 279.736 86.971 345.801 121.755 372.06C134.676 381.814 147.899 384.86 161.059 381.112C208.711 367.54 238.713 299.737 237.615 260.801C236.948 236.655 228.441 223.959 205.105 212.288C180.893 200.175 169.706 192.985 156.349 170.267C145.348 151.556 133.279 143.837 120.477 147.321C89.4804 155.76 64.7842 228.165 64.7842 253.947ZM236.223 262.882C236.223 301.635 206.865 366.588 160.671 379.747C147.962 383.366 135.157 380.4 122.61 370.927C89.4658 345.904 66.2045 280.08 66.2045 253.947C66.2045 228.472 90.4367 156.971 120.85 148.691C132.957 145.398 144.489 152.897 155.125 170.988C168.674 194.033 179.991 201.313 204.469 213.556C227.243 224.948 235.545 237.321 236.195 260.842C236.214 261.51 236.223 262.196 236.223 262.882Z" fill="url(#paint11_linear_5371_14284)"/>
<path d="M68.1603 254.606C68.1603 282.851 89.5385 331.706 118.58 355.574C133.074 367.485 147.725 371.989 162.126 368.963C204.743 360.004 235.66 305.258 236.753 261.728C237.451 234.449 215.517 221.736 194.319 209.388C180.349 201.25 165.903 192.836 157.808 180.341C146.365 162.681 133.831 155.671 120.556 159.507C91.3651 167.944 68.4874 227.401 68.1638 253.939C68.1614 254.159 68.1603 254.384 68.1603 254.606ZM235.349 260.46C235.349 260.867 235.344 261.277 235.333 261.691C234.256 304.607 202.594 359.006 161.834 367.572C147.876 370.508 133.627 366.1 119.483 354.476C90.7417 330.858 69.5806 282.538 69.5806 254.615C69.5806 254.394 69.5817 254.175 69.5841 253.957C69.9036 227.769 92.3343 169.143 120.95 160.872C133.554 157.228 145.553 164.04 156.615 181.114C164.895 193.892 179.49 202.394 193.604 210.616C215.061 223.114 235.349 234.932 235.349 260.46Z" fill="url(#paint12_linear_5371_14284)"/>
<path d="M72.4305 255.326C72.4305 281.384 90.6981 317.751 114.552 338.853C130.661 353.103 147.6 359.378 163.536 356.999C203.257 351.072 233.317 302.469 235.453 262.557C236.788 237.492 213.516 224.296 191.004 211.509C178.516 204.415 166.72 197.714 159.714 189.327C147.144 174.277 133.184 168.867 119.347 173.684C94.289 182.411 73.2006 224.718 72.4479 253.929C72.4363 254.39 72.4305 254.858 72.4305 255.326ZM234.087 260.539C234.087 261.179 234.07 261.825 234.034 262.479C231.928 301.846 202.371 349.768 163.327 355.593C143.734 358.518 126.501 347.524 115.493 337.787C91.4897 316.556 73.2099 279.819 73.8682 253.966C74.6092 225.199 95.2698 183.572 119.813 175.027C133.234 170.354 146.291 175.471 158.625 190.237C165.796 198.822 177.7 205.585 190.302 212.744C211.837 224.977 234.087 237.617 234.087 260.539Z" fill="url(#paint13_linear_5371_14284)"/>
<path d="M77.99 254.943C77.99 276.944 90.9914 303.292 111.34 322.378C128.546 338.518 147.665 346.613 165.174 345.171C203.269 342.032 231.77 299.469 233.525 263.232C234.734 238.378 209.529 225.032 187.3 213.207C177.476 207.982 168.198 203.045 161.934 197.559C143.461 181.379 127.013 183.544 116.466 188.21C95.0492 197.686 78.5115 225.942 77.9993 253.935C77.994 254.27 77.99 254.606 77.99 254.943ZM232.145 261.56C232.145 262.091 232.132 262.621 232.106 263.162C230.381 298.811 202.42 340.676 165.057 343.754C148.202 345.143 128.976 336.976 112.312 321.342C91.9309 302.227 78.9824 275.851 79.4196 253.961C79.9143 226.935 96.4392 198.624 117.041 189.509C131.622 183.058 146.823 186.211 160.998 198.628C167.384 204.223 176.734 209.195 186.633 214.461C207.995 225.826 232.145 238.675 232.145 261.56Z" fill="url(#paint14_linear_5371_14284)"/>
<path d="M85.5672 254.064C85.5672 272.005 96.0442 293.246 112.914 309.506C129.371 325.368 149.072 334.084 166.966 333.419C202.762 332.087 229.312 295.62 230.75 263.724C231.82 238.963 204.787 225.833 183.029 215.271C175.995 211.856 169.351 208.631 164.355 205.369C148.705 195.143 131.385 194.22 115.583 202.769C97.6373 212.476 85.5748 233.084 85.5672 254.048C85.5672 254.053 85.5672 254.059 85.5672 254.064ZM229.363 262.27C229.363 262.731 229.353 263.193 229.332 263.661C227.921 294.938 201.939 330.697 166.912 331.998C149.403 332.65 130.08 324.08 113.9 308.483C97.2991 292.482 86.9875 271.632 86.9875 254.064C86.9875 254.059 86.9875 254.055 86.9875 254.048C86.9951 233.591 98.7584 213.484 116.259 204.017C131.581 195.73 148.385 196.63 163.578 206.556C168.649 209.87 175.332 213.114 182.408 216.548C203.373 226.724 229.363 239.339 229.363 262.27Z" fill="url(#paint15_linear_5371_14284)"/>
<path d="M96.8525 253.371C96.8525 253.802 96.8589 254.229 96.8711 254.662C97.3141 270.021 106.246 287.3 120.765 300.884C135.319 314.499 153.289 322.278 168.837 321.692C184.139 321.115 200.761 313.077 212.213 300.714C222.179 289.954 227.415 276.908 226.885 263.918C225.914 238.927 199.445 227.409 178.175 218.153C174.122 216.39 170.293 214.723 166.841 213.053C151.315 205.547 132.451 206.851 117.61 216.46C104.366 225.036 96.8531 238.433 96.8525 253.371ZM225.499 265.64C225.499 277.68 220.451 289.73 211.171 299.749C199.966 311.846 183.724 319.71 168.783 320.272C153.605 320.845 136.019 313.211 121.736 299.847C107.488 286.516 98.7222 269.609 98.2914 254.621C97.8566 239.678 105.183 226.199 118.383 217.653C132.81 208.312 151.141 207.039 166.223 214.333C169.7 216.015 173.541 217.686 177.608 219.456C198.513 228.552 224.53 239.874 225.467 263.974C225.488 264.528 225.499 265.085 225.499 265.64Z" fill="url(#paint16_linear_5371_14284)"/>
<path d="M110.914 256.119C110.914 267.082 116.386 278.722 126.367 288.959C138.843 301.753 155.799 309.791 170.621 309.935C183.858 310.064 199.002 303.362 209.202 292.859C215.042 286.845 221.915 276.952 221.385 263.862C220.453 240.042 191.863 229.363 172.945 222.297C171.68 221.823 170.454 221.367 169.275 220.919C156.064 215.911 140.249 217.967 128.004 226.282C117.321 233.536 111.095 244.225 110.918 255.61L111.628 255.621L110.918 255.61C110.915 255.778 110.914 255.949 110.914 256.119ZM219.992 265.235C219.992 277.156 213.631 286.259 208.182 291.87C198.241 302.106 183.503 308.64 170.634 308.515C156.178 308.374 139.605 300.501 127.384 287.968C117.516 277.846 112.149 266.428 112.338 255.632C112.507 244.715 118.508 234.447 128.8 227.456C140.671 219.397 155.986 217.401 168.771 222.247C169.952 222.694 171.181 223.153 172.448 223.626C191.014 230.562 219.072 241.04 219.967 263.918C219.984 264.36 219.992 264.8 219.992 265.235Z" fill="url(#paint17_linear_5371_14284)"/>
<path d="M126.589 256.318C126.589 256.497 126.59 256.674 126.594 256.854C127.033 279.409 151.071 297.228 172.27 298.094C183.11 298.538 194.94 293.866 203.144 285.906C209.734 279.509 213.352 271.666 213.352 263.791C213.352 263.695 213.35 263.601 213.35 263.506C213.107 241.617 181.24 231.754 171.479 229.251C159.496 226.181 145.853 228.869 136.721 236.1C130.084 241.354 126.59 248.336 126.589 256.318ZM211.931 263.791C211.931 271.28 208.466 278.758 202.154 284.886C194.222 292.587 182.793 297.103 172.328 296.674C152.178 295.853 128.432 278.266 128.015 256.828C127.837 247.085 133.123 240.76 137.602 237.213C146.399 230.248 159.558 227.663 171.125 230.627C180.64 233.065 211.698 242.643 211.929 263.521C211.93 263.612 211.931 263.7 211.931 263.791Z" fill="url(#paint18_linear_5371_14284)"/>
<path d="M142.959 257.871C142.959 257.977 142.959 258.08 142.961 258.185C143.162 272.481 157.235 285.27 173.691 286.113C189.351 286.912 202.195 276.707 202.93 262.881C203.708 248.436 187.47 240.644 173.341 238.356C163.943 236.836 154.949 238.846 149.285 243.738C145.142 247.314 142.959 252.197 142.959 257.871ZM201.535 261.912C201.535 262.206 201.527 262.506 201.512 262.807C200.819 275.84 188.63 285.453 173.763 284.693C158.028 283.889 144.573 271.74 144.381 258.167C144.379 258.069 144.379 257.971 144.379 257.873C144.379 252.622 146.392 248.112 150.213 244.812C155.563 240.193 164.125 238.302 173.113 239.758C186.36 241.903 201.535 248.981 201.535 261.912Z" fill="url(#paint19_linear_5371_14284)"/>
<path d="M159.233 259.635C159.233 266.957 166.173 273.357 174.769 273.933C179.182 274.228 183.417 272.878 186.387 270.23C188.838 268.044 190.271 265.105 190.421 261.956C190.428 261.797 190.432 261.638 190.432 261.479C190.432 254.225 182.444 249.411 174.744 248.534C169.992 247.997 165.616 249.147 162.739 251.688C160.479 253.687 159.266 256.393 159.234 259.514C159.234 259.553 159.233 259.594 159.233 259.635ZM189.011 261.482C189.011 261.617 189.008 261.752 189.002 261.889C188.87 264.654 187.606 267.24 185.441 269.171C182.754 271.565 178.899 272.786 174.863 272.516C166.96 271.989 160.646 266.136 160.654 259.529C160.682 256.822 161.728 254.479 163.68 252.753C166.256 250.476 170.23 249.454 174.583 249.948C181.662 250.75 189.011 255.05 189.011 261.482Z" fill="url(#paint20_linear_5371_14284)"/>
<defs>
<linearGradient id="paint0_linear_5371_14284" x1="252.007" y1="-15.6029" x2="252.007" y2="531" gradientUnits="userSpaceOnUse">
<stop offset="0.0625" stop-color="#00C097"/>
<stop offset="1" stop-color="#9A89F0"/>
</linearGradient>
<linearGradient id="paint1_linear_5371_14284" x1="248.953" y1="1.76157" x2="248.954" y2="515.813" gradientUnits="userSpaceOnUse">
<stop offset="0.0625" stop-color="#00C097"/>
<stop offset="1" stop-color="#9A89F0"/>
</linearGradient>
<linearGradient id="paint2_linear_5371_14284" x1="246.393" y1="17.2443" x2="246.393" y2="500.908" gradientUnits="userSpaceOnUse">
<stop offset="0.0625" stop-color="#00C097"/>
<stop offset="1" stop-color="#9A89F0"/>
</linearGradient>
<linearGradient id="paint3_linear_5371_14284" x1="244.293" y1="32.0299" x2="244.293" y2="486.632" gradientUnits="userSpaceOnUse">
<stop offset="0.0625" stop-color="#00C097"/>
<stop offset="1" stop-color="#9A89F0"/>
</linearGradient>
<linearGradient id="paint4_linear_5371_14284" x1="242.617" y1="43.4249" x2="242.617" y2="472.529" gradientUnits="userSpaceOnUse">
<stop offset="0.0625" stop-color="#00C097"/>
<stop offset="1" stop-color="#9A89F0"/>
</linearGradient>
<linearGradient id="paint5_linear_5371_14284" x1="241.322" y1="54.6892" x2="241.322" y2="459.997" gradientUnits="userSpaceOnUse">
<stop offset="0.0625" stop-color="#00C097"/>
<stop offset="1" stop-color="#9A89F0"/>
</linearGradient>
<linearGradient id="paint6_linear_5371_14284" x1="240.349" y1="66.0138" x2="240.349" y2="446.67" gradientUnits="userSpaceOnUse">
<stop offset="0.0625" stop-color="#00C097"/>
<stop offset="1" stop-color="#9A89F0"/>
</linearGradient>
<linearGradient id="paint7_linear_5371_14284" x1="239.638" y1="77.4345" x2="239.638" y2="434.093" gradientUnits="userSpaceOnUse">
<stop offset="0.0625" stop-color="#00C097"/>
<stop offset="1" stop-color="#9A89F0"/>
</linearGradient>
<linearGradient id="paint8_linear_5371_14284" x1="239.106" y1="90.124" x2="239.106" y2="421.597" gradientUnits="userSpaceOnUse">
<stop offset="0.0625" stop-color="#00C097"/>
<stop offset="1" stop-color="#9A89F0"/>
</linearGradient>
<linearGradient id="paint9_linear_5371_14284" x1="238.675" y1="106.111" x2="238.675" y2="409.281" gradientUnits="userSpaceOnUse">
<stop offset="0.0625" stop-color="#00C097"/>
<stop offset="1" stop-color="#9A89F0"/>
</linearGradient>
<linearGradient id="paint10_linear_5371_14284" x1="238.214" y1="123.469" x2="238.214" y2="395.99" gradientUnits="userSpaceOnUse">
<stop offset="0.0625" stop-color="#00C097"/>
<stop offset="1" stop-color="#9A89F0"/>
</linearGradient>
<linearGradient id="paint11_linear_5371_14284" x1="237.649" y1="139.216" x2="237.649" y2="382.665" gradientUnits="userSpaceOnUse">
<stop offset="0.0625" stop-color="#00C097"/>
<stop offset="1" stop-color="#9A89F0"/>
</linearGradient>
<linearGradient id="paint12_linear_5371_14284" x1="236.774" y1="151.962" x2="236.774" y2="369.876" gradientUnits="userSpaceOnUse">
<stop offset="0.0625" stop-color="#00C097"/>
<stop offset="1" stop-color="#9A89F0"/>
</linearGradient>
<linearGradient id="paint13_linear_5371_14284" x1="235.512" y1="166.247" x2="235.512" y2="357.491" gradientUnits="userSpaceOnUse">
<stop offset="0.0625" stop-color="#00C097"/>
<stop offset="1" stop-color="#9A89F0"/>
</linearGradient>
<linearGradient id="paint14_linear_5371_14284" x1="233.57" y1="179.868" x2="233.57" y2="345.335" gradientUnits="userSpaceOnUse">
<stop offset="0.0625" stop-color="#00C097"/>
<stop offset="1" stop-color="#9A89F0"/>
</linearGradient>
<linearGradient id="paint15_linear_5371_14284" x1="230.785" y1="192.753" x2="230.785" y2="333.455" gradientUnits="userSpaceOnUse">
<stop offset="0.0625" stop-color="#00C097"/>
<stop offset="1" stop-color="#9A89F0"/>
</linearGradient>
<linearGradient id="paint16_linear_5371_14284" x1="226.925" y1="204.713" x2="226.925" y2="321.723" gradientUnits="userSpaceOnUse">
<stop offset="0.0625" stop-color="#00C097"/>
<stop offset="1" stop-color="#9A89F0"/>
</linearGradient>
<linearGradient id="paint17_linear_5371_14284" x1="221.417" y1="215.387" x2="221.417" y2="309.937" gradientUnits="userSpaceOnUse">
<stop offset="0.0625" stop-color="#00C097"/>
<stop offset="1" stop-color="#9A89F0"/>
</linearGradient>
<linearGradient id="paint18_linear_5371_14284" x1="213.354" y1="225.834" x2="213.354" y2="298.123" gradientUnits="userSpaceOnUse">
<stop offset="0.0625" stop-color="#00C097"/>
<stop offset="1" stop-color="#9A89F0"/>
</linearGradient>
<linearGradient id="paint19_linear_5371_14284" x1="202.959" y1="236.367" x2="202.959" y2="286.157" gradientUnits="userSpaceOnUse">
<stop offset="0.0625" stop-color="#00C097"/>
<stop offset="1" stop-color="#9A89F0"/>
</linearGradient>
<linearGradient id="paint20_linear_5371_14284" x1="190.432" y1="247.615" x2="190.432" y2="273.973" gradientUnits="userSpaceOnUse">
<stop offset="0.0625" stop-color="#00C097"/>
<stop offset="1" stop-color="#9A89F0"/>
</linearGradient>
</defs>
</svg>
