<svg width="24" height="24" viewBox="0 0 24 24" fill="none" xmlns="http://www.w3.org/2000/svg">
<path d="M13 12H19V10H13V12ZM19 12V19H21V12H19ZM19 19H13V21H19V19ZM13 19V12H11V19H13ZM5 5H8V3H5V5ZM8 5V19H10V5H8ZM8 19H5V21H8V19ZM5 19V5H3V19H5ZM5 19H3C3 20.1046 3.89543 21 5 21V19ZM8 19V21C9.10457 21 10 20.1046 10 19H8ZM8 5H10C10 3.89543 9.10457 3 8 3V5ZM5 3C3.89543 3 3 3.89543 3 5H5V3ZM13 5H19V3H13V5ZM19 5V7H21V5H19ZM19 7H13V9H19V7ZM13 7V5H11V7H13ZM13 7H11C11 8.10457 11.8954 9 13 9V7ZM19 7V9C20.1046 9 21 8.10457 21 7H19ZM19 5H21C21 3.89543 20.1046 3 19 3V5ZM13 3C11.8954 3 11 3.89543 11 5H13V3ZM13 19H11C11 20.1046 11.8954 21 13 21V19ZM19 19V21C20.1046 21 21 20.1046 21 19H19ZM19 12H21C21 10.8954 20.1046 10 19 10V12ZM13 10C11.8954 10 11 10.8954 11 12H13V10Z" fill="#fff"/>
</svg>