<svg width="12" height="11" viewBox="0 0 12 11" fill="none" xmlns="http://www.w3.org/2000/svg">
<path fill-rule="evenodd" clip-rule="evenodd" d="M7.38976 1.52609L3.20391 2.66865H2.63086L6.37808 0.811545C6.66932 0.666514 7.02306 0.786783 7.16809 1.07802L7.38976 1.52609ZM8.53309 1.58018C8.58497 1.56603 8.63686 1.55896 8.68873 1.55896C8.94814 1.55896 9.18632 1.73111 9.25706 1.99405L9.441 2.6685H7.95532H4.54651L7.54972 1.84902L8.53309 1.58018ZM10.0556 3.0813H9.92114H9.73838H9.55561H8.16072H3.03512H2.36303H1.79705H1.69211H1.34074C1.15444 3.0813 0.988181 3.16737 0.879702 3.30297C0.83018 3.36546 0.792448 3.43739 0.771224 3.51639C0.758254 3.56591 0.75 3.6178 0.75 3.67086V3.7416V4.4137V10.2397C0.75 10.5651 1.01412 10.8293 1.33956 10.8293H10.0544C10.3798 10.8293 10.6439 10.5651 10.6439 10.2397V8.59483H7.14551C6.5925 8.59483 6.14326 8.14559 6.14326 7.59259V7.05255V6.86979V6.68703V6.28141C6.14326 6.01022 6.25173 5.76379 6.42743 5.58339C6.58307 5.42302 6.79177 5.31454 7.02524 5.28742C7.06415 5.28271 7.10424 5.28034 7.14433 5.28034H10.1534H10.3362H10.5189H10.6439V3.67086C10.6451 3.34542 10.381 3.0813 10.0556 3.0813ZM10.8514 5.72128C10.9292 5.7484 10.9988 5.78967 11.0578 5.8439C11.1757 5.95119 11.25 6.10685 11.25 6.27901V7.59136C11.25 7.7635 11.1757 7.91914 11.0578 8.02644C10.9988 8.08068 10.9292 8.12313 10.8514 8.14907C10.7913 8.16911 10.7276 8.18091 10.6604 8.18091H10.6451H7.14546C6.82002 8.18091 6.55591 7.91678 6.55591 7.59135V6.93812V6.75536V6.5726V6.27901C6.55591 5.95356 6.82002 5.68945 7.14546 5.68945H9.79139H10.4505H10.6333H10.6451H10.6604C10.7276 5.68945 10.7913 5.70124 10.8514 5.72128ZM8.08168 7.34727C8.2444 7.34727 8.37646 7.21521 8.37646 7.0525V6.85676C8.37646 6.69403 8.2444 6.56198 8.08168 6.56198H7.93547H7.88595C7.81757 6.56198 7.75507 6.58673 7.70436 6.62564C7.6348 6.6787 7.59117 6.76243 7.59117 6.85676V7.0525C7.59117 7.21521 7.72323 7.34727 7.88595 7.34727H8.08168Z" fill="#C4CFE0"/>
</svg>
